<svg width="526" height="400" viewBox="0 0 526 400" fill="none" xmlns="http://www.w3.org/2000/svg">
<path d="M441.403 129.351C441.403 129.351 301.859 127.615 272.779 179.651C243.7 231.686 98.2994 256.176 44.7305 231.686C-8.83849 207.202 -19.5503 168.939 41.6693 135.265C118.442 93.0416 109.756 149.212 116.667 139.855C155.283 87.543 226.74 24.3262 277.374 37.311C337.065 52.6171 292.68 109.247 292.68 109.247C292.68 109.247 383.245 81.9042 441.403 129.351Z" fill="white"/>
<path d="M174.826 261.535C174.826 261.535 301.477 244.57 339.74 187.939C378.003 131.309 525.319 170.723 525.319 170.723C525.319 170.723 458.359 178.761 429.28 215.491C429.28 215.491 462.571 200.948 494.711 208.604C494.711 208.604 471.755 223.528 445.35 251.074C419.008 278.562 225.334 295.208 174.826 261.535Z" fill="white"/>
<path d="M284.435 384.68C284.435 384.68 293.797 376.923 271.832 377.832C250.128 378.732 226.934 381.764 236.538 387.224C246.148 392.684 275.43 389.342 284.435 384.68Z" fill="#FFB287"/>
<path d="M331.059 376.977C331.059 376.977 344.948 365.467 312.362 366.816C280.164 368.151 245.756 372.648 260.007 380.754C274.259 388.854 317.706 383.897 331.059 376.977Z" fill="#FFB287"/>
<path d="M322.305 393.221C322.305 393.221 328.67 387.949 313.741 388.564C298.991 389.173 283.225 391.238 289.754 394.947C296.283 398.661 316.188 396.393 322.305 393.221Z" fill="#FFB287"/>
<path d="M500.064 371.352C505.422 368.29 462.565 369.437 441.098 367.778C439.618 367.662 437.964 367.918 436.194 367.957C426.251 366.419 372.493 364.485 351.602 365.611C330.787 366.733 308.237 373.552 328.708 378.993C344.057 383.069 353.599 385.212 388.336 383.215C395.436 382.803 414.674 379.442 430.033 376.139C435.464 376.11 452.927 377.319 459.194 376.957C473.156 376.149 495.498 373.958 500.064 371.352Z" fill="#FFB287"/>
<path d="M487.955 350.769C487.955 350.769 493.4 334.984 503.198 335.526C512.996 336.072 507.551 345.87 507.551 345.87C507.551 345.87 511.903 339.337 517.349 344.782C522.794 350.228 517.349 354.034 517.349 354.034C517.349 354.034 521.701 351.311 522.247 356.21C522.794 361.109 501.017 368.184 492.854 366.008C484.691 363.831 487.955 350.769 487.955 350.769Z" fill="#288453"/>
<path d="M243.318 335.768C180.74 337.04 222.272 347.631 222.272 347.631C222.272 347.631 -2.89489 344.492 61.5649 357.196C61.5649 357.196 21.8802 364.194 11.0571 370.969C4.02064 375.375 69.9361 391.445 106.714 390.101C159.137 388.186 165.893 382.194 165.642 377.092C165.327 370.79 128.505 370.21 139.624 367.144C156.013 362.622 167.586 369.069 230.691 361.786C270.487 357.196 300.712 358.725 300.712 358.725C300.712 358.725 269.394 368.324 300.006 365.858C359.354 361.075 371.822 367.038 379.153 357.192C390.025 342.596 320.811 334.191 243.318 335.768Z" fill="#FFB287"/>
<path d="M437.902 90.5175L450.766 27.2716C450.843 26.8992 455.22 26.1835 455.22 26.1835L460.84 27.8712L458.755 102.235C458.726 103.357 457.435 103.957 456.415 103.319L438.715 92.2681C438.1 91.8861 437.772 91.1752 437.902 90.5175Z" fill="#1D2538"/>
<path d="M444.193 91.8037L454.731 26.5121C454.881 25.8012 463.257 28.0838 463.233 28.8334L460.994 100.097C460.926 102.245 458.465 103.376 456.535 102.172L445.673 95.0922C444.517 94.3716 443.918 93.0369 444.193 91.8037Z" fill="#1D2538"/>
<path d="M443.613 62.4584C443.613 62.4584 442.661 61.2203 446.302 61.0027C449.958 60.7802 461.932 71.0859 461.932 71.0859L461.086 101.819L437.679 91.6198L443.613 62.4584Z" fill="#C73F37"/>
<path d="M438.738 86.3827C438.738 86.3827 449.063 35.9765 449.552 33.457C450.127 30.4731 452.782 30.3087 452.468 34.2114C452.26 36.7987 442.81 87.5917 442.81 87.5917L438.738 86.3827Z" fill="#F4E8D8"/>
<path d="M445.161 54.7402C445.161 54.7402 445.963 53.9133 447.593 54.0583C454.267 54.6532 462.101 65.07 462.101 65.07L461.898 71.2118C461.898 71.2118 451.259 60.2678 448.691 59.6101C445.04 58.6768 443.86 61.385 443.86 61.385L445.161 54.7402Z" fill="#C73F37"/>
<path d="M460.554 78.6304C460.554 78.6304 452.057 68.5714 444.59 69.4709C441.447 69.8482 442.433 70.8927 442.433 70.8927C442.433 70.8927 441.81 71.3376 444.407 71.2748C448.266 71.1829 460.554 78.6304 460.554 78.6304Z" fill="#1D2538"/>
<path d="M461.497 85.1877C457.84 79.0846 445.721 75.3608 445.721 75.3608C445.721 75.3608 459.374 83.379 461.366 86.9287L461.497 85.1877Z" fill="#1D2538"/>
<path d="M440.01 82.7119C440.01 82.7119 441.509 80.4438 442.772 80.9225C444.034 81.4013 452.357 86.513 454.214 89.0423C456.047 91.5425 443.042 83.181 442.375 82.9005C441.703 82.6248 440.01 82.7119 440.01 82.7119Z" fill="#1D2538"/>
<path d="M461.216 94.9469C461.216 94.9469 460.046 93.0705 457.637 92.3692C455.229 91.668 461.211 96.7846 461.211 96.7846L461.216 94.9469Z" fill="#1D2538"/>
<path d="M377.05 368.479C438.279 367.251 480.933 370.597 492.414 366.008C492.414 366.008 503.126 340.358 490.117 321.99C463.05 293.922 444.199 282.963 401.728 287.553C359.258 292.142 323.544 318.673 312.063 343.927C300.582 369.18 313.34 369.625 317.359 370.201C321.377 370.776 357.981 368.866 377.05 368.479Z" fill="#422D21"/>
<path d="M435.059 292.365C414.013 284.995 401.033 284.037 377.52 296.093C354.007 308.154 348.629 311.491 345.215 327.765C341.801 344.043 364.564 342.103 380.871 338.249C397.188 334.4 459.162 300.804 435.059 292.365Z" fill="#F4E8D8"/>
<path d="M473.848 327.686C451.946 336.512 436.214 339.041 413.001 326.032C388.289 312.187 383.114 308.284 395.084 293.123C404.393 281.328 437.539 289.941 450.34 294.231C462.044 298.153 491.839 320.437 473.848 327.686Z" fill="#F4E8D8"/>
<path d="M399.814 77.4895L487.714 128.466C488.662 129.018 495.949 124.839 496.617 123.887C497.284 122.934 494.426 116.042 492.903 115.138L408.049 64.2919C406.806 63.552 400.674 65.1479 400.674 65.1479L399.814 77.4895Z" fill="#F6874E"/>
<path d="M441.143 89.54L446.308 98.7237L406.115 74.6547C404.984 73.9534 404.21 71.4967 404.21 71.4967L402.488 65.6838L441.143 89.54Z" fill="#F4E8D8"/>
<path d="M496.622 123.881C496.622 123.881 495.993 124.592 494.581 125.443C492.216 126.865 489.131 129.269 487.375 128.345C485.62 127.421 401.221 78.5096 399.818 77.4892C398.754 76.7154 398.29 69.4516 398.29 68.5618C398.29 67.6671 400.684 65.1524 400.684 65.1524C400.684 65.1524 401.482 72.4548 402.884 74.0507C404.287 75.6466 489.295 124.94 489.295 124.94C490.436 125.318 494.325 124.491 496.622 123.881Z" fill="#C73F37"/>
<path d="M400.737 292.563L434.783 100.015C434.86 99.5897 435.01 99.1787 435.233 98.8063C436.403 96.838 438.178 96.5237 440.765 98.0083C440.765 98.0083 455.046 106.346 456.323 107.115C457.599 107.879 459.118 109.373 458.939 111.453L442.975 297.621C442.845 299.159 441.747 300.436 440.248 300.803L424.144 304.745C423.442 304.919 422.703 304.871 422.025 304.619L404.833 298.163C404.427 298.008 404.05 297.786 403.721 297.496L401.903 295.895C400.96 295.058 400.515 293.796 400.737 292.563Z" fill="#F6BE4A"/>
<path d="M434.981 99.2222C435.784 97.578 437.525 96.6059 437.361 97.6215L404.48 296.258C404.359 296.978 403.494 297.292 402.942 296.804L400.771 294.889C400.529 294.676 400.413 294.347 400.471 294.028L434.86 99.5317C434.885 99.4253 434.923 99.3189 434.981 99.2222Z" fill="#F6874E"/>
<path d="M423.346 304.581L449.557 103.319" stroke="#F4E8D8" stroke-width="2" stroke-miterlimit="10"/>
<path d="M430.407 153.125L447.517 193.68L448.711 182.291L432.22 139.298L430.407 153.125Z" fill="#F4E8D8"/>
<path d="M433.018 133.307L450.128 178.185L453.774 149.899L437.283 106.907L433.018 133.307Z" fill="#F4E8D8"/>
<path d="M482.466 320.08C482.466 320.08 484.763 328.882 466.014 335.004C466.009 334.999 491.645 334.617 482.466 320.08Z" fill="#F4E8D8"/>
<path d="M449.939 217.406L444.968 215.873L441.142 222.765L444.199 229.269L434.251 241.127L431.19 245.243" fill="#F4E8D8"/>
<path d="M449.939 217.406L444.968 215.873L441.142 222.765L444.199 229.269L434.251 241.127L431.19 245.243" stroke="#F4E8D8" stroke-width="2" stroke-miterlimit="10"/>
<path d="M347.714 331.135C347.714 331.135 357.913 342.799 376.479 340.226C384.507 339.554 408.523 331.71 408.523 331.71C408.523 331.71 364.897 339.859 347.714 331.135Z" fill="#422D21"/>
<path d="M469.071 113.455L474.429 111.162L477.108 118.431L469.071 113.455Z" fill="#C73F37"/>
<path d="M458.387 0.769821C450.737 -0.975994 444.343 5.15612 444.203 14.0496C444.072 22.4934 449.682 30.1779 456.656 31.5852C463.547 32.9779 469.679 27.8034 470.463 19.6836C471.285 11.1383 465.936 2.49146 458.387 0.769821ZM456.607 23.3252C453.967 22.4692 451.718 18.7744 451.592 14.9975C451.462 11.1335 453.599 8.69611 456.356 9.63914C459.088 10.5725 461.303 14.4559 461.318 18.2328C461.332 21.9276 459.233 24.1763 456.607 23.3252Z" fill="#1D2538"/>
<path d="M459.63 6.22947C455.288 5.15586 451.646 8.69102 451.53 13.972C451.506 15.0069 451.627 16.0321 451.859 17.0139C451.709 16.3562 451.612 15.6791 451.593 14.9972C451.462 11.1332 453.6 8.69586 456.356 9.63889C459.089 10.5722 461.304 14.4556 461.318 18.2326C461.333 21.9273 459.229 24.1761 456.608 23.3249C454.973 22.793 453.489 21.1729 452.565 19.1224C453.827 22.0047 456.124 24.2341 458.779 24.8483C462.856 25.7865 466.406 22.5995 466.749 17.6039C467.112 12.4486 463.939 7.2934 459.63 6.22947Z" fill="#F6BE4A"/>
<path d="M451.98 17.4781C452.005 17.5651 452.024 17.6522 452.048 17.7392C452.024 17.6522 452.005 17.5651 451.98 17.4781Z" fill="#F6BE4A"/>
<path d="M452.309 18.4889C452.358 18.6243 452.416 18.7549 452.469 18.8855C452.416 18.7549 452.358 18.6243 452.309 18.4889Z" fill="#F6BE4A"/>
<path d="M449.005 23.2428C448.787 23.2428 448.57 23.1461 448.43 22.9575C443.632 16.6996 446.95 8.12531 447.095 7.7626C447.24 7.39023 447.661 7.20645 448.038 7.35637C448.41 7.50145 448.594 7.92703 448.444 8.29941C448.41 8.38162 445.291 16.4772 449.585 22.0773C449.827 22.3965 449.769 22.8511 449.45 23.0929C449.315 23.1944 449.16 23.2428 449.005 23.2428Z" fill="#F4E8D8"/>
<path d="M454.127 27.2811C453.977 27.2811 453.827 27.2375 453.701 27.1408C452.71 26.4154 451.893 25.6029 451.278 24.7179C451.051 24.3891 451.129 23.9393 451.457 23.7072C451.786 23.4799 452.236 23.5573 452.468 23.8861C452.99 24.6357 453.696 25.337 454.557 25.9656C454.881 26.2026 454.954 26.6572 454.717 26.9812C454.572 27.1795 454.354 27.2811 454.127 27.2811Z" fill="#F4E8D8"/>
<path d="M490.368 373.006C494.319 370.815 479.971 351.108 469.738 346.282C459.505 341.456 465.97 364.973 473.592 370.37C481.214 375.772 486.417 375.201 490.368 373.006Z" fill="#33A86D"/>
<path d="M482.408 374.369C482.408 374.369 462.589 364.736 452.206 365.089C441.828 365.442 454.557 373.581 454.557 373.581C454.557 373.581 443.603 371.328 440.846 377.082C438.09 382.837 482.408 374.369 482.408 374.369Z" fill="#33A86D"/>
<path d="M501.752 370.162C502.748 368.029 501.989 361.743 492.888 362.782C483.786 363.822 481.605 372.184 484.787 374.22C487.969 376.251 500.756 372.295 501.752 370.162Z" fill="#33A86D"/>
<path d="M422.199 185.106L421.541 192.07C421.43 192.51 422.165 192.858 422.89 192.708L428.476 191.557C429.037 191.441 429.308 191.073 429.061 190.759L424.133 184.946C423.713 184.414 422.349 184.525 422.199 185.106Z" fill="#F6874E"/>
<path d="M447.835 242.215L443.052 246.997L446.877 251.969L447.835 242.215Z" fill="#F6874E"/>
<path d="M410.718 258.091L414.93 263.832L409.379 266.893L410.718 258.091Z" fill="#F6874E"/>
<path d="M467.982 397.196C467.982 397.196 464.65 395.039 458.329 395.861C452.086 396.673 449.77 398.066 454.253 399.338C457.13 400.151 465.772 400.213 467.982 397.196Z" fill="#33A86D"/>
<path d="M443.879 384.569C443.879 384.569 440.547 382.412 434.226 383.234C427.982 384.046 425.666 385.439 430.149 386.711C433.026 387.523 441.664 387.586 443.879 384.569Z" fill="#288453"/>
<path d="M458.227 391.455C458.227 391.455 454.895 389.298 448.574 390.121C442.331 390.933 440.015 392.326 444.498 393.598C447.375 394.41 456.012 394.478 458.227 391.455Z" fill="#33A86D"/>
<path d="M444.45 394.328C444.45 394.328 441.118 392.171 434.797 392.993C428.554 393.806 426.237 395.198 430.72 396.47C433.598 397.283 442.24 397.346 444.45 394.328Z" fill="#33A86D"/>
<path d="M396.767 390.202C396.767 390.202 393.227 387.6 386.185 388.084C379.231 388.563 376.581 389.955 381.451 391.653C384.575 392.746 394.121 393.394 396.767 390.202Z" fill="#288453"/>
<path d="M422.978 391.779C422.978 391.779 419.438 389.177 412.397 389.661C405.443 390.139 402.793 391.532 407.663 393.23C410.792 394.323 420.333 394.971 422.978 391.779Z" fill="#288453"/>
<path d="M408.229 386.092C408.229 386.092 405.453 384.051 399.94 384.433C394.489 384.81 392.415 385.899 396.23 387.228C398.677 388.084 406.154 388.592 408.229 386.092Z" fill="#288453"/>
<path d="M408.798 392.34C408.798 392.34 405.258 389.739 398.217 390.222C391.263 390.701 388.612 392.094 393.482 393.791C396.611 394.884 406.158 395.532 408.798 392.34Z" fill="#288453"/>
<path d="M442.671 264.339C442.671 264.339 441.907 258.217 439.102 260.002C436.297 261.786 436.297 263.571 437.573 265.868C438.845 268.17 441.65 266.637 442.671 264.339Z" fill="#288453"/>
<path d="M439.609 255.155C439.609 255.155 438.845 249.033 436.04 250.817C433.235 252.602 433.235 254.386 434.512 256.684C435.788 258.981 438.589 257.453 439.609 255.155Z" fill="#33A86D"/>
<path d="M441.142 247.123C441.142 247.123 440.378 241 437.573 242.785C434.768 244.569 434.768 246.354 436.044 248.651C437.311 250.948 440.121 249.42 441.142 247.123Z" fill="#33A86D"/>
<path d="M450.321 210.77C450.321 210.77 449.557 204.648 446.752 206.432C443.947 208.217 443.947 210.001 445.224 212.299C446.496 214.601 449.301 213.068 450.321 210.77Z" fill="#33A86D"/>
<path d="M453.382 203.884C453.382 203.884 452.618 197.761 449.813 199.546C447.008 201.33 447.008 203.115 448.284 205.412C449.561 207.709 452.361 206.181 453.382 203.884Z" fill="#288453"/>
<path d="M444.454 273.015C444.454 273.015 443.826 266.893 441.533 268.677C439.236 270.462 439.236 272.246 440.281 274.543C441.325 276.84 443.623 275.312 444.454 273.015Z" fill="#288453"/>
<path d="M440.886 271.738C440.886 271.738 440.258 265.616 437.965 267.4C435.668 269.185 435.668 270.969 436.713 273.266C437.752 275.564 440.05 274.035 440.886 271.738Z" fill="#288453"/>
<path d="M446.292 261.67C446.292 261.67 445.784 256.708 443.922 258.154C442.06 259.6 442.06 261.046 442.906 262.908C443.753 264.77 445.615 263.532 446.292 261.67Z" fill="#288453"/>
<path d="M438.845 282.039C438.845 282.039 438.42 277.895 436.867 279.104C435.315 280.313 435.315 281.522 436.021 283.074C436.727 284.626 438.28 283.591 438.845 282.039Z" fill="#288453"/>
<path d="M448.411 199.294C448.411 199.294 447.647 193.172 444.842 194.956C442.037 196.741 442.037 198.525 443.314 200.823C444.585 203.12 447.39 201.591 448.411 199.294Z" fill="#288453"/>
<path d="M413.78 293.486C413.78 293.486 406.129 290.619 403.257 294.444C402.309 295.711 401.883 296.954 401.738 298.057C401.443 300.281 402.304 301.906 402.304 301.906C402.304 301.906 395.224 294.637 390.252 298.463C385.276 302.288 391.974 306.882 391.974 306.882C391.974 306.882 387.191 304.967 383.172 306.689C379.154 308.411 381.833 313.575 381.833 313.575C381.833 313.575 384.701 317.212 388.719 314.722C392.738 312.236 392.545 311.467 392.545 311.467C392.545 311.467 395.224 312.424 399.431 309.363C403.639 306.302 403.832 304.962 403.832 304.962C403.832 304.962 407.469 308.024 409.761 306.109C412.058 304.194 413.016 301.901 413.016 301.901C413.016 301.901 413.78 305.92 417.223 305.92C420.671 305.92 425.643 288.51 413.78 293.486Z" fill="#288453"/>
<path d="M456.254 305.881C456.254 305.881 455.49 302.24 452.685 303.304C449.88 304.368 449.88 305.427 451.157 306.795C452.434 308.164 455.234 307.245 456.254 305.881Z" fill="#288453"/>
<path d="M461.609 310.471C461.609 310.471 460.844 306.829 458.04 307.893C455.235 308.957 455.235 310.016 456.511 311.385C457.788 312.754 460.593 311.84 461.609 310.471Z" fill="#288453"/>
<path d="M454.533 313.914C454.533 313.914 453.769 310.272 450.964 311.336C448.159 312.4 448.159 313.459 449.436 314.828C450.708 316.192 453.513 315.283 454.533 313.914Z" fill="#288453"/>
<path d="M467.731 319.466C467.731 319.466 466.967 315.825 464.162 316.889C461.357 317.953 461.357 319.012 462.634 320.38C463.906 321.739 466.71 320.83 467.731 319.466Z" fill="#288453"/>
<path d="M444.968 305.35C444.968 305.35 450.326 302.671 448.029 298.845C445.732 295.02 439.227 295.209 438.081 298.652C438.081 298.652 436.166 286.6 431.77 287.364C427.369 288.129 425.841 291.765 427.369 297.506C427.369 297.506 424.69 293.869 420.865 298.081C417.04 302.289 422.011 305.35 422.011 305.35C422.011 305.35 417.035 301.524 415.889 307.265C414.742 313.005 419.714 317.024 423.733 315.109C427.751 313.194 428.898 311.854 428.898 311.854C428.898 311.854 443.053 318.165 444.968 305.35Z" fill="#288453"/>
<path d="M437.061 305.146C437.061 305.146 435.934 300.441 431.794 301.814C427.655 303.188 427.655 304.561 429.536 306.321C431.412 308.086 435.552 306.911 437.061 305.146Z" fill="#33A86D"/>
<path d="M433.487 301.321C433.487 301.321 432.53 296.615 429.028 297.989C425.522 299.362 425.522 300.735 427.118 302.496C428.709 304.261 432.215 303.086 433.487 301.321Z" fill="#33A86D"/>
<path d="M426.857 301.828C426.857 301.828 425.899 297.123 422.398 298.496C418.892 299.87 418.892 301.243 420.487 303.004C422.074 304.774 425.58 303.594 426.857 301.828Z" fill="#33A86D"/>
<path d="M414.505 301.335C414.505 301.335 417.315 299.41 415.767 295.909C414.283 292.553 411.845 293.796 410.868 295.962C409.892 298.134 412.377 300.876 414.505 301.335Z" fill="#33A86D"/>
<path d="M400.965 306.108C400.965 306.108 400.849 301.228 395.887 301.393C390.925 301.557 390.587 302.887 392.26 305.131C393.933 307.37 398.851 307.394 400.965 306.108Z" fill="#33A86D"/>
<path d="M323.669 176.971C323.669 176.971 321.691 168.933 321.087 162.719C320.506 156.771 323.974 159.189 327.625 163.323C331.45 167.661 335.15 175.438 336.17 177.227C337.191 179.012 327.499 183.093 323.669 176.971Z" fill="#1D2538"/>
<path d="M256.071 266.892C254.91 265.195 247.651 257.07 246.123 252.863C244.595 248.655 241.403 238.577 245.997 233.219C245.997 233.219 239.493 233.219 236.432 246.992C233.37 260.765 246.766 273.711 247.912 274.794C253.01 279.645 259.388 271.738 256.071 266.892Z" fill="#1D2538"/>
<path d="M381.218 300.145C379.791 297.268 374.467 295.923 374.467 295.923C374.056 295.324 372.803 294.342 372.658 293.636C370.685 284.06 368.833 275.394 368.16 273.131C366.763 268.43 365.578 260.891 362.526 250.053C359.475 239.216 347.544 247.485 349.866 258.289C351.52 265.993 363.6 297.345 364.001 297.829L369.302 303.463C370.666 305.116 372.977 306.205 375.371 305.141C377.765 304.077 382.615 302.96 381.218 300.145Z" fill="#1D2538"/>
<path d="M288.661 287.528C291.456 284.254 306.259 281.473 307.913 288.181C309.325 293.892 288.448 330.124 288.448 330.124L288.574 335.265C288.574 335.265 292.036 338.195 291.533 341.039C291.412 341.706 287.853 342.62 284.956 343.259C282.838 343.723 281.088 343.06 280.754 341.634L280.338 339.835L277.688 333.577L285.208 308.478C285.203 308.487 284.84 292.001 288.661 287.528Z" fill="#1D2538"/>
<path d="M332.089 250.058C325.71 250.953 306.835 243.553 303.773 232.842C300.712 222.13 296.887 205.291 296.887 198.404C296.887 198.404 291.785 188.2 289.744 182.334C287.703 176.468 288.98 175.447 292.293 176.975C295.61 178.504 303.005 185.903 303.005 185.903C303.005 185.903 312.696 173.914 325.197 172.637C337.698 171.361 344.585 176.463 348.667 181.821L349.208 182.077C349.208 182.077 360.911 181.821 367.285 181.057C373.664 180.293 376.725 182.077 377.489 188.964C378.254 195.851 378.128 197.635 376.087 201.465C374.046 205.291 362.822 217.216 356.191 222.318C356.191 222.318 360.399 237.049 359.891 241.895C359.383 246.74 338.467 249.163 332.089 250.058Z" fill="#273150"/>
<path d="M321.502 234.878C321.502 234.878 306.835 243.549 303.773 232.837C300.712 222.125 296.887 205.286 296.887 198.399C296.887 198.399 291.785 188.195 289.744 182.329C287.703 176.463 288.98 175.443 292.293 176.971C295.61 178.499 303.005 185.898 303.005 185.898C303.005 185.898 312.696 173.91 325.197 172.633C325.197 172.633 315.438 185.197 313.334 192.084C311.231 198.97 320.095 220.079 320.095 220.079C320.095 220.079 333.52 224.166 333.36 225.689C332.853 230.54 321.502 234.878 321.502 234.878Z" fill="#1D2538"/>
<path d="M326.251 175.728C326.251 175.728 323.901 168.111 322.426 163.004C320.767 157.264 324.863 158.802 328.514 162.941C332.34 167.279 335.754 172.028 336.774 173.813C337.795 175.602 328.36 180.322 326.251 175.728Z" fill="#273150"/>
<path d="M343.724 183.569C344.715 182.448 344.155 180.336 342.474 178.85C340.793 177.364 338.627 177.068 337.636 178.189C336.646 179.31 337.206 181.423 338.887 182.908C340.568 184.394 342.734 184.69 343.724 183.569Z" fill="#121721"/>
<path d="M355.133 228.029C355.133 228.029 368.151 235.042 370.753 238.867L362.653 241.735C362.653 241.735 356.288 235.994 355.133 228.029Z" fill="#992C29"/>
<path d="M328.282 193.384C329.476 192.033 328.8 189.486 326.773 187.694C324.746 185.903 322.134 185.545 320.94 186.896C319.747 188.247 320.422 190.795 322.45 192.586C324.477 194.378 327.088 194.735 328.282 193.384Z" fill="#121721"/>
<path d="M335.15 224.035C335.15 224.035 313.687 220.224 302.627 233.219C292.737 244.84 287.461 248.52 273.548 255.411C264.804 259.74 253.996 259.309 247.912 271.1C243.83 279.007 245.871 290.487 249.953 300.435C258.624 310.127 326.266 290.908 331.324 288.703C346.248 282.198 354.948 268.827 359.639 263.067C363.847 257.902 364.05 241.169 352.516 231.028C348.309 227.328 342.617 224.649 335.15 224.035Z" fill="#273150"/>
<path d="M331.706 227.097C319.079 224.161 313.687 220.224 302.627 233.219C292.737 244.84 287.461 248.52 273.548 255.412C264.804 259.74 253.996 259.309 247.912 271.1C243.83 279.007 245.871 290.487 249.953 300.435C258.624 310.127 326.266 290.908 331.324 288.703C331.324 288.703 313.721 286.406 311.429 279.901C309.132 273.397 320.23 256.945 320.23 256.945C324.056 245.846 336.185 228.136 331.706 227.097Z" fill="#1D2538"/>
<path d="M372.027 193.903C375.875 191.084 377.292 186.474 375.191 183.606C373.09 180.738 368.267 180.699 364.419 183.518C360.571 186.337 359.154 190.947 361.255 193.815C363.356 196.683 368.179 196.722 372.027 193.903Z" fill="#121721"/>
<path d="M370.544 316.853C368.238 313.507 361.801 312.748 361.801 312.748C361.187 312.066 359.523 311.06 359.194 310.204C354.711 298.583 350.576 288.069 349.28 285.356C346.587 279.727 344.938 268.44 338.921 255.426C332.905 242.412 315.394 265.233 323.277 274.272C329.873 281.84 349.633 316.404 350.204 316.936L357.598 323.058C359.552 324.891 362.459 325.844 364.964 324.103C367.474 322.367 372.808 320.132 370.544 316.853Z" fill="#273150"/>
<path d="M249.377 293.955C253.788 287.136 267.019 291.788 269.587 293.578C272.291 295.454 267.759 311.829 267.624 314.039C267.479 316.351 247.762 335.313 243.971 340.42C239.875 345.938 244.991 351.093 242.413 353.646C241.108 354.942 228.331 354.773 228.157 349.091C227.992 343.723 231.407 334.437 231.455 334.002C231.552 333.146 247.641 311.984 247.912 310.833C248.178 309.706 248.067 295.981 249.377 293.955Z" fill="#1D2538"/>
<path d="M342.674 225.825C342.674 225.825 356.96 225.317 356.195 222.318C361.331 218.459 368.663 210.552 368.663 210.552L353.647 218.938L342.674 225.825Z" fill="#1D2538"/>
<path d="M301.733 227.096C301.733 227.096 300.267 231.56 300.838 234.621C300.838 234.621 312.991 236.788 332.978 236.788C343.69 236.788 358.996 234.239 358.996 234.239L357.468 226.172C357.468 226.172 326.479 231.942 301.733 227.096Z" fill="#992C29"/>
<path d="M354.466 228.567C354.466 228.567 363.587 221.24 368.931 220.868L375.991 232.832C375.991 232.832 359.844 231.236 354.466 228.567Z" fill="#C93F37"/>
<path d="M354.465 228.566C359.127 231.516 375.986 232.832 375.986 232.832C375.986 232.832 369.099 227.324 366.879 227.101C364.66 226.879 354.465 228.566 354.465 228.566Z" fill="#992C29"/>
<path d="M137.714 85.3571C145.751 85.9325 165.284 103.217 179.038 117.855C196.83 136.793 218.684 156.892 227.631 160.901C238.729 165.877 251.163 172.382 256.328 172.382C256.328 172.382 232.414 197.853 222.654 206.462C212.895 215.07 218.065 197.853 205.438 206.462C192.811 215.07 171.383 240.493 171.383 240.493C171.383 240.493 160.284 237.214 143.832 222.125C122.34 202.419 88.1588 115.563 92.9417 100.45C97.7294 85.3329 130.058 83.2534 137.714 85.3571Z" fill="#992C29"/>
<path d="M137.714 85.3571C145.752 85.9326 165.86 102.283 179.614 116.922C197.406 135.86 221.46 156.321 230.441 160.263C240.708 164.765 261.691 173.746 266.856 173.746L256.715 181.183C256.715 181.183 233.691 179.8 215.391 159.755C193.251 135.507 156.556 93.4429 137.714 85.3571Z" fill="#29ACE4"/>
<path d="M100.998 96.9399C100.998 96.9399 80.6145 97.2494 71.1165 93.8497C61.6185 90.4499 64.2928 54.2956 83.1873 49.5321C104.775 44.0867 130.716 55.7174 145.065 65.0655C159.413 74.4136 153.586 88.3946 132.82 94.9813C111.749 101.66 100.998 96.9399 100.998 96.9399Z" fill="#229BC6"/>
<path d="M146.202 78.3061C146.202 89.9126 108.466 90.4977 96.9609 90.4977C85.4559 90.4977 76.1272 81.0868 76.1272 69.4803C76.1272 57.8737 85.4559 48.4628 96.9609 48.4628C108.466 48.4628 146.202 66.6995 146.202 78.3061Z" fill="#992C29"/>
<path d="M215.705 207.327C215.004 206.307 203.905 192.277 200.08 188.452C196.255 184.627 224.821 204.522 224.821 204.522C224.821 204.522 221.842 207.719 219.4 208.667C217.108 209.562 216.407 208.348 215.705 207.327Z" fill="#C93F37"/>
<path d="M199.412 179.559L194.436 178.601L187.709 183.607C186.543 182.219 188.415 172.546 190.224 172.421C193.028 172.222 198.928 171.816 202.517 173.901C205.007 175.347 212.963 181.885 211.434 183.418C211.096 183.756 209.49 183.611 209.49 183.611C209.128 183.79 207.769 183.486 207.256 183.674C206.748 183.868 205.762 183.747 204.944 183.403L199.412 179.559Z" fill="#F6874E"/>
<path d="M154.538 105.112C154.538 105.112 164.104 127.314 166.14 132.107C169.931 141.029 162.126 145.493 156.773 141.029C151.419 136.566 140.712 115.819 138.705 110.915C136.693 106.007 148.962 98.6413 154.538 105.112Z" fill="#CE6D3E"/>
<path d="M157.294 111.143C157.294 111.143 164.428 127.755 166.183 132.233C168.258 137.528 162.135 140.619 159.393 137.378C156.047 133.427 153.334 106.046 157.294 111.143Z" fill="#F6874E"/>
<path d="M134.207 85.2312C137.612 83.1227 145.606 87.2865 150.272 96.0784C155.442 105.818 156.874 109.89 156.874 109.89C156.874 109.89 151.225 108.918 148.44 111.428C143.913 115.505 140.383 120.109 140.383 120.109C140.383 120.109 135.16 109.537 132.374 102.428C129.797 95.8221 129.811 87.9587 134.207 85.2312Z" fill="#C93F37"/>
<path d="M191.036 168.774C193.338 174.936 187.578 177.32 184.135 174.636C180.691 171.957 173.911 162.241 165.99 153.628C156.869 143.719 153.556 138.859 159.364 134.617C165.173 130.371 165.443 130.792 174.796 144.111C181.223 153.26 189.948 165.873 191.036 168.774Z" fill="#CE6D3E"/>
<path d="M183.758 159.393C179.42 165.684 162.489 142.283 162.489 142.283C157.102 135.348 157.673 135.333 160.289 133.641C165.584 130.961 165.676 131.343 171.929 139.985C176.857 146.795 185.122 157.41 183.758 159.393Z" fill="#F6874E"/>
<path d="M193.982 174.519L201.85 175.196C202.246 175.23 202.609 175.428 202.856 175.743L212.097 182.126C212.629 182.808 213.645 182.866 214.249 182.247C214.694 181.788 214.786 181.091 214.467 180.535L206.265 172.972C206.105 172.691 205.854 172.474 205.559 172.358L191.143 166.564C190.625 166.356 186.679 164.896 184.082 167.497C181.485 170.099 182.834 172.89 183.096 173.451L184.459 179.539C184.474 179.568 184.483 179.592 184.498 179.617L189.17 188.254C189.421 188.723 189.914 189.008 190.446 189.003L191.491 188.989C192.453 188.979 193.13 188.041 192.835 187.122L191.172 181.909C191.094 181.662 191.085 181.396 191.143 181.14L192.468 175.603C192.632 174.926 193.275 174.461 193.982 174.519Z" fill="#CE6D3E"/>
<path d="M173.81 210.224C173.81 210.224 172.378 216.734 137.361 220.646C123.07 222.242 109.103 221.168 97.9225 220.593C88.5164 220.109 71.1549 216.453 63.2383 213.576C55.3701 210.718 48.4158 204.736 66.9669 191.698C85.5519 178.635 165.173 186.117 173.81 210.224Z" fill="#EC5E4D"/>
<path d="M81.7799 199.623C81.7799 199.623 76.3974 196.775 78.119 193.332C79.8406 189.888 84.5268 189.695 84.5268 189.695L81.7799 199.623Z" fill="#C93F37"/>
<path d="M148.599 61.916C147.535 76.9416 134.318 79.2097 119.041 80.5735C109.857 81.3956 100.074 77.7783 93.7239 71.5059C89.5117 67.3469 86.8084 62.0176 86.7987 56.045C86.7697 41.0678 103.667 27.6961 118.944 26.3323C134.216 24.9686 149.74 45.7733 148.599 61.916Z" fill="#273150"/>
<path d="M119.561 30.8129C123.942 24.4378 124.464 17.189 120.729 14.6223C116.993 12.0556 110.414 15.1428 106.033 21.5179C101.653 27.893 101.131 35.1417 104.866 37.7085C108.602 40.2752 115.181 37.188 119.561 30.8129Z" fill="#273150"/>
<path d="M107.116 22.432C107.706 14.9181 105.059 8.58142 101.204 8.2786C97.3481 7.97578 93.7442 13.8215 93.1541 21.3353C92.5639 28.8492 95.2109 35.1859 99.0664 35.4887C102.922 35.7915 106.526 29.9458 107.116 22.432Z" fill="#273150"/>
<path d="M107.098 45.3299C110.103 37.0978 107.556 28.6054 101.409 26.3616C95.2617 24.1178 87.8426 28.9722 84.8377 37.2043C81.8328 45.4364 84.3801 53.9288 90.5272 56.1727C96.6743 58.4165 104.093 53.562 107.098 45.3299Z" fill="#273150"/>
<path d="M99.3314 77.9157C107.898 73.8283 111.563 63.6404 107.517 55.1604C103.471 46.6804 93.2464 43.1194 84.6796 47.2068C76.1128 51.2942 72.4479 61.4821 76.4939 69.9621C80.5399 78.4422 90.7646 82.0031 99.3314 77.9157Z" fill="#273150"/>
<path d="M140.405 55.0732C146.93 49.4986 146.87 38.7191 140.272 30.9965C133.674 23.2738 123.036 21.5325 116.511 27.107C109.987 32.6816 110.046 43.4611 116.645 51.1837C123.243 58.9064 133.881 60.6477 140.405 55.0732Z" fill="#273150"/>
<path d="M148.473 61.0224C147.607 73.2866 136.818 75.134 124.355 76.2463C116.859 76.9137 108.875 73.9637 103.696 68.8471C100.257 65.4522 98.0568 61.1046 98.0471 56.2299C98.0229 44.0092 111.811 33.099 124.278 31.9819C136.736 30.8744 149.401 47.8538 148.473 61.0224Z" fill="#48598B"/>
<path d="M118.999 32.905C122.762 27.4281 123.209 21.1992 119.997 18.9925C116.786 16.7857 111.131 19.4367 107.368 24.9136C103.605 30.3905 103.158 36.6194 106.37 38.8262C109.582 41.0329 115.236 38.3819 118.999 32.905Z" fill="#48598B"/>
<path d="M106.219 27.0214C106.621 21.8985 104.817 17.5783 102.189 17.3719C99.5608 17.1655 97.1042 21.1511 96.7018 26.2739C96.2995 31.3967 98.1037 35.7169 100.732 35.9234C103.36 36.1298 105.816 32.1442 106.219 27.0214Z" fill="#48598B"/>
<path d="M110.13 45.3429C113.31 36.6291 111.607 28.0023 106.326 26.0744C101.044 24.1466 94.1844 29.6477 91.0037 38.3615C87.8229 47.0754 89.5259 55.7022 94.8074 57.63C100.089 59.5579 106.949 54.0567 110.13 45.3429Z" fill="#48598B"/>
<path d="M103.136 74.7839C110.498 71.2716 113.647 62.5171 110.17 55.2303C106.694 47.9434 97.9074 44.8836 90.5458 48.3959C83.1842 51.9083 80.0349 60.6627 83.5116 67.9496C86.9883 75.2364 95.7744 78.2963 103.136 74.7839Z" fill="#48598B"/>
<path d="M137.413 55.1515C143.02 50.3612 142.968 41.0981 137.298 34.4619C131.628 27.8257 122.487 26.3293 116.88 31.1196C111.273 35.9099 111.325 45.173 116.995 51.8092C122.665 58.4455 131.806 59.9418 137.413 55.1515Z" fill="#48598B"/>
<path d="M90.6489 232.905C90.6247 238.917 92.2158 253.686 100.215 254.073C108.059 254.455 111.178 248.734 113.799 239.724C117.537 226.88 134.759 166.226 114.757 164.562C94.7547 162.899 92.9847 171.816 90.7456 183.461C88.5065 195.112 90.6973 221.778 90.6489 232.905Z" fill="#273150"/>
<path d="M91.6068 242.785C91.8873 244.038 97.1537 234.748 97.1537 234.748C97.1537 234.748 96.762 215.128 99.8329 212.937C110.545 204.135 120.497 208.73 120.497 208.73C124.951 188.65 127.384 165.611 114.757 164.562C94.7551 162.898 92.9851 171.816 90.746 183.461C89.4499 190.222 89.6433 202.041 90.0206 212.947C90.2962 220.834 90.1705 236.377 91.6068 242.785Z" fill="#102441"/>
<path d="M86.408 252.047C70.7489 281.435 74.8402 309.31 73.8778 344.251C73.4957 358.116 81.8235 355.828 84.1448 345.334C87.177 331.648 96.7668 303.033 107.101 264.025C110.356 254.266 96.6363 232.847 86.408 252.047Z" fill="#CE6D3E"/>
<path d="M88.4637 246.688C92.9757 237.345 101.603 235.304 108.079 238.38C112.33 240.396 113.171 242.408 109.66 255.867C107.464 264.272 105.989 268.552 105.733 269.195C105.733 269.195 95.4324 263.595 81.2724 264.025C81.2724 264.02 85.4024 253.028 88.4637 246.688Z" fill="#102441"/>
<path d="M89.3002 254.217C75.7931 279.573 78.9366 304.275 78.1048 334.418C78.0226 337.383 77.8146 339.772 78.1483 341.759C78.9124 346.286 83.7194 348.249 85.2283 341.44C87.8446 329.631 98.2373 298.201 107.155 264.547C109.96 256.132 98.126 237.654 89.3002 254.217Z" fill="#F6874E"/>
<path d="M90.2675 248.525C90.2675 248.525 96.3899 232.837 108.528 236.092C112.581 237.175 113.413 242.011 109.844 254.841C107.373 263.739 106.207 268.324 105.975 269.011C105.975 269.011 97.1685 263.207 84.9285 263.909L90.2675 248.525Z" fill="#273150"/>
<path d="M109.781 246.485C109.781 246.485 102.575 247.761 100.022 244.957C100.022 244.957 101.168 249.676 103.721 250.566C106.27 251.461 108.63 248.908 108.63 248.908L106.333 248.651L109.781 246.485Z" fill="#102441"/>
<path d="M76.3292 348.462C77.4318 358.478 78.5634 371.308 99.8759 368.87C110.684 367.632 97.3128 355.078 93.4246 350.406C93.4246 350.406 86.6348 342.731 86.0593 341.508C84.594 338.384 79.4533 337.61 76.6725 343.96C75.2314 347.239 76.1696 347.007 76.3292 348.462Z" fill="#F6874E"/>
<path d="M71.8991 354.517C71.5654 356.277 72.4504 356.993 74.9264 358.57C80.13 361.887 88.5206 364.779 96.9643 363.889C107.57 362.777 86.059 358.724 84.144 356.239C82.2289 353.753 81.4599 348.781 79.9366 345.43C78.1521 341.508 77.6395 338.64 75.9178 341.701C74.1962 344.758 72.2763 352.529 71.8991 354.517Z" fill="#CE6D3E"/>
<path d="M73.8774 344.439C73.8774 344.439 73.5437 344.71 75.4733 348.395C82.7419 362.299 86.427 362.419 95.4317 362.361C101.366 362.323 92.1142 350.755 92.1142 350.755L86.4366 342.127C86.4366 342.127 91.2533 347.882 96.6697 354.039C100.002 357.82 103.987 361.022 105.404 363.343C107.865 366.762 110.578 372.256 107.672 372.885C97.9126 374.988 84.9761 372.478 82.5774 371.26C80.1788 370.041 79.8983 366.661 76.8709 363.13C75.7248 361.791 72.7264 360.451 72.533 359.242C72.3299 356.123 71.3675 353.884 72.0736 350.155C72.8231 346.204 73.8774 344.439 73.8774 344.439Z" fill="#992C29"/>
<path d="M147.447 329.578C145.692 336.324 147.331 337.572 149.188 339.709C162.947 355.571 166.197 349.439 168.397 350.484C175.734 353.971 175.956 345.183 172.643 343.346C169.456 341.576 164.277 334.409 160.253 330.748C158.372 329.036 158.232 327.967 155.664 327.624C152.994 327.271 148.192 326.729 147.447 329.578Z" fill="#F6874E"/>
<path d="M147.491 337.963C155.214 357.96 171.758 352.795 175.018 351.277C176.362 350.648 167.686 340.865 167.686 340.865C167.686 340.865 157.893 338.243 152.603 335.888C147.061 333.422 145.194 332.024 147.491 337.963Z" fill="#CE6D3E"/>
<path d="M146.921 329.848C147.477 328.818 147.583 329.287 147.762 330.037C149.145 335.84 149.619 338.162 154.262 343.148C155.843 344.845 155.805 348.636 169.031 349.299C174.641 349.58 167.687 340.87 167.687 340.87L159.828 330.279L162.164 332.566C162.164 332.566 171.391 342.848 175.009 345.222C178.553 347.548 182.654 358.662 179.269 358.981C170.627 359.793 162.386 358.879 155.505 357.216C152.298 356.258 150.383 349.526 149.15 349.091C149.15 349.091 145.779 346.663 145.746 344.86C145.717 343.119 146.142 331.29 146.921 329.848Z" fill="#992C29"/>
<path d="M161.054 243.68C161.054 243.68 166.412 204.164 158.95 184.08C154.486 172.058 146.091 169.833 136.999 170.123C127.907 170.414 126.05 177.566 127.399 185.222C128.749 192.877 135.084 234.757 138.285 244.347C141.724 254.648 148.514 253.908 152.89 253.889C157.983 253.86 159.961 251.195 161.054 243.68Z" fill="#273150"/>
<path d="M145.363 213.324C148.807 211.027 162.739 209.886 162.739 209.886C162.599 200.76 161.632 191.315 158.943 184.08C154.479 172.058 146.084 169.833 136.992 170.124C127.9 170.414 126.043 177.566 127.393 185.222C127.978 188.544 129.501 198.318 131.305 209.102C131.305 209.102 135.599 234.375 137.321 240.179C137.65 240.009 138.724 233.993 140.382 224.428C141.644 221.081 141.92 215.621 145.363 213.324Z" fill="#102441"/>
<path d="M138.719 252.53C131.639 276.169 138.545 287.301 147.666 330.183C148.507 334.139 156.545 336.943 158.615 330.985C158.958 329.999 158.808 328.118 158.808 325.966C158.808 310.065 163.054 270.733 160.447 255.504C158.431 243.758 142.206 240.88 138.719 252.53Z" fill="#F6874E"/>
<path d="M135.726 267.609C135.581 271.604 135.769 277.417 137.36 285.512C139.74 297.632 143.889 312.846 144.406 315.486C145.267 319.887 147.705 330.696 148.377 333.423C148.798 335.13 153.972 336.915 153.972 336.915C153.972 336.915 150.708 327.673 149.953 325.308C148.396 320.414 140.765 285.725 139.019 268.306C138.821 266.294 135.871 263.571 135.726 267.609Z" fill="#CE6D3E"/>
<path d="M136.968 248.047C139.662 239.855 143.332 238.07 149.803 237.915C155.253 237.785 159.833 237.475 160.36 250.31C160.703 258.681 161.027 264.775 161.429 268.232C161.429 268.232 154.368 265.35 135.624 268.329C135.628 268.329 135.184 253.478 136.968 248.047Z" fill="#273150"/>
<path d="M136.969 248.047C137.53 246.437 137.651 251.955 137.651 251.955L139.034 267.865C139.034 267.865 138.274 267.909 135.629 268.33C135.629 268.33 135.107 258.735 136.969 248.047Z" fill="#102441"/>
<path d="M158.653 248.322C158.653 248.322 152.1 248.076 149.513 246.639C146.926 245.203 154.315 255.272 158.653 248.322Z" fill="#102441"/>
<path d="M137.332 137.968C129.163 146.538 105.061 137.663 104.04 129.524C103.605 126.062 102.352 118.019 98.6818 103.337C96.3847 94.1535 96.0026 91.1455 97.023 89.8542C99.7022 86.4642 109.785 85.26 120.11 83.6979C137.138 81.1155 138.347 85.1923 143.962 93.1041C150.8 102.752 153.402 121.11 137.332 137.968Z" fill="#F6BE4A"/>
<path d="M109.587 103.888C101.419 112.458 105.061 137.663 104.04 129.524C103.605 126.062 102.352 118.019 98.6818 103.337C96.3847 94.1534 96.0026 91.1454 97.023 89.8542C99.7022 86.4641 109.785 85.2599 120.11 83.6979C137.138 81.1154 138.333 85.139 144.266 93.4135C151.153 103.023 125.657 87.0299 109.587 103.888Z" fill="#D09435"/>
<path d="M104.805 121.492C103.528 126.275 103.765 138.486 104.166 131.183C104.36 127.701 98.6821 102.573 98.6821 102.573L125.082 93.3025L107.735 108.991C107.74 108.991 106.081 116.709 104.805 121.492Z" fill="#D09435"/>
<path d="M101.361 133.736C101.361 133.736 67.4797 181.198 65.0762 187.441C62.6678 193.704 54.8286 201.741 55.1671 205.03C57.4255 198.777 78.0513 200.817 81.7702 199.623C81.7702 199.623 74.2212 194.647 80.5951 192.354C86.969 190.062 101.516 189.811 110.066 189.956C135.591 190.401 165.144 195.304 173.829 210.577C173.829 210.577 159.287 139.114 139.126 123.571C119.375 108.338 101.361 133.736 101.361 133.736Z" fill="#F6BE4A"/>
<path d="M141.921 97.0987C145.268 98.9171 148.266 102.709 148.266 102.709C148.266 102.709 147.661 98.4335 144.697 94.2261C142.463 91.0537 134.27 95.3723 134.27 95.3723C134.27 95.3723 139.798 95.9478 141.921 97.0987Z" fill="#D09435"/>
<path d="M137.878 130.526C132.834 134.699 108.088 133.8 111.822 123.175C113.606 118.087 124.889 111.844 132.994 110.911C146.356 109.373 148.808 121.492 137.878 130.526Z" fill="#FEED7F"/>
<path d="M161.053 188.07L113.606 184.244C101.772 184.244 86.0551 162.816 89.8852 156.693C93.7106 150.571 109.529 130.932 109.529 130.932C111.188 122.769 114.022 116.646 125.856 116.646C125.856 116.646 139.377 117.41 144.987 132.209C144.987 132.209 159.529 154.208 161.822 171.047C163.504 183.393 161.053 188.07 161.053 188.07Z" fill="#FEED7F"/>
<path d="M104.205 182.557C99.799 182.866 95.9253 184.825 91.8775 172.246C91.8824 172.246 96.3412 178.678 104.205 182.557Z" fill="#FEED7F"/>
<path d="M90.3925 152.104C90.3925 152.104 91.6692 161.796 96.0023 168.175C96.0023 168.175 92.177 157.206 92.4333 150.571C92.6896 143.936 90.3925 152.104 90.3925 152.104Z" fill="#F6BE4A"/>
<path d="M158.431 188.878C158.601 186.373 159.505 178.437 157.779 174.452C157.779 174.452 161.473 180.845 161.294 187.427C161.12 194.009 158.262 191.383 158.431 188.878Z" fill="#F6BE4A"/>
<path d="M103.194 138.457C103.194 138.457 108.62 129.892 119.119 126.323C119.119 126.323 106.584 127.876 102.125 133.993C97.666 140.111 103.194 138.457 103.194 138.457Z" fill="#F6BE4A"/>
<path d="M124.598 92.2823L123.486 92.4516C120.666 92.882 118.031 90.9475 117.6 88.1281L115.956 77.3873C115.526 74.5678 117.46 71.9322 120.279 71.5018L121.392 71.3325C124.211 70.9021 126.847 72.8365 127.277 75.6559L128.921 86.3968C129.357 89.2162 127.417 91.8519 124.598 92.2823Z" fill="#F6874E"/>
<path d="M123.026 79.6601L121.169 79.9455C118.553 80.3468 116.111 78.5527 115.709 75.9364L113.954 64.4507C113.552 61.8344 115.347 59.3922 117.963 58.9908L119.82 58.7055C122.436 58.3041 124.878 60.0983 125.28 62.7146L127.035 74.2002C127.437 76.8165 125.643 79.2636 123.026 79.6601Z" fill="#CE6D3E"/>
<path d="M84.7152 108.483C81.4605 116.647 76.2086 131.232 74.7384 133.708C73.2683 136.184 73.2199 139.966 77.1371 141.9C81.0495 143.84 84.0043 142.863 85.7695 140.759C87.5346 138.655 97.5984 121.618 99.7021 114.794C101.356 109.436 100.239 103.555 97.3421 102.167C94.4453 100.78 87.9699 100.32 84.7152 108.483Z" fill="#F6874E"/>
<path d="M84.7149 108.483C81.4602 116.647 76.2083 131.232 74.7381 133.708C74.2883 134.467 73.9692 135.449 73.916 135.986C73.7999 137.19 74.6752 137.296 75.8987 135.841C76.8659 134.69 83.975 120.254 86.4365 112.289C88.4628 105.727 86.185 104.793 84.7149 108.483Z" fill="#CE6D3E"/>
<path d="M102.382 89.0957C98.1355 87.6256 92.3709 89.9227 88.3521 99.6818C86.2436 104.808 83.313 111.67 83.313 111.67C83.313 111.67 89.948 112.715 98.4885 118.049C98.4885 118.049 101.202 112.691 103.146 107.719C107.227 97.259 105.699 90.2419 102.382 89.0957Z" fill="#EC5E4D"/>
<path d="M102.382 89.0957C98.1355 87.6256 92.3709 89.9227 88.3521 99.6818C86.2436 104.808 83.313 111.67 83.313 111.67L86.3113 112.309L92.753 106.859L104.422 103.638C107.014 95.0054 105.336 90.121 102.382 89.0957Z" fill="#C93F37"/>
<path d="M50.3689 163.706C50.3689 163.706 46.2486 167.962 47.593 170.37C48.86 172.629 53.3963 174.471 56.6316 171.845C59.8669 169.219 70.2644 162.395 84.0858 143.811C89.981 135.889 78.5292 130.371 73.9543 135.376C69.3794 140.382 50.3689 163.706 50.3689 163.706Z" fill="#F6874E"/>
<path d="M54.4261 159.248L64.6302 153.251L76.9573 133.655C76.9573 133.655 75.2695 133.907 73.9541 135.382C69.442 140.44 54.4261 159.248 54.4261 159.248Z" fill="#CE6D3E"/>
<path d="M40.7782 178.064C40.7782 178.064 36.3194 185.749 35.1297 187.63C34.09 189.27 32.5424 187.862 33.0212 186.75C33.5 185.638 36.7788 177.716 40.7782 178.064Z" fill="#CE6D3E"/>
<path d="M37.9736 178.064C37.9736 178.064 33.5148 185.749 32.3251 187.63C31.2854 189.27 29.7378 187.862 30.2166 186.75C30.6953 185.638 33.9694 177.716 37.9736 178.064Z" fill="#CE6D3E"/>
<path d="M56.936 169.838C56.5201 172.522 54.8468 176.672 50.7797 181.116C47.6411 184.545 46.9302 186.276 45.7841 188.762C45.4939 189.386 44.7298 190.164 43.9657 190.865C41.5284 193.1 40.537 192.751 40.2855 191.267C39.9953 189.526 40.8561 188.21 42.3843 185.894C43.1678 184.704 43.3128 183.278 43.5788 182.499C43.9222 181.512 44.0576 179.152 41.1995 178.659C38.264 178.151 36.6633 174.302 37.645 172.885C39.3666 170.399 50.6105 163.972 51.9065 164.344C54.7791 164.881 57.3519 167.154 56.936 169.838Z" fill="#F6874E"/>
<path d="M42.1616 175.052C43.1337 175.328 44.4104 177.233 43.0998 178.403C41.7893 179.574 34.9511 183.065 33.0602 185.353C30.8114 188.075 29.5734 190.455 28.1758 191.18C26.3913 192.104 24.1038 191.983 25.9512 189.144C28.5675 185.125 30.5067 180.773 34.9946 178.548C39.4873 176.324 41.1896 174.776 42.1616 175.052Z" fill="#F6874E"/>
<path d="M41.9247 178.418C44.1058 176.169 41.6878 170.641 40.087 171.096C38.4863 171.55 31.179 177.528 29.4816 178.306C27.7841 179.085 23.9395 184.714 23.0931 186.716C22.242 188.718 22.1695 189.956 24.5101 189.362C26.8508 188.767 29.588 182.117 32.7991 180.439C36.0102 178.761 39.7437 180.666 41.9247 178.418Z" fill="#F6874E"/>
<path d="M98.0426 106.95C98.0426 106.95 90.9094 108.377 88.3608 109.929C85.8122 111.482 86.4361 112.289 86.4361 112.289L98.0426 106.95Z" fill="#C93F37"/>
<path d="M132.162 91.2611C118.098 100.827 86.1949 104.144 86.2965 103.844C87.3169 100.774 94.2179 85.5207 101.361 84.2439C106.153 84.2294 124.927 84.4084 132.162 91.2611Z" fill="#229BC6"/>
<path d="M137.075 83.4848C132.486 82.4644 123.041 90.0328 122.528 92.0736C122.016 94.1144 137.902 90.9468 166.793 107.975C176.716 113.821 144.47 85.2693 137.075 83.4848Z" fill="#29ACE4"/>
<path d="M126.426 92.3975C127.157 92.3975 127.751 91.8043 127.751 91.0725C127.751 90.3406 127.157 89.7474 126.426 89.7474C125.694 89.7474 125.1 90.3406 125.1 91.0725C125.1 91.8043 125.694 92.3975 126.426 92.3975Z" fill="#273150"/>
<path d="M138.463 22.1641C139.914 22.6526 139.745 29.8631 136.137 29.3892C132.742 28.9443 129.009 27.9045 130.15 25.8105C131.287 23.7213 137.013 21.6757 138.463 22.1641Z" fill="#C93F37"/>
<path d="M138.855 24.5095C138.855 24.5095 138.27 28.8716 137.027 29.0505C135.779 29.2246 136.867 27.179 137.153 24.3306C137.438 21.4821 139.053 22.6766 138.855 24.5095Z" fill="#F7BC4B"/>
<path d="M129.545 27.5904C129.545 27.5904 135.9 33.0213 141.94 35.0766C146.505 36.629 150.007 36.6967 150.007 36.6967L148.943 35.2604L150.892 33.6403C150.892 33.6403 142.743 33.5678 131.107 26.5652L129.545 27.5904Z" fill="#C93F37"/>
<path d="M132.664 29.568C132.664 29.568 137.413 35.9661 142.766 39.0176C146.814 41.3244 150.219 41.9966 150.219 41.9966L149.561 40.4152L151.907 39.1772C151.907 39.1772 143.951 37.6925 134.468 28.8474L132.664 29.568Z" fill="#C93F37"/>
<path d="M100.748 58.7593C103.691 56.7381 104.213 52.3829 101.912 49.0317C99.6111 45.6804 95.3594 44.6022 92.4155 46.6234C89.4716 48.6445 88.9503 52.9997 91.2511 56.351C93.5519 59.7022 97.8036 60.7805 100.748 58.7593Z" fill="#CE6D3E"/>
<path d="M121.392 28.7658C123.007 31.6094 117.547 35.0237 111.725 38.3316C105.907 41.6394 99.8764 42.0166 98.2611 39.1682C96.6459 36.3246 100.05 31.3338 105.868 28.0259C111.691 24.7229 119.777 25.9222 121.392 28.7658Z" fill="#273150"/>
<path d="M95.5189 48.6413C95.7317 31.3814 109.771 26.2504 113.258 25.583C130.648 22.2461 138.473 32.5517 141.795 50.7933C144.223 64.1215 136.335 67.8646 128.443 70.8775C118.945 74.5045 95.2578 70.2004 95.5189 48.6413Z" fill="#CE6D3E"/>
<path d="M101.255 54.2078C102.188 41.136 114.752 36.6384 117.847 35.9807C117.847 35.9807 134.74 40.0865 137.994 42.6448C141.249 45.2031 141.849 53.8016 141.849 53.8016C143.406 63.7784 136.311 66.9557 129.236 69.5865C120.734 72.7444 100.089 70.5295 101.255 54.2078Z" fill="#F6874E"/>
<path d="M106.555 31.923C115.695 25.0849 130.29 27.8462 130.29 27.8462C130.29 27.8462 116.459 16.8491 103.866 28.0155C92.5691 38.031 95.6883 46.9051 97.2794 52.2054C97.2794 52.2054 95.7512 40.0089 106.555 31.923Z" fill="#F6BE4A"/>
<path d="M115.429 47.336C116.433 47.1559 116.975 45.4904 116.638 43.616C116.302 41.7415 115.216 40.368 114.212 40.5481C113.207 40.7281 112.666 42.3936 113.002 44.2681C113.338 46.1425 114.424 47.5161 115.429 47.336Z" fill="#273252"/>
<path d="M132.843 44.8975C133.682 44.7215 134.071 43.1929 133.713 41.4834C133.354 39.7738 132.383 38.5307 131.544 38.7067C130.705 38.8827 130.315 40.4112 130.674 42.1208C131.033 43.8303 132.004 45.0735 132.843 44.8975Z" fill="#273252"/>
<path d="M114.07 34.1874C114.07 34.1874 111.618 34.6371 111.067 36.8714" stroke="#273252" stroke-miterlimit="10" stroke-linecap="round" stroke-linejoin="round"/>
<path d="M132.529 33.5731C132.529 33.5731 130.928 32.1997 129.27 32.4318" stroke="#273252" stroke-miterlimit="10" stroke-linecap="round" stroke-linejoin="round"/>
</svg>
