<svg width="100" height="100" viewBox="0 0 100 100" fill="none" xmlns="http://www.w3.org/2000/svg">
<path d="M37.0454 29.3144V80.3596C37.0454 81.0828 36.8646 81.7034 36.4981 82.2067C36.1365 82.7149 35.6039 82.969 34.9051 82.969C34.4116 82.969 33.9327 82.8517 33.4636 82.6221L13.1745 72.4824C12.5637 72.1941 12.0457 71.7055 11.6255 71.0262C11.2101 70.3421 11 69.6678 11 69.0032V19.3947C11 18.8132 11.1466 18.3196 11.4349 17.914C11.7281 17.5085 12.1483 17.3032 12.7005 17.3032C13.1061 17.3032 13.7463 17.5231 14.621 17.958L36.9184 29.0994C37.0015 29.1825 37.0454 29.2558 37.0454 29.3144V29.3144Z" fill="#FF6100"/>
<path d="M39.8405 33.7124L63.1396 71.3928L39.8405 59.8214V33.7124ZM89.1851 34.4943V80.3596C89.1851 81.0828 88.9798 81.6741 88.5743 82.1237C88.1687 82.5733 87.6165 82.798 86.9177 82.798C86.2189 82.798 85.5348 82.6075 84.8653 82.2312L65.622 72.6584L89.1851 34.4943Z" fill="#F5C9B0"/>
<path d="M89.0535 29.2702C89.0535 29.3581 85.3251 35.4419 77.8633 47.5264C70.4015 59.6109 66.0329 66.6818 64.7526 68.7391L47.7375 41.1495L61.8744 18.2168C62.368 17.4056 63.1254 17 64.1418 17C64.5474 17 64.9285 17.088 65.2755 17.259L88.8776 29.0063C88.9949 29.0698 89.0535 29.1529 89.0535 29.2702V29.2702Z" fill="#FF6100"/>
</svg>
