<svg width="45" height="45" viewBox="0 0 45 45" fill="none" xmlns="http://www.w3.org/2000/svg">
<path fill-rule="evenodd" clip-rule="evenodd" d="M30 22C34.4183 22 38 18.4183 38 14C38 9.58172 34.4183 6 30 6C25.5817 6 22 9.58172 22 14C22 18.4183 25.5817 22 30 22ZM21.296 27.3281C20.752 27.7601 20.4 28.4481 20.4 29.2001V38.0001H31.6C33.36 38.0001 34.8 36.5601 34.8 34.8001V25.2321C33.296 24.7041 31.68 24.4001 30 24.4001C26.752 24.4001 23.712 25.5201 21.296 27.3281ZM20.784 9.20006C20.032 10.6401 19.6 12.2721 19.6 14.0001C19.6 16.8801 20.768 19.4721 22.656 21.3441L6.944 37.0561C6.368 36.4801 6 35.6801 6 34.8001V12.4001C6 10.6401 7.44 9.20006 9.2 9.20006H20.784Z" fill="#F5C9B0"/>
</svg>
