<svg width="45" height="45" viewBox="0 0 45 45" fill="none" xmlns="http://www.w3.org/2000/svg">
<path fill-rule="evenodd" clip-rule="evenodd" d="M7.08333 9H37.9167C39.6125 9 41 10.3875 41 12.0833L40.9846 33.6667C40.9846 35.3625 39.6125 36.75 37.9167 36.75H7.08333C5.3875 36.75 4 35.3625 4 33.6667V12.0833C4 10.3875 5.3875 9 7.08333 9ZM20.9583 18.25C20.9583 15.6908 18.8925 13.625 16.3333 13.625C13.7742 13.625 11.7083 15.6908 11.7083 18.25C11.7083 20.8092 13.7742 22.875 16.3333 22.875C18.8925 22.875 20.9583 20.8092 20.9583 18.25ZM7.08333 32.125V30.5833C7.08333 27.5 13.25 25.8042 16.3333 25.8042C19.4167 25.8042 25.5833 27.5 25.5833 30.5833V32.125H7.08333ZM34.0471 25.9583H31.5188C31.1796 24.9871 30.9792 23.9542 30.9792 22.875C30.9792 21.7958 31.1796 20.7629 31.5188 19.7917H34.0471L36.375 16.7083L33.3071 13.6404C31.2875 15.1513 29.7921 17.2942 29.0983 19.7917C28.8208 20.7783 28.6667 21.8113 28.6667 22.875C28.6667 23.9388 28.8208 24.9717 29.0983 25.9583C29.7921 28.4404 31.2875 30.5988 33.3071 32.1096L36.375 29.0417L34.0471 25.9583Z" fill="#F5C9B0"/>
</svg>
