<svg width="45" height="45" viewBox="0 0 45 45" fill="none" xmlns="http://www.w3.org/2000/svg">
<path d="M35.0714 21.7143H32.7143V15.4286C32.7143 13.7 31.3 12.2857 29.5714 12.2857H23.2857V9.92857C23.2857 7.76 21.5257 6 19.3571 6C17.1886 6 15.4286 7.76 15.4286 9.92857V12.2857H9.14286C7.41429 12.2857 6.01571 13.7 6.01571 15.4286V21.4H8.35714C10.6986 21.4 12.6 23.3014 12.6 25.6429C12.6 27.9843 10.6986 29.8857 8.35714 29.8857H6V35.8571C6 37.5857 7.41429 39 9.14286 39H15.1143V36.6429C15.1143 34.3014 17.0157 32.4 19.3571 32.4C21.6986 32.4 23.6 34.3014 23.6 36.6429V39H29.5714C31.3 39 32.7143 37.5857 32.7143 35.8571V29.5714H35.0714C37.24 29.5714 39 27.8114 39 25.6429C39 23.4743 37.24 21.7143 35.0714 21.7143Z" fill="#F5C9B0"/>
</svg>
