<svg width="274" height="245" viewBox="0 0 274 245" fill="none" xmlns="http://www.w3.org/2000/svg">
<path d="M243.916 56.1873C243.916 56.1873 249.599 14.7395 216.839 4.71107C184.08 -5.31739 163.024 3.37414 155.67 6.04799C148.315 8.72185 106.197 38.8072 134.276 69.8916C134.276 69.8916 127.926 66.8827 125.249 69.5566C122.573 72.2304 122.576 72.2304 122.576 72.2304C122.576 72.2304 109.206 69.8916 98.8428 78.5801C88.4794 87.2716 94.4971 89.9455 96.8359 91.6174C99.1748 93.2893 97.5059 93.2893 97.5059 93.2893C97.5059 93.2893 77.7839 97.9701 70.7643 103.318C63.7447 108.665 57.727 115.018 83.4666 111.674C109.206 108.331 122.241 105.325 122.241 105.325C122.241 105.325 99.1778 111.007 99.1778 115.688C99.1778 120.369 153.998 109.67 164.693 107.332C175.389 104.993 224.526 88.6115 234.555 85.2707C234.555 85.2707 225.863 91.6204 232.883 91.6204C239.902 91.6204 268.983 75.2423 272.993 72.2334C277.004 69.2246 264.302 70.2265 264.302 70.2265C264.302 70.2265 266.641 61.87 262.63 56.1873C258.619 50.5046 246.258 52.8435 243.916 56.1873Z" fill="#F3E7D9"/>
<path d="M81.6848 60.7627C81.6848 60.7627 84.3497 51.6913 76.5046 47.8929C71.3244 45.3865 61.1284 52.2386 61.9629 58.4208C62.3248 61.0917 58.6191 56.4139 52.9364 61.0947C47.2537 65.7754 47.7562 73.2945 47.7562 73.2945C47.7562 73.2945 35.2213 77.4728 33.5494 78.4747C31.8775 79.4767 29.8736 81.8185 43.2429 77.8048C56.6152 73.8 81.6848 60.7627 81.6848 60.7627Z" fill="#F3E7D9"/>
<path d="M47.4938 134.853C47.4938 134.853 45.4869 129.171 34.7915 130.843C24.0961 132.514 20.0853 141.206 21.7542 142.208C23.4261 143.21 23.7611 144.215 23.7611 144.215C23.7611 144.215 8.38492 150.899 2.36725 153.573C-3.65043 156.247 2.36725 159.923 14.0676 155.245C25.768 150.564 55.8504 139.534 66.8808 137.862C77.9112 136.19 47.4938 134.853 47.4938 134.853Z" fill="#F3E7D9"/>
<path d="M112.658 182.777C91.7907 190.081 89.7808 200.208 89.7808 200.208C89.7808 200.208 47.053 209.408 37.3685 214.251C27.684 219.093 14.1711 227.659 33.4953 234.101C46.5684 238.459 78.5231 244.752 107.089 240.394C135.655 236.036 154.232 233.273 161.888 228.359C169.545 223.448 162.331 217.265 162.331 217.265C162.331 217.265 179.789 219.006 204.571 218.704C229.354 218.402 243.235 212.034 231.519 207.47C231.519 207.47 292.282 188.831 260.447 178.058C255.363 176.604 243.016 166.073 202.346 165.711C161.676 165.35 141.709 172.608 112.658 182.777Z" fill="#856792"/>
<path d="M160.566 186.884C160.566 186.884 131.548 194.235 136.561 198.357C141.574 202.478 159.767 201.97 159.767 201.97C159.767 201.97 167.804 210.802 182.486 209.776C197.168 208.75 207.325 207.772 216.179 204.312C225.032 200.851 261.625 191.732 228.953 186.845C196.28 181.958 160.566 186.884 160.566 186.884Z" fill="#4B3355"/>
<path d="M149.952 177.825C132.993 181.324 130.053 184.431 142.433 187.497C154.812 190.563 159.57 187.455 167.706 183.118C175.844 178.782 166.913 174.322 149.952 177.825Z" fill="#4B3355"/>
<path d="M142.678 204.686C136.867 203.232 131.543 208.074 143.162 208.559C154.782 209.043 148.486 206.136 142.678 204.686Z" fill="#4B3355"/>
<path d="M116.289 212.794C116.289 212.794 115.55 212.902 114.399 213.087C109.572 213.862 97.4644 215.979 101.762 217.152C107.089 218.605 127.424 216.667 120.644 213.763" fill="#4B3355"/>
<path d="M89.9153 206.157C89.9153 206.157 52.6847 211.556 47.029 215.662C41.3732 219.769 63.5237 222.733 63.5237 222.733C63.5237 222.733 71.0638 224.36 81.4332 223.45C91.8026 222.541 124.496 214.926 115.365 210.924C108.297 207.823 89.9153 206.157 89.9153 206.157Z" fill="#4B3355"/>
<path d="M135.102 221.653C135.102 221.653 113.882 220.394 117.815 225.359C121.748 230.323 152.407 224.656 135.102 221.653Z" fill="#4B3355"/>
<path d="M143.889 237.002C140.216 238.797 131.791 244.749 151.151 244.749C170.511 244.749 174.707 232.16 170.032 232.16C165.361 232.16 147.559 235.211 143.889 237.002Z" fill="#856792"/>
<path d="M166.419 154.178C166.419 154.178 116.047 160.187 106.7 163.758C97.3537 167.329 84.3703 177.454 107.738 180.145C131.106 182.84 144.089 187.24 154.474 182.628C164.858 178.016 157.07 168.888 157.07 168.888C157.07 168.888 175.766 170.461 188.229 167.637C200.695 164.808 203.291 147.679 166.419 154.178Z" fill="#856792"/>
<path d="M197.629 207.147C195.533 207.793 193.756 211.989 199.083 211.989C204.41 211.989 209.946 210.129 207.798 208.116C205.214 205.693 199.729 206.501 197.629 207.147Z" fill="#4B3355"/>
<path d="M174.39 221.025C174.39 221.025 170.032 223.929 175.359 224.414C180.686 224.898 180.686 221.025 174.39 221.025Z" fill="#856792"/>
<path d="M177.028 227.946C175.051 229.923 173.681 232.815 180.985 233.12C188.289 233.425 188.591 227.186 186.159 226.881C183.722 226.576 179.005 225.969 177.028 227.946Z" fill="#856792"/>
<path d="M220.387 202.305C220.387 202.305 220.548 204.401 224.583 204.081C228.618 203.758 233.137 201.985 233.137 201.985C233.137 201.985 237.01 202.308 239.914 200.37C242.818 198.432 239.753 195.043 231.36 196.819C222.968 198.593 219.256 201.497 220.387 202.305Z" fill="#4B3355"/>
<path d="M171.121 161.35C171.121 161.35 159.137 160.624 162.771 164.255C166.402 167.889 181.29 164.258 171.121 161.35Z" fill="#4B3355"/>
<path d="M171.118 143.585L170.813 161.025L168.701 162.562L166.222 166.534C166.222 166.534 166.527 169.593 166.222 174.489C165.917 179.386 165.303 185.81 165.303 185.81L203.548 201.722L218.233 202.335L231.034 200.693L252.338 189.073L246.384 170.515L245.77 166.537L240.874 164.09L243.934 161.644L241.487 138.698L189.168 137.779L171.118 143.585Z" fill="#7A462F"/>
<path d="M241.491 138.689L215.177 128.591L186.721 131.346L171.118 143.585C171.118 143.585 173.564 145.726 178.461 145.726C183.357 145.726 205.079 148.481 205.079 148.481L220.991 148.176C220.991 148.176 233.535 143.28 237.208 142.361C240.88 141.443 241.491 138.689 241.491 138.689Z" fill="#A96443"/>
<path d="M239.268 192.943L229.583 181.808L228.617 166.315L223.29 151.789L224.259 163.408L227.164 168.25L226.679 182.293L227.164 192.459L218.236 202.332L231.037 193.912L229.583 186.65L235.879 194.397L239.268 192.943Z" fill="#A96443"/>
<path d="M211.187 146.946L210.218 153.727L203.925 146.465L211.187 146.946Z" fill="#A96443"/>
<path d="M229.584 143.073L232.975 147.916L235.395 141.138L229.584 143.073Z" fill="#A96443"/>
<path d="M207.798 138.715L206.345 152.758L211.187 160.019L210.703 169.219L208.768 162.442L203.925 152.273L207.798 138.715Z" fill="#A96443"/>
<path d="M213.125 160.02V171.155L217.48 184.712L217.964 191.49L219.418 181.324L216.029 170.673L213.125 160.02Z" fill="#A96443"/>
<path d="M216.514 161.473L216.029 170.189L217.964 175.997L217.48 164.862L218.691 157.358L216.514 161.473Z" fill="#A96443"/>
<path d="M171.97 162.2L170.274 170.512L172.051 178.42L171.243 184.228L173.179 178.42L171.405 170.993L171.97 162.2Z" fill="#A96443"/>
<path d="M235.879 144.042C235.879 144.042 235.395 151.789 235.395 153.242C235.395 154.696 235.395 169.462 235.395 169.462L241.688 182.535L239.75 170.189L252.338 189.07L245.77 166.534L240.874 164.087L243.934 161.641L242.169 144.045L240.479 148.4L240.237 157.6L238.541 151.789L238.783 146.704L235.879 144.042Z" fill="#A96443"/>
<path d="M236.241 199.478C237.572 199.236 239.872 195.001 234.303 188.221C231.994 185.412 232.182 193.084 233.092 195.847C234.004 198.611 234.91 199.721 236.241 199.478Z" fill="#33A86D"/>
<path d="M237.865 195.536C237.865 195.536 235.99 187.769 237.387 187.862C241.586 188.137 240.073 190.912 240.073 190.912C240.073 190.912 245.872 185.283 246.94 187.323C248.007 189.366 244.173 192.483 244.173 192.483C244.173 192.483 254.291 185.708 249.35 190.891C244.412 196.075 237.091 199.284 237.865 195.536Z" fill="#33A86D"/>
<path d="M232.491 177.45C232.491 177.45 234.429 183.743 235.88 179.87C237.333 175.997 236.364 173.093 232.491 177.45Z" fill="#33A86D"/>
<path d="M245.08 178.905C245.08 178.905 247.985 175.031 244.595 175.031C241.206 175.031 243.142 177.936 245.08 178.905Z" fill="#33A86D"/>
<path d="M232.007 146.946C232.007 146.946 232.976 151.305 230.068 150.336C227.161 149.366 227.164 145.495 232.007 146.946Z" fill="#33A86D"/>
<path d="M231.522 155.177C231.522 155.177 238.299 153.724 234.91 152.273C231.522 150.82 228.617 153.727 231.522 155.177Z" fill="#33A86D"/>
<path d="M235.395 163.408C235.395 163.408 239.752 159.05 235.395 158.566C231.037 158.084 230.553 162.924 235.395 163.408Z" fill="#33A86D"/>
<path d="M226.195 156.631C226.195 156.631 226.679 162.442 228.614 160.504C230.549 158.566 230.552 154.211 226.195 156.631Z" fill="#33A86D"/>
<path d="M210.351 205.17C210.351 205.17 207.232 199.972 210.005 197.546C212.777 195.118 210.351 205.17 210.351 205.17Z" fill="#288453"/>
<path d="M208.402 204.078C207.636 205.37 201.502 192.459 204.406 192.094C207.31 191.729 209.171 202.789 208.402 204.078Z" fill="#288453"/>
<path d="M203.036 202.79C202.27 201.459 201.502 194.559 204.005 197.383C205.844 199.461 206.305 199.883 206.828 202.952C207.352 206.017 203.802 204.121 203.036 202.79Z" fill="#288453"/>
<path d="M165.916 187.616C165.916 187.616 164.947 178.659 162.043 179.628C159.139 180.597 162.527 184.712 162.527 184.712C162.527 184.712 158.17 180.839 159.381 184.228C160.592 187.616 165.916 187.616 165.916 187.616Z" fill="#33A86D"/>
<path d="M168.821 188.343C168.821 188.343 170.998 183.016 168.578 182.532C166.159 182.047 166.64 185.194 166.64 185.194C166.64 185.194 164.463 179.867 164.221 182.532C163.978 185.194 165.432 187.132 167.125 187.859C168.821 188.585 168.821 188.585 168.821 188.585" fill="#288453"/>
<path d="M99.2223 234.702C99.2223 234.702 94.8645 224.536 97.0449 227.075C99.2223 229.618 99.9491 231.071 99.9491 231.071C99.9491 231.071 99.2223 224.898 101.765 226.351C104.307 227.805 102.853 231.798 102.853 231.798C102.853 231.798 106.849 228.529 107.211 230.709C107.573 232.89 102.126 235.791 99.2223 234.702Z" fill="#33A86D"/>
<path d="M75.8608 236.64C75.8608 236.64 72.2299 229.013 74.7721 228.29C77.3144 227.563 78.0412 232.647 78.0412 232.647C78.0412 232.647 77.6793 223.205 80.9453 223.205C84.2114 223.205 81.3072 231.556 81.3072 231.556C81.3072 231.556 82.3959 229.74 84.2114 231.556C86.0268 233.371 84.9382 236.64 84.9382 236.64C84.9382 236.64 88.5691 234.098 90.7495 235.913C92.9268 237.729 90.7495 238.456 90.7495 238.456C90.7495 238.456 97.6495 237.002 97.2846 238.818C96.9227 240.633 91.1114 242.087 85.665 240.633C80.2185 239.179 68.234 240.271 69.3257 237.364C70.4144 234.46 75.8608 236.64 75.8608 236.64Z" fill="#33A86D"/>
<path d="M35.0499 220.851C35.0499 220.851 28.8378 214.289 33.5006 209.668L34.8585 214.194C34.8585 214.194 36.8116 208.331 39.4914 206.393L36.6411 214.974C36.6411 214.974 38.6091 210.7 41.262 209.486C43.9149 208.275 35.0499 220.851 35.0499 220.851Z" fill="#856792"/>
<path d="M32.4477 220.624C32.4477 220.624 26.2894 216.52 19.6377 216.015C19.6377 216.015 24.2616 214.43 27.1987 215.393C30.1357 216.356 30.1238 218.668 30.1238 218.668L28.7928 213.419C28.7928 213.419 34.8972 218.967 35.0468 220.851C35.1963 222.736 32.4477 220.624 32.4477 220.624Z" fill="#856792"/>
<path d="M256.418 179.786C256.418 179.786 254.259 171.382 257.127 168.876L257.196 173.565C257.196 173.565 258.909 168.887 260.465 168.11L257.958 174.959C257.958 174.959 259.472 171.756 260.919 171.636C262.367 171.516 256.418 179.786 256.418 179.786Z" fill="#856792"/>
<path d="M255.185 178.593C255.185 178.593 252.733 172.483 249.569 169.507C249.569 169.507 252.021 169.788 253.322 171.786C254.623 173.784 254.315 175.914 254.315 175.914L254.354 170.566C254.354 170.566 256.594 177.989 256.421 179.787C256.247 181.584 255.185 178.593 255.185 178.593Z" fill="#856792"/>
<path d="M141.981 181.821C141.921 181.841 141.861 181.868 141.804 181.901C140.943 182.374 132.607 184.025 131.788 185.03C131.118 185.849 131.282 189.349 131.504 190.694C131.573 191.113 131.869 191.454 132.275 191.586C133.929 192.13 136.289 193.455 140.354 193.219C145.74 192.905 146.811 192.573 150.816 190.662C153.439 189.411 157.539 188.224 158.335 187.817C158.715 187.623 158.882 187.246 158.903 186.83L159.119 182.269C159.146 181.698 158.82 181.198 158.242 181.094C155.568 180.615 148.091 179.586 141.981 181.821Z" fill="#29ABE2"/>
<path d="M144.897 180.061C144.897 180.061 132.572 183.579 131.71 184.566C130.849 185.553 131.432 189.441 131.432 189.441C131.432 189.441 134.982 191.612 140.312 191.104C145.663 190.592 146.904 190.882 150.888 189.133C153.977 187.775 158.141 186.611 158.736 186.324C158.894 186.247 158.996 186.103 159.005 185.942L159.211 181.91C159.229 181.542 158.951 181.216 158.55 181.141C156.182 180.707 151.262 177.893 144.897 180.061Z" fill="#121721"/>
<path d="M137.533 182.831C137.533 182.831 140.903 182.293 143.431 184.458" stroke="#29ABE2" stroke-width="2" stroke-miterlimit="10" stroke-linecap="round" stroke-linejoin="round"/>
<path d="M139.854 181.727C139.854 181.727 142.273 181.324 146.308 183.743" stroke="#29ABE2" stroke-width="2" stroke-miterlimit="10" stroke-linecap="round" stroke-linejoin="round"/>
<path d="M185.376 115.817C185.376 115.817 163.808 111.136 155.526 110.305C150.962 109.847 148.854 111.187 147.451 113.804C146.045 116.418 146.398 125.367 150.894 127.843C155.389 130.32 162.516 130.191 168.277 132.156C174.034 134.118 182.289 138.808 187.062 136.436C191.836 134.064 198.437 121.32 185.376 115.817Z" fill="#CE9436"/>
<path d="M185.375 115.817L175.685 113.948L157.898 129.919C157.898 129.919 165.734 131.289 168.273 132.156C174.031 134.118 182.286 138.808 187.059 136.436C191.836 134.064 192.257 115.656 185.375 115.817Z" fill="#F7BC4B"/>
<path d="M159.594 147.108C159.594 147.108 158.467 125.983 158.906 121.431C159.349 116.879 158.897 110.472 150.789 110.128C145.301 109.895 142.112 110.795 141.789 117.411C141.532 122.684 140.943 127.006 141.738 132.446C142.809 139.744 143.36 173.212 142.316 174.397C141.272 175.581 141.164 175.105 141.29 177.956C141.392 180.256 143.398 180.489 148.755 181.455C152.045 181.865 155.383 184.099 158.075 182.409C160.767 180.719 160.115 179.481 160.115 179.481L159.968 176.622L159.594 147.108Z" fill="#CE9436"/>
<path d="M159.594 147.108C159.594 147.108 161.966 126.686 162.408 122.134C162.851 117.582 152.317 145.837 153.107 148.744C153.899 151.651 154.258 157.612 154.258 157.612L152.245 154.848C152.245 154.848 150.212 173.864 150.337 176.718C150.439 179.018 143.395 180.495 148.752 181.458C152.042 181.868 155.38 184.102 158.072 182.412C160.763 180.722 160.111 179.484 160.111 179.484L159.965 176.625L159.594 147.108Z" fill="#F7BC4B"/>
<path d="M224.098 119.026C224.098 119.026 228.617 128.711 227.164 134.519C225.71 140.33 224.421 140.33 217.641 139.846C211.447 139.403 175.478 136.173 181.813 122.576C187.131 111.16 195.855 113.215 205.375 114.83C214.898 116.445 224.098 119.026 224.098 119.026Z" fill="#F7BC4B"/>
<path d="M181.008 77.0582C181.008 77.0582 175.379 81.4638 174.889 87.1973C174.398 92.9308 170.809 99.1968 169.424 101.153C168.04 103.109 164.573 110.093 170.642 113.963C176.71 117.833 178.897 109.106 181.185 105.274C183.473 101.443 186.798 97.9226 188.524 92.225C190.25 86.5244 192.092 72.9457 181.008 77.0582Z" fill="#7A462F"/>
<path d="M175.437 110.131C175.437 110.131 176.926 114.319 172.242 118.67C167.559 123.022 159.714 129.862 157.674 131.723C155.634 133.583 152.727 132.886 150.699 130.924C148.671 128.959 150.588 125.992 155.559 119.971C160.53 113.951 165.956 105.809 170.702 103.925C175.449 102.041 175.437 110.131 175.437 110.131Z" fill="#7A462F"/>
<path d="M163.254 122.9C164.155 122.164 176.926 114.319 172.242 118.671C167.558 123.022 159.713 129.863 157.673 131.723C155.634 133.583 154.054 129.034 155.99 127.099C157.925 125.164 159.937 125.604 163.254 122.9Z" fill="#A96443"/>
<path d="M152.709 126.276C151.698 125.998 150.139 126.456 148.001 127.099C146.386 127.583 143.885 127.826 142.19 128.068C139.525 128.448 139.528 127.422 137.751 128.633C136.857 129.243 137.332 130.679 137.913 131.053C139.285 131.941 143.239 131.229 143.763 131.457C144.286 131.684 140.676 135.599 140.512 135.889C140.347 136.179 135.989 138.324 135.053 138.988C134.117 139.652 134.808 140.175 135.212 140.537C135.616 140.899 137.045 140.875 137.045 140.875C137.045 140.875 135.699 141.509 136.671 142.529C137.646 143.552 138.352 143.411 138.947 143.073C139.543 142.735 140.449 142.484 140.449 142.484C140.449 142.484 140.24 143.851 141.627 143.979C143.015 144.108 143.553 143.674 143.553 143.674C143.553 143.674 143.793 144.326 144.959 144.649C146.126 144.972 146.233 144.584 148.282 143.223C150.331 141.862 153.118 139.954 153.92 139.17C154.721 138.387 157.605 132.485 156.98 130.808C156.36 129.124 153.719 126.555 152.709 126.276Z" fill="#7A462F"/>
<path d="M154.377 129.195C153.366 128.917 150.382 128.071 148.246 128.711C146.631 129.196 143.646 128.792 141.953 129.034C139.288 129.414 139.857 127.984 138.08 129.195C137.186 129.806 137.341 130.676 137.918 131.053C139.291 131.941 143.245 131.229 143.769 131.457C144.292 131.684 140.682 135.599 140.518 135.889C140.353 136.179 135.995 138.324 135.059 138.988C134.123 139.652 134.814 140.175 135.218 140.537C135.621 140.899 137.353 140.372 137.353 140.372C137.353 140.372 135.705 141.509 136.677 142.532C137.652 143.555 138.304 142.765 138.965 142.592C139.892 142.349 140.58 142.107 140.58 142.107C140.58 142.107 139.907 143.827 141.633 143.982C142.677 144.075 144.705 142.622 144.705 142.622C144.705 142.622 143.706 143.408 144.373 143.923C145.405 144.718 146.015 143.982 148.064 142.622C150.112 141.261 152.526 139.077 153.328 138.294C154.129 137.51 156.677 132.408 156.052 130.73C155.427 129.049 155.388 129.474 154.377 129.195Z" fill="#A96443"/>
<path d="M143 137.104C143 137.104 145.704 138.88 146.793 139.242C147.881 139.604 148.65 139.927 148.65 139.927C148.65 139.927 144.454 137.466 144.212 137.346C143.969 137.226 142.638 136.215 142.638 136.215L143 137.104Z" fill="#7A462F"/>
<path d="M143.736 143.286L146.428 141.441L148.244 139.807C148.244 139.807 147.655 140.687 146.509 141.629C145.812 142.2 144.576 142.838 143.736 143.286Z" fill="#7A462F"/>
<path d="M140.578 142.227L143.321 140.211C143.321 140.211 145.001 138.811 145.982 138.435L143.805 140.211L140.578 142.227Z" fill="#7A462F"/>
<path d="M136.947 140.573L140.943 138.757L143 136.819C143 136.819 141.104 138.354 140.781 138.596C140.458 138.838 136.343 140.693 136.343 140.693L136.947 140.573Z" fill="#7A462F"/>
<path d="M200.697 70.8519C190.208 71.8209 185.366 73.6753 182.943 74.8059C180.524 75.9364 181.005 76.744 181.005 76.744C181.005 76.744 181.813 85.1364 182.297 88.2021C182.782 91.2677 184.011 98.9035 184.436 102.887C184.902 107.269 188.432 115.111 188.189 117.776C187.896 121.006 189.643 125.765 189.643 125.765C189.643 125.765 198.762 123.545 205.217 124.353C211.671 125.16 224.583 122.496 225.229 122.334C225.875 122.173 225.309 120.396 225.309 118.784C225.309 117.169 225.067 114.668 225.067 114.668C225.067 114.668 223.413 100.306 223.413 97.076C223.413 93.8489 223.955 76.4269 222.648 73.0293C221.837 70.9327 211.186 69.8828 200.697 70.8519Z" fill="#29ABE2"/>
<path d="M219.822 95.4639C219.822 95.4639 220.387 100.629 220.387 104.341C220.387 108.053 222.325 111.845 221.598 114.507C220.871 117.169 220.387 122.496 220.387 122.496" stroke="#1689CB" stroke-miterlimit="10"/>
<path d="M207.717 70.5112C208.686 70.5112 208.079 75.6137 206.829 77.5518C205.579 79.4899 200.052 82.5556 195.694 82.7171C191.019 82.8905 188.662 81.3921 190.206 77.0673C191.013 74.8091 191.498 72.3865 193.11 72.0635C194.725 71.7405 195.873 71.5401 199.627 71.1752C203.381 70.8103 206.748 70.5112 207.717 70.5112Z" fill="#7A462F"/>
<path d="M202.418 75.9155C206.067 74.9764 205.861 74.9285 205.52 73.0413L204.41 64.1553C204.141 62.6539 202.454 61.7357 200.181 62.3189L195.351 63.3927C193.143 63.9579 192.273 65.4982 192.312 67.0056C192.312 67.0056 192.952 73.3703 193.517 75.3532C194.088 77.3601 198.766 76.8547 202.418 75.9155Z" fill="#A96443"/>
<path d="M202.208 76.2129C194.079 72.0645 192.27 65.4995 192.308 67.0039C192.308 67.0039 192.739 73.6646 193.304 75.6476C193.882 77.6575 198.556 77.155 202.208 76.2129Z" fill="#7A462F"/>
<path d="M183.105 91.5101L183.976 96.3614C183.976 96.3614 198.117 97.9256 216.152 95.6256L215.063 90.1792C215.06 90.1792 202.199 92.4792 183.105 91.5101Z" fill="#3E4C6F"/>
<path d="M216.271 97.9253C216.271 97.9253 200.1 99.8634 184.353 98.8943L185.16 103.291C185.16 103.291 190.487 104.26 198.359 104.098C206.231 103.937 217.363 102.283 217.363 102.283L216.271 97.9253Z" fill="#3E4C6F"/>
<path d="M205.986 52.4194C207.963 66.9641 205.187 65.9262 199.271 67.0568C194.322 68.0049 189.261 62.7679 188.005 55.5478C186.749 48.3278 189.754 41.7748 194.719 40.9104C199.684 40.0461 204.772 43.4796 205.986 52.4194Z" fill="#273252"/>
<path d="M202.849 50.933C201.661 44.2933 200.303 40.6145 193.053 41.3412C189.27 41.7211 185.651 42.72 183.683 44.2544C181.903 45.6421 181 47.4726 181.063 51.9529C181.111 55.3296 181.362 61.138 183.375 66.4498C184.667 69.8534 189.297 70.4097 193.227 69.997C203.172 68.9561 204.508 67.6611 204.168 60.5218C203.847 53.8103 203.336 53.6577 202.849 50.933Z" fill="#7A462F"/>
<path d="M201.302 43.9672C198.993 40.0521 193.143 44.9333 195.856 45.9173C199.852 47.3709 198.885 56.4602 198.236 61.9754C197.522 68.0439 194.067 69.5394 194.067 69.5394C194.067 69.5394 195.963 69.5902 198.195 68.995C201.826 68.026 204.407 68.1067 203.928 59.2238C203.701 54.9617 202.723 46.3719 201.302 43.9672Z" fill="#A96443"/>
<path d="M182.122 44.3687C181.586 44.8353 181.069 48.6935 181.048 51.0832C181.045 51.5857 181.458 47.9249 182.137 47.0485C182.137 47.0485 184.281 47.554 186.722 47.207C191.253 46.564 195.288 45.3706 195.288 45.3706C195.288 45.3706 197.136 50.5 198.652 52.1031C200.208 53.7481 202.017 54.5497 202.017 54.5497L203.8 50.7213C203.13 45.7086 201.045 41.5573 197.585 41.0249C191.25 40.0528 184.09 42.6519 182.122 44.3687Z" fill="#273252"/>
<path d="M193.464 55.656C193.52 56.6612 193.06 56.8048 192.551 56.8317C192.043 56.8616 191.669 56.7659 191.6 55.7607C191.531 54.7465 191.896 53.8909 192.417 53.861C192.937 53.8341 193.407 54.6418 193.464 55.656Z" fill="#1D2538"/>
<path d="M190.691 50.5858C190.691 50.5858 192.743 50.1969 193.715 51.0944" stroke="#1D2538" stroke-miterlimit="10" stroke-linecap="round" stroke-linejoin="round"/>
<path d="M186.07 56.5561C186.163 57.4955 185.756 57.5882 185.277 57.6151C184.799 57.6421 184.422 57.5942 184.32 56.6548C184.215 55.7065 184.527 54.9047 185.014 54.8778C185.502 54.8479 185.974 55.6048 186.07 56.5561Z" fill="#1D2538"/>
<path d="M185.559 51.5908C185.559 51.5908 184.015 51.16 182.735 52.5092" stroke="#1D2538" stroke-miterlimit="10" stroke-linecap="round" stroke-linejoin="round"/>
<path d="M206.725 55.3534C206.217 57.785 204.416 59.5287 202.687 59.3194C202.687 59.3194 202.382 53.8371 202.29 52.7932C202.23 52.1382 202.52 50.1014 204.362 50.3258C206.199 50.5501 207.248 52.8381 206.725 55.3534Z" fill="#A96443"/>
<path d="M205.762 57.8992C205.696 58.5543 205.095 59.0629 204.425 59.039C203.755 59.0151 203.255 58.4646 203.312 57.8094C203.369 57.1483 203.967 56.6277 204.649 56.6517C205.331 56.6756 205.831 57.238 205.762 57.8992Z" fill="#F3E7D9"/>
<path d="M197.621 132.261C197.621 132.261 198.004 136.969 193.93 137.265C193.93 137.265 197.495 133.242 197.621 132.261Z" fill="#CE9436"/>
<path d="M181.739 190.103C176.412 192.008 168.624 193.925 168.304 196.255C167.984 198.57 167.781 201.016 168.011 201.878C168.188 202.53 168.484 202.915 169.013 203.119C170.359 203.636 173.054 204.889 178.434 205.278C180.755 205.446 185.789 204.127 188.801 201.848C191.188 200.044 194.044 197.951 195.112 197.167C195.39 196.964 195.569 196.662 195.608 196.324L195.919 193.727C195.982 193.198 195.689 192.681 195.189 192.45C192.844 191.365 186.064 188.553 181.739 190.103Z" fill="#29ABE2"/>
<path d="M181.975 187.859C177.331 189.447 168.519 193.012 168.217 195.321C167.945 197.406 167.828 198.554 167.915 199.35C167.957 199.739 169.055 199.903 169.593 200.089C170.963 200.558 173.703 201.695 179.164 202.069C181.518 202.23 186.1 201.548 189.151 199.517C191.684 197.833 194.737 195.865 195.686 195.255C195.874 195.133 196 194.95 196.033 194.744L196.341 192.731C196.472 191.867 196.209 188.146 195.249 187.862C191.756 186.827 186.091 186.45 181.975 187.859Z" fill="#121721"/>
<path d="M182.642 193.885C182.642 193.885 178.174 190.141 173.257 191.699" stroke="#29ABE2" stroke-width="2" stroke-miterlimit="10" stroke-linecap="round" stroke-linejoin="round"/>
<path d="M185.624 192.001C185.624 192.001 180.982 188.63 176.08 190.183" stroke="#29ABE2" stroke-width="2" stroke-miterlimit="10" stroke-linecap="round" stroke-linejoin="round"/>
<path d="M189.862 189.922C189.862 189.922 188.109 190.251 184.209 190.132C180.306 190.015 180.025 188.744 178.999 188.194C177.973 187.643 175.778 190.12 176.63 183.716C177.483 177.313 176.436 174.818 176.125 173.227C175.814 171.636 175.47 173.517 175.479 168.49C175.488 163.462 175.796 159.478 175.494 152.859C175.192 146.24 174.166 125.101 174.869 122.28C175.575 119.457 194.902 120.429 196.337 125.319C197.773 130.209 196.107 135.997 195.515 138.321C194.923 140.644 195.811 147.428 195.207 152.028C194.869 154.588 194.857 162.212 195.503 170.745C196.149 179.278 196.759 182.299 197.33 183.217C197.902 184.135 197.229 187.278 196.867 188.609C196.511 189.943 189.862 189.922 189.862 189.922Z" fill="#F7BC4B"/>
<path d="M225.792 123.707C225.307 121.769 224.975 123.1 210.541 121.126C199.37 119.597 184.234 114.348 181.975 120.641C179.717 126.934 210.541 128.065 217.642 128.226C224.745 128.388 226.276 125.645 225.792 123.707Z" fill="#F7BC4B"/>
<path d="M185.364 132.746C185.364 132.746 179.391 129.841 179.876 125.484C180.366 121.06 190.822 119.433 195.934 118.626C186.491 115.479 175.575 119.463 174.869 122.286C174.163 125.11 175.192 146.249 175.494 152.865C175.796 159.484 175.488 163.468 175.479 168.496C175.467 173.523 175.811 171.642 176.125 173.233C176.439 174.824 177.483 177.319 176.63 183.722C175.778 190.126 177.973 187.649 178.999 188.2C180.025 188.75 180.306 190.021 184.209 190.138C188.113 190.254 189.862 189.928 189.862 189.928C189.862 189.928 196.511 189.946 196.87 188.615C197.229 187.284 197.905 184.141 197.333 183.223C197.025 182.726 191.693 177.259 186.746 172.058L187.194 173.407L187.496 178.641C187.496 178.641 185.394 174.19 184.646 172.548C184.117 171.385 183.1 168.932 182.546 167.595C180.199 165.059 178.467 163.088 178.272 162.571C177.955 161.733 176.499 130.299 179.55 132.1C183.106 134.199 185.364 132.746 185.364 132.746Z" fill="#CE9436"/>
<path d="M221.114 72.3864C219.645 72.4493 216.723 71.6597 215.18 77.2287C213.637 82.7977 217.384 96.1102 220.25 95.1441C223.115 94.1781 222.675 86.9132 223.336 82.7977C223.997 78.6793 223.022 72.3057 221.114 72.3864Z" fill="#7A462F"/>
<path d="M221.114 72.3836C219.406 72.1473 218.775 73.5979 217.725 75.6945C216.077 78.9935 217.384 86.6561 220.249 86.0729C223.115 85.4897 223.034 79.137 223.695 76.6606C224.356 74.1841 223.453 72.7096 221.114 72.3836Z" fill="#A96443"/>
<path d="M231.28 88.3638C231.28 88.3638 229.826 84.8136 227.649 80.4559C225.471 76.0982 224.099 72.0635 221.194 73.0325C218.29 74.0016 217.04 78.6823 216.798 82.3133C216.556 85.9442 218.251 89.4944 220.994 93.0446C223.195 95.8919 225.714 104.826 228.782 108.699C232.614 113.538 235.883 116.445 239.271 113.783C242.66 111.122 240.483 104.341 237.818 99.7412C235.153 95.1412 231.28 88.3638 231.28 88.3638Z" fill="#A96443"/>
<path d="M219.418 86.2645C216.364 82.6007 217.602 77.2261 217.602 77.2261C217.602 77.2261 216.756 78.6796 216.514 82.3106C216.271 85.9415 217.967 89.4917 220.71 93.0419C222.911 95.8892 225.714 104.823 228.779 108.696C228.779 108.696 237.091 107.183 234.549 106.456C232.129 105.765 230.738 106.471 230.071 105.367C228.77 103.223 224.383 94.0498 224.383 94.0498C224.383 94.0498 221.837 89.1717 219.418 86.2645Z" fill="#7A462F"/>
<path d="M237.333 106.761C237.333 106.761 235.246 105.974 229.919 107.67C224.592 109.366 227.164 110.876 217.42 115.718C212.428 118.198 215.868 122.657 222.645 121.449C229.422 120.238 234.911 118.626 238.299 114.995C241.688 111.361 241.93 109.183 237.333 106.761Z" fill="#A96443"/>
<path d="M227.891 111.361C229.32 110.066 231.674 108.074 232.329 107.245C232.837 106.602 232.239 106.827 229.909 107.568C224.583 109.264 227.167 110.876 217.422 115.719C212.428 118.198 225.348 113.661 227.891 111.361Z" fill="#7A462F"/>
<path d="M218.449 116.93C217.671 116.398 213.122 114.51 210.46 114.268C207.798 114.026 204.891 114.753 204.891 114.753L199.564 116.93C199.564 116.93 197.749 118.868 197.264 119.592C196.779 120.319 197.689 120.983 197.689 120.983C197.689 120.983 199.564 122.131 199.929 121.769C200.291 121.407 200.291 121.407 200.291 121.407C200.291 121.407 201.26 122.496 201.987 122.619C202.713 122.738 203.56 122.619 203.56 122.619C203.56 122.619 205.498 123.465 206.829 123.465C208.16 123.465 209.371 121.407 210.702 121.165C212.033 120.923 213.185 122.921 215.727 122.798C218.269 122.679 220.748 118.503 218.449 116.93Z" fill="#A96443"/>
<path d="M216.759 116.114C214.982 115.369 212.281 114.433 210.46 114.268C207.798 114.026 204.891 114.753 204.891 114.753L199.564 116.93C199.564 116.93 197.749 118.868 197.264 119.592C196.779 120.319 197.689 120.983 197.689 120.983C197.689 120.983 199.564 122.131 199.929 121.769C200.291 121.407 200.291 121.407 200.291 121.407C200.291 121.407 201.26 122.496 201.987 122.619C202.713 122.738 203.56 122.619 203.56 122.619L204.083 120.965L211.749 116.284C211.752 116.284 217.581 116.458 216.759 116.114Z" fill="#7A462F"/>
<path d="M113.632 166.806C113.632 166.806 115.564 172.126 116.77 173.356L118.02 170.574C118.017 170.574 116.3 167.817 113.632 166.806Z" fill="#992C29"/>
<path d="M114.437 169.082C114.437 169.082 113.623 173.526 114.054 175.096L116.318 174.358C116.315 174.358 116.148 171.546 114.437 169.082Z" fill="#992C29"/>
<path d="M58.1454 189.737C58.1454 189.737 56.5183 201.674 57.0686 204.506C57.616 207.338 56.6409 210.939 55.4924 212.815C54.8614 213.969 57.1015 218.255 57.1015 218.255C57.1015 218.255 60.571 219.266 63.9058 218.097C66.8219 217.074 66.1131 215.354 64.2677 214.51C62.4074 213.658 66.7322 205.995 66.7322 205.995C66.7322 205.995 69.9833 192.922 70.1957 190.948C70.408 188.977 59.9279 183.259 58.1454 189.737Z" fill="#1D2538"/>
<path d="M110.662 169.728C107.74 170.35 92.8186 169.587 91.5744 163.791C90.6562 159.508 88.9154 154.75 88.5296 151.119C88.5296 151.119 86.9415 148.546 85.5417 145.418C84.136 142.275 84.7521 141.751 86.5796 142.612C88.392 143.465 91.8166 146.698 91.8166 146.698C91.8166 146.698 96.1654 143.57 102.195 143.034C108.042 142.517 106.681 144.521 108.877 147.233L110.459 149.701C110.459 149.701 114.706 147.386 117.52 147.06C120.293 146.74 121.247 147.882 122.425 150.957C123.643 154.13 123.7 154.453 123.024 156.317C122.345 158.189 119.928 161.7 117.26 164.305C117.269 164.299 113.542 169.115 110.662 169.728Z" fill="#1D2538"/>
<path d="M110.662 169.728C107.74 170.35 104.65 173.401 103.409 167.604C102.491 163.321 102.7 156.245 102.7 156.245C102.7 156.245 96.1742 143.563 102.204 143.028C108.051 142.511 108.458 144.174 110.115 146.698L111.218 149.261C111.218 149.261 114.715 147.377 117.529 147.054C120.302 146.734 121.256 147.876 122.434 150.951C123.652 154.124 123.708 154.447 123.032 156.311C122.354 158.183 119.937 161.694 117.269 164.299C117.269 164.299 113.542 169.115 110.662 169.728Z" fill="#273252"/>
<path d="M121.232 148.145C122.3 149.542 120.206 151.118 119.13 149.719C118.047 148.31 115.056 147.786 116.8 147.14C118.005 146.698 120.162 146.743 121.232 148.145Z" fill="#121721"/>
<path d="M99.0486 145.283C99.0486 145.283 98.3816 141.06 98.3128 137.896C98.25 134.875 99.88 135.365 101.489 137.812C103.167 140.36 105.518 145.265 105.937 146.243C106.358 147.221 100.685 148.723 99.0486 145.283Z" fill="#273252"/>
<path d="M100.299 138.479C99.707 135.455 100.29 136.362 101.899 138.805C103.574 141.348 103.464 141.856 103.885 142.837C104.304 143.815 100.826 141.171 100.299 138.479Z" fill="#1D2538"/>
<path d="M105.548 206.336C105.129 205.182 103.012 205.149 102.925 204.859C101.447 199.948 101.05 194.956 100.846 193.793C100.428 191.403 101.746 186.752 100.882 181.602C100.048 176.637 91.709 181.431 92.5585 187.341C93.049 190.754 95.4267 202.254 96.1027 205.376C96.1984 205.816 96.3868 206.232 96.659 206.6L99.2252 209.076C99.8203 210.021 101.008 209.671 103.179 209.016C105.324 208.37 106.116 207.904 105.548 206.336Z" fill="#273252"/>
<path d="M120.993 212.399C120.709 209.372 116.985 209.441 116.985 209.441C116.767 209.043 116.037 208.29 115.962 207.886C115.388 204.823 115.561 197.744 115.424 196.383C115.137 193.551 115.415 184.976 114.885 178.444C114.353 171.882 106.367 177.48 106.329 183.989C106.302 188.622 110.244 207.03 110.611 208.801C110.611 208.801 114.85 214.843 116.91 214.633C118.947 214.427 121.169 214.265 120.993 212.399Z" fill="#273252"/>
<path d="M91.5774 165.93C90.3541 168.684 91.2724 169.907 87.9046 171.131C80.2449 173.915 73.9371 174.451 65.2636 176.945C59.6048 178.572 56.0875 190.715 58.5311 194.08C60.9776 197.445 70.7698 196.834 76.8892 200.812C83.3076 204.985 90.3512 199.894 94.329 198.058C98.3069 196.221 108.539 188.995 111.057 186.408C111.966 185.475 112.334 182.903 112.923 180.202C113.776 176.29 115.34 171.792 112.825 168.221C111.123 165.798 92.8007 163.178 91.5774 165.93Z" fill="#1D2538"/>
<path d="M106.637 170.302L102.895 177.379C102.895 177.379 98.6391 183.899 99.013 183.884L103.32 191.304C103.32 191.304 108.542 188.992 111.057 186.405C111.967 185.472 113.935 183.319 114.524 180.615C115.376 176.703 114.829 173.577 113.911 168.071L106.637 170.302Z" fill="#273252"/>
<path d="M91.577 164.706C91.577 164.706 90.9609 165.505 91.0685 167.141C91.0685 167.141 96.2428 168.905 106.095 170.299C111.096 171.008 114.909 170.251 114.909 170.251L114.517 167.261C114.517 167.264 102.898 169.297 91.577 164.706Z" fill="#992C29"/>
<path d="M66.7951 180.923C65.9158 179.712 64.6536 180.618 61.2889 174.803C57.9241 168.989 56.7308 159.43 60.9808 156.245C60.9808 156.245 56.2702 155.037 52.72 164.096C49.089 173.359 59.1773 183.701 60.1015 184.503C64.1871 188.065 69.2955 184.371 66.7951 180.923Z" fill="#273252"/>
<path d="M67.2797 181.251C66.3944 180.03 63.7325 184.903 58.7467 176.026C56.1237 171.357 54.4009 159.654 60.9958 156.244C60.9958 156.244 53.6951 155.173 51.8018 164.804C49.3523 177.252 59.1774 183.934 60.1075 184.744C64.229 188.342 69.804 184.729 67.2797 181.251Z" fill="#1D2538"/>
<path d="M70.9347 192.665C70.9347 192.665 74.9365 208.083 76.6682 210.404C78.391 212.713 79.7189 216.203 79.3391 218.225C78.9592 220.256 82.7696 222.673 82.7696 222.673C82.7696 222.673 87.6956 222.11 88.5091 221.814C89.3197 221.518 90.8809 218.267 88.7006 218.141C86.4963 218.016 85.1982 208.577 85.1982 208.577C85.1982 208.577 84.3219 191.723 83.7177 189.875C83.1136 188.029 69.9895 186.211 70.9347 192.665Z" fill="#1D2538"/>
<path d="M109.7 149.712C110.021 149.589 109.993 148.739 109.639 147.813C109.284 146.887 108.736 146.237 108.416 146.359C108.095 146.482 108.122 147.332 108.477 148.258C108.831 149.184 109.379 149.835 109.7 149.712Z" fill="#121721"/>
<path d="M119.761 160.262C119.761 160.262 115.44 160.262 115.461 163.699C115.464 163.962 115.601 164.21 115.822 164.354L118.873 166.316C118.873 166.316 125.004 173.093 125.974 173.82C126.943 174.547 130.735 176.563 133.235 172.851C135.476 169.528 134.082 163.774 131.54 163.166L119.761 160.262Z" fill="#F5894E"/>
<path d="M125.57 171.235C124.717 169.13 126.147 165.038 129.724 164.62C133.84 164.135 134.121 170.431 132.539 172.62C130.594 175.315 126.943 174.627 125.57 171.235Z" fill="#FFFCF3"/>
<path d="M125.731 169.22L127.708 170.793C127.708 170.793 127.433 170.488 127.547 168.977C127.621 167.984 128.441 166.905 130.331 166.073L128.456 165.529C128.456 165.529 126.156 165.831 125.731 169.22Z" fill="#F5894E"/>
<path d="M125.247 172.608C125.247 172.608 131.621 175.189 131.944 169.058C132 167.999 130.49 166.073 128.271 166.638C125.788 167.269 128.07 165.669 128.633 165.669C129.195 165.669 133.637 166.243 132.548 170.308C131.498 174.223 128.265 174.157 126.575 173.535C125.821 173.257 125.247 172.608 125.247 172.608Z" fill="#F5894E"/>
<path d="M121.013 160.504C121.013 160.504 116.838 159.87 117.229 165.347" stroke="#F7BC4B" stroke-miterlimit="10" stroke-linecap="round" stroke-linejoin="round"/>
<path d="M120.89 160.866C120.89 160.866 123.552 157.477 121.494 158.446C119.436 159.416 120.89 160.866 120.89 160.866Z" stroke="#F7BC4B" stroke-miterlimit="10"/>
<path d="M121.012 160.504C121.012 160.504 123.675 158.446 124.767 160.142C125.859 161.839 122.708 161.839 122.104 161.716C121.497 161.593 121.012 160.504 121.012 160.504Z" stroke="#F7BC4B" stroke-miterlimit="10"/>
<path d="M121.013 160.505C121.013 160.505 119.954 160.415 118.683 161.746C117.84 162.628 117.08 165.045 117.594 165.499" stroke="#F7BC4B" stroke-miterlimit="10" stroke-linecap="round" stroke-linejoin="round"/>
</svg>
