<svg width="287" height="206" viewBox="0 0 287 206" fill="none" xmlns="http://www.w3.org/2000/svg">
<path d="M82.2135 93.471C82.2135 93.471 31.5962 135.251 19.1412 142.481C6.68615 149.712 -4.56045 132.839 1.86763 118.376C8.29571 103.913 16.7319 102.709 16.7319 102.709C16.7319 102.709 -0.945287 72.9808 22.7589 49.6803C46.4631 26.3798 71.7692 22.3635 75.788 34.0138C75.788 34.0138 93.4348 11.1321 128.416 2.27703C160.153 -5.75807 159.351 8.70511 141.673 26.3823C141.673 26.3823 153.725 20.3554 159.351 22.3661C164.971 24.3742 82.2135 93.471 82.2135 93.471Z" fill="#F4E8D8"/>
<path d="M230.052 90.6605C230.052 90.6605 127.609 141.278 119.576 146.503C111.541 151.725 109.132 152.931 109.533 156.546C109.934 160.161 125.2 152.53 125.2 152.53C125.2 152.53 113.951 164.982 144.484 159.359C175.015 153.735 212.377 144.093 247.328 122.4C282.279 100.706 290.314 96.69 285.894 88.6549C281.474 80.6198 267.816 82.2269 260.184 85.842C252.553 89.4572 272.637 77.0047 264.604 75.7988C256.567 74.5903 230.052 90.6605 230.052 90.6605Z" fill="#F4E8D8"/>
<path d="M168.787 51.8916C168.787 51.8916 168.787 42.8537 151.915 39.236C135.042 35.6183 135.042 43.4554 136.248 50.0841C137.454 56.7127 147.096 60.9321 148.904 60.9321C150.711 60.9321 168.787 51.8916 168.787 51.8916Z" fill="#48598B"/>
<path d="M146.893 98.292C146.893 98.292 142.072 109.541 150.107 116.37C158.142 123.199 172.202 126.012 185.058 116.37C197.914 106.728 166.578 75.3951 146.893 98.292Z" fill="#273150"/>
<path d="M156.131 54.7045C156.131 54.7045 171.244 36.8394 189.475 41.0461C210.366 45.8672 217.797 57.718 221.412 75.7963C221.412 75.7963 232.862 70.3736 236.477 87.246C240.092 104.118 218.399 111.953 205.746 111.351C193.093 110.747 156.131 54.7045 156.131 54.7045Z" fill="#48598B"/>
<path d="M152.115 57.3168C152.115 57.3168 167.228 39.4517 185.459 43.6584C206.35 48.4795 213.781 60.3303 217.396 78.4086C217.396 78.4086 228.846 72.9859 232.461 89.8583C236.076 106.731 214.382 114.565 201.727 113.964C189.074 113.357 152.115 57.3168 152.115 57.3168Z" fill="#273150"/>
<path d="M141.47 79.0101C141.47 79.0101 132.432 85.0371 128.814 75.9966C125.197 66.9562 139.058 59.1242 144.481 59.7259C149.906 60.3301 148.099 71.1756 141.47 79.0101Z" fill="#273150"/>
<path d="M166.779 53.7017C166.779 53.7017 166.779 44.6638 149.906 41.0461C133.034 37.4284 133.034 45.2655 134.24 51.8941C135.446 58.5228 145.088 62.7421 146.895 62.7421C148.7 62.7396 166.779 53.7017 166.779 53.7017Z" fill="#273150"/>
<path d="M163.364 125.21C163.364 125.21 151.513 137.462 144.885 145.296C138.784 152.504 124.999 158.754 122.991 168.396C120.983 178.038 142.072 181.052 148.5 174.624C154.928 168.196 176.22 142.486 179.434 135.657C182.646 128.825 174.21 114.763 163.364 125.21Z" fill="#CE6D3E"/>
<path d="M185.058 121.191C185.058 121.191 178.63 116.37 174.613 116.771C170.597 117.172 158.947 129.828 158.947 129.828C158.947 129.828 163.567 130.029 166.581 132.841C169.594 135.654 173.41 144.291 173.41 144.291C173.41 144.291 189.478 126.012 185.058 121.191Z" fill="#C93F37"/>
<path d="M171.801 175.025C171.801 175.025 158.744 165.451 147.162 162.705C137.101 160.321 132.232 159.892 127.01 162.705C121.788 165.517 117.769 173.753 122.389 175.561C127.007 177.368 171.801 175.025 171.801 175.025Z" fill="#F6874E"/>
<path d="M232.461 181.855C232.461 181.855 234.068 156.145 231.659 140.075C229.25 124.004 225.632 111.953 218.001 107.132C210.367 102.311 196.307 109.945 185.863 114.362C177.345 117.965 173.812 134.85 168.186 144.492C163.375 152.74 159.749 160.562 171.801 175.023C183.852 189.483 225.632 207.965 232.461 181.855Z" fill="#D09435"/>
<path d="M232.462 181.855C232.462 181.855 234.069 156.145 231.66 140.075C229.251 124.004 225.633 111.953 218.001 107.132C210.367 102.311 219.207 139.27 211.573 154.538C206.618 164.449 202.332 175.025 213.581 183.462C228.641 194.756 225.633 207.965 232.462 181.855Z" fill="#F6BE4A"/>
<path d="M167.783 104.72C181.771 121.075 185.46 127.62 185.46 127.62C185.46 127.62 199.923 127.218 199.519 117.576C199.116 107.934 194.005 106.353 187.869 97.4898C180.639 87.0454 163.111 99.2593 167.783 104.72Z" fill="#F6874E"/>
<path d="M167.782 104.72C174.611 113.357 184.855 112.755 184.855 112.755C184.855 112.755 203.535 116.068 187.868 97.4896C179.681 87.7764 163.11 99.2591 167.782 104.72Z" fill="#CE6D3E"/>
<path d="M157.238 52.9986C157.238 52.9986 143.07 51.7521 139.663 73.5878C135.243 101.91 142.072 112.758 169.792 109.744C197.513 106.731 198.114 88.8532 196.307 76.2001C194.499 63.542 173.506 48.7792 157.238 52.9986Z" fill="#F6874E"/>
<path d="M157.238 52.9984C157.238 52.9984 143.07 51.7519 139.663 73.5876C135.243 101.91 142.072 112.758 169.792 109.744C169.792 109.744 157.137 96.0859 155.329 83.4303C153.522 70.7747 176.22 52.6303 157.238 52.9984Z" fill="#CE6D3E"/>
<path d="M142.272 64.5979C142.272 64.5979 147.82 52.6278 164.971 55.5092C177.525 57.6189 190.983 70.3736 190.983 70.3736L196.307 65.753C196.307 65.753 184.652 47.7356 160.551 50.5866C147.396 52.1429 143.73 59.7769 142.272 64.5979Z" fill="#F6BE4A"/>
<path d="M142.272 64.5981C142.272 64.5981 147.82 52.628 164.971 55.5094L160.551 50.5894C147.396 52.1431 143.73 59.777 142.272 64.5981Z" fill="#D09435"/>
<path d="M201.128 79.0103C194.5 79.0103 189.478 86.2406 187.871 94.6768C186.442 102.186 184.857 111.549 207.155 110.948C229.45 110.346 213.781 79.0103 201.128 79.0103Z" fill="#273150"/>
<path d="M191.082 87.4465C195.132 87.4465 198.414 82.792 198.414 77.0504C198.414 71.3088 195.132 66.6543 191.082 66.6543C187.033 66.6543 183.75 71.3088 183.75 77.0504C183.75 82.792 187.033 87.4465 191.082 87.4465Z" fill="#F6874E"/>
<path d="M163.09 73.6093C164.435 73.27 165.062 71.1633 164.492 68.9038C163.922 66.6444 162.37 65.0878 161.025 65.4271C159.681 65.7664 159.053 67.8732 159.623 70.1326C160.194 72.3921 161.746 73.9487 163.09 73.6093Z" fill="#263052"/>
<path d="M148.24 77.6857C148.375 75.7794 147.565 74.1689 146.431 74.0885C145.296 74.0081 144.267 75.4883 144.132 77.3945C143.997 79.3008 144.807 80.9114 145.941 80.9918C147.076 81.0721 148.105 79.592 148.24 77.6857Z" fill="#263052"/>
<path d="M143.009 73.3843L147.629 73.7194" stroke="#273150" stroke-width="2" stroke-miterlimit="10"/>
<path d="M154.392 65.9537C154.392 65.9537 155.664 62.9402 157.941 62.8057" stroke="#273150" stroke-width="2" stroke-miterlimit="10"/>
<path d="M184.61 61.7371C184.61 61.7371 191.643 70.2825 198.855 73.9434C204.308 76.7131 208.678 77.2234 208.678 77.2234L207.586 75.0401L210.302 72.9457C210.302 72.9457 200.109 71.8794 186.735 60.4551L184.61 61.7371Z" fill="#C93F37"/>
<path d="M183.897 60.7394C183.897 60.7394 187.578 71.1761 193.1 77.0863C197.276 81.5545 201.206 83.5322 201.206 83.5322L200.929 81.1077L204.197 80.0719C204.197 80.0719 194.986 75.5783 186.332 60.2646L183.897 60.7394Z" fill="#C93F37"/>
<path d="M188.368 66.2533C190.968 65.7964 193.441 51.9196 187.251 51.6277C181.425 51.3509 174.819 52.0948 175.916 56.4868C177.015 60.8788 185.771 66.7103 188.368 66.2533Z" fill="#C93F37"/>
<path d="M190.612 58.3605C190.612 58.3605 189.655 52.4097 187.809 52.5417C185.961 52.6737 187.614 55.215 188.091 59.1348C188.569 63.0546 190.947 60.8713 190.612 58.3605Z" fill="#F7BC4B"/>
<path d="M186.21 63.3769C186.21 63.3769 185.819 60.6376 189.81 57.9871C193.801 55.3367 196.837 53.8921 199.376 55.4662C201.915 57.0402 202.793 63.9633 201.344 67.4541C199.894 70.9423 191.013 68.2919 188.777 66.9793C186.54 65.6668 186.21 63.3769 186.21 63.3769Z" fill="#C93F37"/>
<path d="M200.737 61.0589C200.737 61.0589 201.572 66.6111 199.089 67.52C195.4 68.868 197.726 58.3526 197.941 56.6897C198.157 55.0269 201.402 57.0807 200.737 61.0589Z" fill="#F7BC4B"/>
<path d="M121.282 121.796C121.282 121.796 123.691 113.057 122.488 108.538C121.282 104.019 120.68 102.511 116.461 100.102C112.241 97.6928 107.722 97.9924 108.327 93.1713C108.928 88.3502 110.134 90.762 115.859 91.6658C121.584 92.5696 121.492 96.1035 126.405 97.9924C130.322 99.4978 135.443 101.91 138.157 108.236C140.868 114.563 148.401 119.686 141.772 124.205C135.141 128.724 121.883 126.614 121.282 121.796Z" fill="#F6874E"/>
<path d="M187.467 115.969C187.467 115.969 178.226 135.654 175.415 143.69C172.602 151.725 176.217 156.142 182.646 159.76C189.074 163.375 196.705 164.781 203.133 151.925C209.561 139.069 215.185 130.432 212.775 124.004C210.366 117.576 195.502 104.72 187.467 115.969Z" fill="#F6874E"/>
<path d="M187.467 115.969C187.467 115.969 178.226 135.654 175.415 143.69C172.602 151.725 176.217 156.142 182.646 159.76C189.074 163.375 189.074 158.153 195.502 145.297C201.93 132.44 215.187 130.432 212.775 124.004C210.363 117.576 195.502 104.72 187.467 115.969Z" fill="#CE6D3E"/>
<path d="M187.065 117.175C187.065 117.175 194.699 99.0964 197.109 95.4812C199.518 91.8661 204.743 89.4543 210.366 91.4649C215.989 93.4731 218.802 107.131 218.802 112.356C218.802 117.578 211.168 133.247 210.767 136.462C210.366 139.676 209.561 124.811 201.526 119.99C193.491 115.169 187.065 117.175 187.065 117.175Z" fill="#C93F37"/>
<path d="M197.109 95.4812C199.518 91.8661 204.743 89.4543 210.366 91.4649C215.989 93.4731 218.802 107.131 218.802 112.356C218.802 117.578 211.168 133.247 210.767 136.461C210.366 139.676 213.177 106.733 209.965 102.313C205.4 96.0347 197.109 95.4812 197.109 95.4812Z" fill="#EE5D4F"/>
<path d="M198.47 146.777C198.47 146.777 194.068 130.481 179.026 131.12C163.984 131.76 170.587 156.043 185.629 157.96C200.671 159.877 198.47 146.777 198.47 146.777Z" fill="#CE6D3E"/>
<path d="M198.716 149.714C198.716 149.714 193.895 130.298 177.423 131.1C160.952 131.902 151.714 124.806 144.882 122.395C139.619 120.536 130.52 128.421 138.555 134.446C146.59 140.473 168.182 161.362 184.654 163.773C201.125 166.185 198.716 149.714 198.716 149.714Z" fill="#F6874E"/>
<path d="M126.405 117.878C126.405 117.878 116.463 113.961 115.258 113.057C114.052 112.153 113.45 107.934 109.533 107.934C105.615 107.934 108.931 112.153 109.231 114.563C109.533 116.972 112.422 119.244 114.554 122.197C115.859 124.004 117.266 127.32 121.285 129.026C128.038 131.895 135.446 134.449 140.868 132.641C146.291 130.833 135.745 115.769 126.405 117.878Z" fill="#F6874E"/>
<path d="M132.028 107.799C132.028 107.799 133.034 119.985 134.841 120.889C136.649 121.793 141.168 122.395 141.168 122.395C141.168 122.395 135.443 126.01 132.731 122.395C130.02 118.782 132.028 107.799 132.028 107.799Z" fill="#CE6D3E"/>
<path d="M125.339 101.44C124.714 100.691 122.465 99.8152 120.089 100.94C117.715 102.065 117.715 102.316 117.839 104.69C117.964 107.063 117.839 111.938 118.588 112.689C119.337 113.438 121.713 114.314 123.087 112.689C124.46 111.064 125.087 108.191 125.087 105.814C125.09 103.438 125.963 102.189 125.339 101.44Z" fill="#F6874E"/>
<path d="M128.111 99.9674C127.441 99.1652 125.031 98.2259 122.488 99.4318C119.944 100.638 119.944 100.904 120.078 103.448C120.213 105.992 120.078 111.214 120.881 112.019C121.683 112.821 124.229 113.76 125.702 112.019C127.174 110.277 127.844 107.198 127.844 104.654C127.844 102.11 128.781 100.77 128.111 99.9674Z" fill="#CE6D3E"/>
<path d="M128.916 99.9674C128.245 99.1652 125.836 98.2259 123.292 99.4318C120.748 100.638 120.748 100.904 120.883 103.448C121.018 105.992 120.883 111.214 121.685 112.019C122.487 112.821 125.034 113.76 126.506 112.019C127.979 110.277 128.649 107.198 128.649 104.654C128.649 102.11 129.583 100.77 128.916 99.9674Z" fill="#F6874E"/>
<path d="M127.04 100.704C124.93 101.305 122.82 107.934 122.82 109.741C122.82 111.549 124.562 113.458 128.276 113.557C131.693 113.649 130.218 108.2 130.218 108.2C130.218 108.2 129.149 100.099 127.04 100.704Z" fill="#CE6D3E"/>
<path d="M145.085 122.999C145.085 122.999 144.684 113.356 143.78 110.947C142.876 108.538 139.261 106.126 135.042 103.717C130.822 101.308 130.221 100.102 128.111 100.703C126.001 101.305 123.892 107.934 123.892 109.741C123.892 111.549 124.694 112.354 128.411 112.453C131.828 112.544 131.289 108.2 131.289 108.2C131.289 108.2 132.627 109.741 132.93 114.56C133.232 119.378 134.338 126.614 145.085 122.999Z" fill="#F6874E"/>
<path d="M51.8833 163.139L67.7504 162.57L91.5536 162.469L97.2785 161.164L64.5364 159.356L51.8833 163.139Z" fill="#634874"/>
<path d="M57.4404 91.3641L73.9118 93.2706L103.437 81.4198L103.658 79.9905L89.1772 76.0986L57.4404 91.3641Z" fill="#634874"/>
<path d="M31.5933 55.0574L40.39 50.1754L40.6439 50.1704L51.7026 43.9733H51.9565L62.9289 37.6646L102.901 52.2953V65.9537L63.3325 53.4656L31.5933 69.6196V55.0574Z" fill="#29ACE4"/>
<path d="M63.3325 53.3311L31.5933 69.6196V55.0574L40.3925 50.1704H40.6439L51.7026 43.9733H51.9565L62.9289 37.6646" fill="#48598B"/>
<path d="M31.5933 69.6196L76.9909 77.3018L102.901 65.9537L63.3325 53.3311L51.9742 59.1575L51.7102 59.1498L40.6489 64.928L40.3874 64.9255L31.5933 69.6196Z" fill="#634874"/>
<path d="M42.4414 133.441L64.8584 136.393L101.294 127.967L87.5852 123.723L42.4414 133.441Z" fill="#634874"/>
<path d="M65.7421 94.9789L51.2129 87.9136L61.7258 80.7163L103.506 92.2346L65.7421 94.9789Z" fill="#634874"/>
<path d="M31.1924 106.228V120.087L65.4755 122.798L100.492 114.964L92.3582 106.931L102.701 104.519L80.2052 90.3584L63.1297 92.3665L31.1924 106.228Z" fill="#634874"/>
<path d="M31.5933 70.3738L62.9289 54.0015L77.7094 58.6702L77.7932 67.4949L91.4617 63.0114L103.64 66.8576V80.516L63.3325 69.6705L31.5933 84.936V70.3738Z" fill="#29ACE4"/>
<path d="M63.3325 69.6705L31.5933 84.936V70.3738L62.9289 54.0015" fill="#48598B"/>
<path d="M77.8031 67.4949L91.4539 63.042V77.3021L77.793 80.082L77.8031 67.4949Z" fill="#48598B"/>
<path d="M31.5933 84.9358L45.7899 85.5705L77.811 73.5623L63.3325 69.6704L31.5933 84.9358Z" fill="#634874"/>
<path d="M51.2129 76.4997V87.9139L63.2643 82.8593V70.6733L51.2129 76.4997Z" fill="#48598B"/>
<path d="M103.506 80.7851V92.2348L63.2642 82.9278V70.6733L103.506 80.7851Z" fill="#29ACE4"/>
<path d="M31.1924 96.5859V106.863L63.1297 94.8113V83.3286L31.1924 96.5859Z" fill="#48598B"/>
<path d="M63.1294 83.3286V94.8113L76.2877 97.9924V86.5427L63.1294 83.3286Z" fill="#29ACE4"/>
<path d="M89.8802 89.6885L89.5781 101.539L102.701 104.52V92.7705L89.8802 89.6885Z" fill="#29ACE4"/>
<path d="M31.2256 107.734V120.087L42.6753 114.964V103.215L31.2256 107.734Z" fill="#48598B"/>
<path d="M51.4136 100.402V111.851L63.1298 107.734V95.6821L51.4136 100.402Z" fill="#48598B"/>
<path d="M63.1294 95.6821L100.492 105.022V114.964L63.1294 107.734V95.6821Z" fill="#29ACE4"/>
<path d="M53.96 135.37V123.956L87.4586 113.164V125.799L53.96 135.37Z" fill="#48598B"/>
<path d="M87.415 113.169V125.774L101.294 127.985V115.908L87.415 113.169Z" fill="#29ACE4"/>
<path d="M29.8032 141.301L67.6202 147.425L89.6869 141.357L54.1167 133.015L29.8032 141.301Z" fill="#634874"/>
<path d="M40.3746 123.689L40.1055 138.584L63.83 142.207L64.0838 127.259L40.3746 123.689Z" fill="#29ACE4"/>
<path d="M41.0298 138.128L51.2304 135.447L69.9282 137.32L56.8106 140.029L41.0298 138.128Z" fill="#634874"/>
<path d="M30.0546 127.389L29.8032 141.301L40.2501 138.635L40.5192 123.677L30.0546 127.389Z" fill="#48598B"/>
<path d="M41.3446 123.758L41.0298 138.128L51.233 135.502L51.4361 120.537L41.3446 123.758Z" fill="#48598B"/>
<path d="M51.4053 120.552L51.1768 135.606L89.763 141.357L89.9712 128.681L51.4053 120.552Z" fill="#29ACE4"/>
<path d="M103.036 152.728L86.2294 157.447L60.2378 155.909L90.8829 150.953L103.036 152.728Z" fill="#634874"/>
<path d="M90.8833 138.684L103.036 140.362V152.728L90.8833 150.953V138.684Z" fill="#29ACE4"/>
<path d="M90.9336 138.701V150.953L70.8979 154.87V143.555L90.9336 138.701Z" fill="#48598B"/>
<path d="M77.6085 149.458L46.8619 155.876L31.9976 154.837L59.6317 146.66L77.6085 149.458Z" fill="#634874"/>
<path d="M64.0009 135.033V147.343L31.9976 154.837V143.286L64.0009 135.033Z" fill="#48598B"/>
<path d="M64.001 135.033V147.343L77.5578 149.534V137.262L64.001 135.033Z" fill="#29ACE4"/>
<path d="M101.162 164.378L74.5133 169.869L56.2344 164.815L89.7787 158.019L101.162 164.378Z" fill="#634874"/>
<path d="M51.8833 151.354V163.139L64.5948 160.194V147.975L51.8833 151.354Z" fill="#48598B"/>
<path d="M101.163 153.865V164.378L62.7974 160.796V148.577L101.163 153.865Z" fill="#29ACE4"/>
<path d="M33.269 165.886V177.803H64.0004L79.1008 174.99L79.0323 163.474L64.3356 161.768L33.269 165.886Z" fill="#48598B"/>
<path d="M60.52 167.825V178.719H88.6061L102.407 176.147L102.346 165.622L88.9133 164.063L60.52 167.825Z" fill="#48598B"/>
<path d="M89.1875 164.033V176.424L102.468 176.191V165.226L89.1875 164.033Z" fill="#29ACE4"/>
<path d="M64.6377 161.733V175.292L79.1669 175.036V163.04L64.6377 161.733Z" fill="#29ACE4"/>
<path d="M40.5171 50.1704V64.923" stroke="#29ACE4" stroke-miterlimit="10"/>
<path d="M51.8325 43.9731V59.1497" stroke="#29ACE4" stroke-miterlimit="10"/>
<path d="M89.8802 89.6885L76.3208 92.9355V98.9473L87.2856 101.707L89.5781 101.539L89.8802 89.6885Z" fill="#48598B"/>
<path d="M263.797 201.941C263.058 200.682 234.873 174.221 167.782 173.418C113.417 172.768 31.594 175.025 13.5156 181.052C13.5156 181.052 67.5501 178.039 101.295 186.074C135.04 194.109 157.421 198.689 173.809 200.738C186.665 202.345 210.1 204.487 215.723 204.889C242.207 206.78 213.076 195.059 242.406 200.436C260.484 203.749 264.65 203.396 263.797 201.941Z" fill="#866694"/>
<path d="M94.6662 188.684C94.6662 188.684 76.5879 181.855 46.057 183.863C9.61601 186.259 0.336914 181.375 0.336914 181.375C0.336914 181.375 10.3802 196.079 33.9473 191.987C65.9252 186.437 94.6662 188.684 94.6662 188.684Z" fill="#866694"/>
</svg>
