<svg width="327" height="327" viewBox="0 0 327 327" fill="none" xmlns="http://www.w3.org/2000/svg">
<rect width="327" height="327" rx="15" fill="#F5C466"/>
<mask id="mask0_103_2609" style="mask-type:alpha" maskUnits="userSpaceOnUse" x="0" y="0" width="327" height="327">
<rect width="327" height="327" rx="15" fill="#F5C466"/>
</mask>
<g mask="url(#mask0_103_2609)">
<path d="M133.791 224.493L125.181 222.981C121.008 222.249 117.892 218.787 116.971 214.651V214.651C116.05 210.51 117.425 206.116 120.898 203.68L128.035 198.674C128.913 198.063 129.126 196.841 128.51 195.969L110.454 170.242C109.843 169.36 108.626 169.146 107.753 169.767L100.624 174.77C97.1477 177.209 92.5393 177.002 88.9544 174.725V174.725C85.382 172.456 83.1948 168.352 83.9265 164.184L85.4402 155.56C85.6245 154.518 84.9117 153.505 83.8596 153.32L52.8915 147.885C51.8394 147.701 50.8309 148.414 50.6467 149.451L49.1349 158.063C48.402 162.238 44.9422 165.358 40.8045 166.279V166.279C36.6588 167.202 32.2581 165.823 29.82 162.346L24.8181 155.211C24.2169 154.329 22.9999 154.116 22.1223 154.736L-3.61407 172.783C-4.49652 173.394 -4.70985 174.615 -4.08923 175.488L0.922603 182.63C3.35824 186.101 3.15935 190.698 0.883364 194.276V194.276C-1.39295 197.854 -5.50707 200.05 -9.6841 199.317L-18.2908 197.806C-19.3381 197.622 -20.3514 198.325 -20.5357 199.382L-25.971 230.35C-26.1552 231.397 -25.4425 232.421 -24.3952 232.605L-15.7817 234.117C-11.6091 234.849 -8.49415 238.307 -7.57237 242.442V242.442C-6.65 246.579 -8.02401 250.975 -11.4957 253.408L-18.6399 258.414C-19.5223 259.039 -19.7357 260.242 -19.1151 261.124L-1.05885 286.856C-0.443079 287.729 0.773919 287.942 1.63697 287.331L8.7808 282.323C12.2528 279.89 16.8484 280.083 20.4269 282.358V282.358C24.0096 284.635 26.2043 288.754 25.4709 292.936L23.9648 301.523C23.7805 302.57 24.4884 303.579 25.5406 303.763L56.5086 309.198C57.5607 309.382 58.5741 308.674 58.7535 307.627L60.2603 299.036C60.9932 294.858 64.4569 291.733 68.5983 290.811V290.811C72.7359 289.889 77.1233 291.269 79.5594 294.738L84.5723 301.877C85.1832 302.745 86.4002 302.958 87.273 302.352L113.009 284.305C113.887 283.694 114.1 282.482 113.485 281.6L108.477 274.457C106.042 270.985 106.249 266.381 108.524 262.802V262.802C110.797 259.228 114.902 257.042 119.073 257.774L127.686 259.287C128.733 259.471 129.747 258.748 129.931 257.701L135.366 226.733C135.546 225.676 134.838 224.677 133.791 224.493ZM49.0805 260.552C31.4025 257.449 19.5816 240.605 22.6847 222.922C25.7878 205.244 42.6319 193.423 60.3147 196.526C77.9928 199.629 89.8136 216.473 86.7105 234.156C83.6074 251.834 66.7585 263.655 49.0805 260.552Z" fill="#F4E8D8" fill-opacity="0.3"/>
<path d="M346.916 66.4142L331.771 68.7006C325.162 69.6983 318.786 66.1424 315.376 60.3942C315.142 59.999 314.905 59.6055 314.666 59.2139C311.176 53.5011 311.001 46.1863 314.974 40.7984L324.04 28.503C325.107 27.0678 324.797 25.0168 323.352 23.955L281.009 -7.26034C279.569 -8.33673 277.528 -8.02642 276.475 -6.57668L267.418 5.70262C263.439 11.098 256.384 13.0887 249.885 11.441C249.447 11.3297 249.007 11.2212 248.566 11.1155C242.069 9.55705 236.791 4.51679 235.793 -2.08968L233.502 -17.2533C233.24 -18.9988 231.572 -20.2303 229.808 -19.9637L177.772 -12.0992C176.007 -11.8326 174.781 -10.1646 175.047 -8.41915L177.338 6.74586C178.336 13.3517 174.785 19.728 169.04 23.138C168.636 23.3777 168.234 23.6199 167.834 23.8647C162.128 27.3539 154.82 27.5233 149.438 23.5533L137.131 14.476C135.706 13.3996 133.665 13.7099 132.603 15.1596L101.368 57.4879C100.297 58.9279 100.607 60.9789 102.057 62.0359L114.364 71.1087C119.748 75.0783 121.745 82.1113 120.099 88.5953C119.986 89.0395 119.876 89.4847 119.769 89.9309C118.207 96.4342 113.162 101.722 106.549 102.721L91.409 105.009C89.6441 105.276 88.4126 106.924 88.6793 108.704L96.5389 160.734C96.8055 162.489 98.4734 163.74 100.238 163.474L115.374 161.186C121.989 160.186 128.373 163.75 131.788 169.503C132.019 169.891 132.252 170.277 132.487 170.662C135.977 176.372 136.148 183.684 132.173 189.068L123.1 201.361C122.033 202.82 122.338 204.842 123.788 205.918L166.131 237.133C167.571 238.186 169.617 237.88 170.659 236.45L179.753 224.129C183.716 218.76 190.726 216.761 197.193 218.403C197.657 218.521 198.123 218.636 198.589 218.748C205.084 220.305 210.358 225.349 211.355 231.953L213.642 247.097C213.909 248.853 215.572 250.084 217.332 249.817L269.362 241.958C271.127 241.691 272.359 240.028 272.092 238.268L269.805 223.124C268.808 216.52 272.357 210.143 278.101 206.735C278.508 206.493 278.914 206.249 279.317 206.002C285.013 202.521 292.303 202.359 297.676 206.32L309.999 215.402C311.429 216.459 313.475 216.149 314.532 214.718L345.767 172.385C346.833 170.95 346.528 168.909 345.078 167.837L332.781 158.762C327.397 154.789 325.404 147.751 327.052 141.265C327.164 140.821 327.274 140.377 327.381 139.931C328.942 133.435 333.985 128.158 340.591 127.161L355.74 124.874C357.5 124.607 358.722 122.925 358.456 121.169L350.596 69.1391C350.334 67.3597 348.671 66.1475 346.916 66.4142ZM232.523 174.203C199.785 179.149 169.239 156.618 164.293 123.885C159.348 91.1469 181.879 60.6007 214.612 55.6551C247.35 50.7096 277.896 73.241 282.842 105.974C287.787 138.712 265.261 169.258 232.523 174.203Z" fill="#F4E8D8" fill-opacity="0.3"/>
<path d="M16.4448 199.247C17.3806 199.247 17.3806 197.792 16.4448 197.792C15.509 197.792 15.509 199.247 16.4448 199.247Z" fill="#F4E8D8" fill-opacity="0.3"/>
<path d="M206.929 206.295C207.891 206.504 208.819 206.654 209.791 206.808C230.243 210.056 276.493 251.122 309.291 286.031C352.755 332.295 406.144 381.395 428 391.189C440.45 396.771 453.586 403.14 465.376 408.396C477.374 413.746 483.335 434.863 474.238 444.339C455.274 464.094 429.71 490.26 415.844 502.491C392.002 523.521 404.632 481.462 373.785 502.491C349.488 519.055 311.851 561.105 296.963 578.215C293.053 582.708 286.91 584.461 281.519 581.929C270.367 576.692 249.637 564.927 223.283 540.758C170.78 492.615 87.2771 280.431 98.9614 243.511C110.384 207.443 185.98 201.754 206.929 206.295Z" fill="#992C29"/>
<path d="M278.315 261.002C266.129 249.276 269.195 244.045 281.732 255.396C291.915 264.617 301.845 274.329 310.697 283.75C354.161 330.015 412.925 380.001 434.864 389.63C450.716 396.581 477.024 407.902 497.425 415.293C505.6 418.254 508.68 433.676 501.67 438.818V438.818C499.978 440.059 497.938 440.672 495.856 440.415C483.341 438.865 436.468 430.42 398.098 388.389C365.349 352.521 319.562 300.695 278.315 261.002Z" fill="#29ACE4"/>
<path d="M121.719 235.982C119.652 235.379 117.538 234.952 115.385 234.952C103.949 234.952 65.2764 234.412 45.6436 227.384C22.4404 219.079 28.9737 130.755 75.132 119.118C127.871 105.816 191.243 134.229 226.295 157.066C261.348 179.903 247.112 214.058 196.382 230.149C155.089 243.237 130.02 238.406 121.719 235.982Z" fill="#229BC6"/>
<path d="M229.072 189.413C229.072 217.768 136.885 219.197 108.779 219.197C80.6729 219.197 57.8832 196.207 57.8832 167.852C57.8832 139.498 80.6729 116.508 108.779 116.508C136.885 116.508 229.072 161.059 229.072 189.413Z" fill="#992C29"/>
<path d="M247.828 253.25C248.962 254.271 249.737 255.589 250.34 256.99C254.678 267.061 273.393 310.515 277.782 320.846C287.044 342.644 267.976 353.548 254.898 342.644C241.819 331.739 215.663 281.056 210.76 269.076C206.031 257.538 233.603 240.443 247.828 253.25Z" fill="#CE6D3E"/>
<path d="M254.76 268.294C255.88 268.907 256.429 270.225 256.932 271.398C260.327 279.319 274.136 311.582 277.888 321.153C282.957 334.09 268 341.639 261.301 333.724C253.563 324.587 247.211 264.164 254.76 268.294Z" fill="#F6874E"/>
<path d="M199.772 206.331C208.09 201.18 227.619 211.352 239.019 232.83C241.888 238.234 244.285 242.924 246.278 246.946C250.567 255.604 241.72 263.861 234.542 270.329V270.329C233.326 271.423 232.14 272.533 230.992 273.643C222.999 281.362 209.15 279.857 204.527 269.752C201.272 262.638 197.86 254.889 195.295 248.342C188.998 232.204 189.033 212.994 199.772 206.331Z" fill="#C93F37"/>
<path d="M338.602 410.422C344.225 425.474 330.155 431.298 321.743 424.741C313.331 418.196 296.768 394.461 277.416 373.42C255.134 349.212 247.041 337.339 261.23 326.978C275.419 316.605 276.081 317.633 298.93 350.169C314.631 372.522 335.944 403.334 338.602 410.422Z" fill="#CE6D3E"/>
<path d="M320.821 387.502C310.586 402.348 271.648 349.519 269.004 345.898C268.903 345.76 268.805 345.63 268.701 345.495C255.713 328.761 257.122 328.709 263.487 324.591C276.423 318.046 276.648 318.98 291.924 340.092C303.962 356.726 324.153 382.658 320.821 387.502Z" fill="#F6874E"/>
<path d="M234.932 149.375C232.333 186.081 200.044 191.622 162.723 194.954C140.288 196.962 116.387 188.125 100.875 172.802C90.5851 162.642 83.981 149.623 83.9573 135.032C83.8865 98.4433 125.165 65.7769 162.487 62.4452C199.796 59.1136 237.72 109.939 234.932 149.375Z" fill="#273150"/>
<path d="M163.995 73.3899C174.696 57.8159 175.973 40.1075 166.846 33.8371C157.72 27.5666 141.648 35.1087 130.947 50.6827C120.246 66.2567 118.969 83.9652 128.096 90.2356C137.222 96.506 153.294 88.964 163.995 73.3899Z" fill="#273150"/>
<path d="M133.591 52.9155C135.033 34.5595 128.567 19.0793 119.148 18.3395C109.729 17.5997 100.925 31.8806 99.4834 50.2366C98.0417 68.5926 104.508 84.0727 113.927 84.8125C123.346 85.5523 132.15 71.2715 133.591 52.9155Z" fill="#273150"/>
<path d="M133.548 108.853C140.889 88.7427 134.666 67.9961 119.649 62.5146C104.632 57.033 86.5069 68.8923 79.1661 89.0029C71.8253 109.114 78.0482 129.86 93.0653 135.342C108.082 140.823 126.207 128.964 133.548 108.853Z" fill="#273150"/>
<path d="M114.573 188.459C135.502 178.474 144.455 153.586 134.571 132.869C124.687 112.153 99.7081 103.454 78.7798 113.439C57.8515 123.424 48.8984 148.313 58.7826 169.029C68.6667 189.745 93.6452 198.445 114.573 188.459Z" fill="#273150"/>
<path d="M214.916 132.656C230.855 119.037 230.709 92.7036 214.59 73.8376C198.471 54.9715 172.482 50.7175 156.543 64.3359C140.604 77.9543 140.75 104.288 156.869 123.154C172.988 142.02 198.977 146.274 214.916 132.656Z" fill="#273150"/>
<path d="M234.625 147.189C232.51 177.15 206.152 181.663 175.707 184.38C157.395 186.011 137.889 178.804 125.236 166.304C116.836 158.011 111.461 147.39 111.437 135.481C111.378 105.626 145.061 78.9733 175.518 76.2442C205.951 73.5388 236.893 115.019 234.625 147.189Z" fill="#48598B"/>
<path d="M162.621 78.5003C171.814 65.1204 172.906 49.9036 165.06 44.5125C157.213 39.1215 143.4 45.5978 134.207 58.9777C125.014 72.3576 123.922 87.5744 131.768 92.9654C139.614 98.3565 153.427 91.8802 162.621 78.5003Z" fill="#48598B"/>
<path d="M131.399 64.1272C132.382 51.6123 127.975 41.0582 121.555 40.5539C115.135 40.0497 109.133 49.7863 108.15 62.3011C107.167 74.816 111.575 85.3701 117.995 85.8743C124.415 86.3786 130.416 76.6421 131.399 64.1272Z" fill="#48598B"/>
<path d="M140.955 108.886C148.725 87.5982 144.565 66.5234 131.662 61.8137C118.76 57.1041 102.001 70.543 94.2308 91.8306C86.4604 113.118 90.6208 134.193 103.523 138.903C116.426 143.612 133.184 130.173 140.955 108.886Z" fill="#48598B"/>
<path d="M123.869 180.809C141.853 172.229 149.546 150.842 141.053 133.04C132.559 115.239 111.095 107.764 93.1112 116.344C75.1272 124.925 67.4336 146.312 75.927 164.113C84.4204 181.915 105.885 189.39 123.869 180.809Z" fill="#48598B"/>
<path d="M207.607 132.849C221.304 121.146 221.178 98.517 207.327 82.305C193.475 66.093 171.143 62.4373 157.446 74.1399C143.749 85.8425 143.875 108.472 157.726 124.684C171.578 140.896 193.91 144.551 207.607 132.849Z" fill="#48598B"/>
<path d="M207.405 335.166C187.45 356.1 128.568 334.421 126.075 314.538C125.012 306.079 121.952 286.432 112.985 250.564C107.373 228.128 106.44 220.78 108.933 217.625C115.478 209.344 140.11 206.402 165.334 202.586C206.932 196.277 209.885 206.236 223.602 225.565C240.307 249.134 246.663 293.981 207.405 335.166Z" fill="#F6BE4A"/>
<path d="M139.626 251.911C119.672 272.845 128.568 334.421 126.075 314.538C125.012 306.079 121.952 286.432 112.985 250.564C107.373 228.128 106.44 220.78 108.933 217.626C115.478 209.344 140.11 206.402 165.334 202.586C206.932 196.277 209.85 206.107 224.346 226.321C241.17 249.796 178.885 210.726 139.626 251.911Z" fill="#D09435"/>
<path d="M127.942 294.914C124.823 306.599 125.402 336.43 126.382 318.59C126.734 312.26 119.142 276.641 115.235 258.834C113.965 253.045 117.203 247.216 122.795 245.252L142.082 238.479C149.864 235.747 155.771 245.681 149.654 251.214V251.214C144.524 255.853 132.379 276.784 130.783 283.514C129.839 287.494 128.851 291.509 127.942 294.914Z" fill="#D09435"/>
<path d="M119.531 324.826C119.523 324.839 119.538 324.817 119.529 324.829C119.239 325.236 36.7489 440.8 30.8876 456.026C30.5029 457.026 30.0615 458.045 29.5726 459.078C24.756 469.256 41.599 487.404 52.8548 487.088V487.088C61.7449 486.839 58.6419 473.139 66.5212 469.014C67.1827 468.668 67.9392 468.338 68.7996 468.029C84.3708 462.429 119.908 461.815 140.796 462.169C165.551 462.601 191.858 464.749 215.91 469.518C232.647 472.836 278.014 437.854 272.971 421.554C257.914 372.885 236.592 319.117 211.788 299.995C163.697 262.902 119.82 324.42 119.531 324.826Z" fill="#F6BE4A"/>
<path d="M218.616 235.323V235.323C223.665 238.067 229.569 234.656 226.436 229.839C226.103 229.328 225.758 228.817 225.398 228.306C223.875 226.143 221.219 225.406 218.18 225.466C212.411 225.58 213.543 232.573 218.616 235.323V235.323Z" fill="#D09435"/>
<path d="M208.74 316.984C196.417 327.179 135.964 324.982 145.084 299.026C149.444 286.597 177.006 271.345 196.807 269.065C229.45 265.308 235.44 294.915 208.74 316.984Z" fill="#FEED7F"/>
<path d="M267.847 447.997C266.971 453.947 261.463 457.248 255.468 456.765L149.444 448.216C120.534 448.216 82.1379 395.867 91.4948 380.911C99.4732 368.141 128.808 331.302 137.217 320.801C138.717 318.928 139.716 316.744 140.257 314.406C144.434 296.372 152.13 283.217 178.937 283.078C179.22 283.076 179.502 283.084 179.783 283.11C183.571 283.465 212.377 287.201 225.49 319.524C225.907 320.552 226.412 321.557 227.011 322.492C232.582 331.186 262.164 378.744 267.232 415.975C269.279 430.994 268.822 441.367 267.847 447.997Z" fill="#FEED7F"/>
<path d="M122.215 336.736C123.387 336.568 124.352 335.815 125.045 334.855C125.268 334.547 125.526 334.197 125.82 333.809C129.293 329.225 124.784 320.807 121.397 325.454V325.454C113.104 336.833 118.951 337.206 122.215 336.736Z" fill="#F6BE4A"/>
<path d="M176.298 223.556L173.58 223.969C166.693 225.021 160.254 220.295 159.202 213.407L155.185 187.168C154.134 180.28 158.86 173.841 165.747 172.79L168.465 172.376C175.352 171.325 181.791 176.051 182.843 182.938L186.859 209.178C187.923 216.066 183.185 222.504 176.298 223.556Z" fill="#F6874E"/>
<path d="M172.458 192.721L167.921 193.418C161.53 194.398 155.563 190.015 154.583 183.624L150.294 155.565C149.314 149.173 153.697 143.207 160.088 142.227L164.625 141.53C171.017 140.549 176.983 144.932 177.963 151.324L182.252 179.382C183.232 185.774 178.849 191.752 172.458 192.721Z" fill="#CE6D3E"/>
<path d="M78.8654 263.133C70.9144 283.076 58.0841 318.708 54.4926 324.757C50.901 330.806 50.7828 340.044 60.3524 344.77C69.9101 349.508 77.1287 347.121 81.4409 341.982C85.7531 336.843 110.339 295.221 115.478 278.551C119.518 265.461 116.789 251.095 109.712 247.704C102.636 244.313 86.8164 243.191 78.8654 263.133Z" fill="#F6874E"/>
<path d="M78.8654 263.133C70.9144 283.076 58.0841 318.708 54.4925 324.757C53.3938 326.611 52.614 329.01 52.4841 330.321C52.2005 333.263 54.3389 333.523 57.3279 329.967C59.6908 327.155 77.0578 291.889 83.0712 272.431C88.0214 256.399 82.4569 254.119 78.8654 263.133Z" fill="#CE6D3E"/>
<path d="M122.023 215.77C111.65 212.179 97.5673 217.79 87.7496 241.632C86.2432 245.294 84.5649 249.319 82.9442 253.182C79.1625 262.195 84.7535 272.928 93.7594 276.726C95.1512 277.313 96.6031 277.955 98.1082 278.658C106.094 282.389 115.936 279.722 119.518 271.668C120.996 268.347 122.521 264.767 123.89 261.267C133.861 235.713 130.127 218.57 122.023 215.77Z" fill="#EC5E4D"/>
<path d="M122.023 215.77C111.65 212.179 97.5673 217.79 87.7496 241.632C84.334 249.936 80.0351 260.105 77.5263 266.014C76.4462 268.558 77.9546 271.455 80.658 272.03V272.03C81.9865 272.313 83.371 271.965 84.4079 271.088L95.9825 261.294C97.6415 259.891 99.5856 258.864 101.68 258.286L119.017 253.501C123.99 252.129 128.03 248.312 129.022 243.25C132.176 227.155 128.266 217.936 122.023 215.77Z" fill="#C93F37"/>
<path d="M-4.66101 397.576C-4.93088 397.907 -5.18779 398.193 -5.47483 398.509C-7.37113 400.597 -14.6901 409.181 -11.8209 414.321C-8.72561 419.838 2.35617 424.339 10.2599 417.924C18.1637 411.509 43.5643 394.839 77.3294 349.437C91.731 330.085 63.7549 316.605 52.5786 328.833C41.9941 340.413 -0.219888 392.132 -4.66101 397.576Z" fill="#F6874E"/>
<path d="M22.2007 365.587C18.6332 370.002 23.8324 376.006 28.726 373.13V373.13C29.4321 372.715 30.0283 372.136 30.4644 371.443L55.3317 331.913C57.1317 329.052 54.8286 326.322 52.5786 328.845V328.845C46.646 335.496 33.28 351.877 22.2007 365.587Z" fill="#CE6D3E"/>
<path d="M88.8708 269.763C92.0112 268.319 90.7256 264.868 87.7733 266.666V266.666C85.582 268.001 84.3507 269.11 83.6751 269.987C82.7228 271.224 84.0758 271.969 85.4938 271.317L88.8708 269.763Z" fill="#C93F37"/>
<path d="M178.725 211.856C187.715 215.15 187.172 226.036 178.4 229.875C140.416 246.499 82.5147 252.436 82.7286 251.804C85.1608 244.485 101.269 208.835 118.258 204.208C119.098 203.98 119.961 203.919 120.83 203.92C131.072 203.93 158.606 204.484 178.725 211.856Z" fill="#229BC6"/>
<path d="M206.778 202.066C195.567 199.573 172.493 218.063 171.241 223.048C169.989 228.034 208.799 220.295 279.377 261.893C303.62 276.177 224.842 206.425 206.778 202.066Z" fill="#29ACE4"/>
<path d="M180.763 223.84C182.551 223.84 184 222.39 184 220.602C184 218.815 182.551 217.365 180.763 217.365C178.976 217.365 177.526 218.815 177.526 220.602C177.526 222.39 178.976 223.84 180.763 223.84Z" fill="#273150"/>
<path d="M210.169 52.261C213.713 53.4543 213.3 71.0693 204.486 69.9115C196.193 68.8246 187.072 66.2845 189.86 61.169C192.637 56.0652 206.625 51.0678 210.169 52.261Z" fill="#C93F37"/>
<path d="M211.144 57.7984C211.134 57.9259 211.118 58.0477 211.1 58.1743C210.894 59.5859 209.46 68.6814 206.66 69.0845C203.612 69.5098 206.27 64.5124 206.967 57.5538C207.654 50.6954 211.497 53.4313 211.144 57.7984Z" fill="#F7BC4B"/>
<path d="M190.976 63.8151C189.679 64.6662 189.564 66.5051 190.782 67.4655C195.698 71.3416 207.404 79.9739 218.663 83.8051C225.857 86.2511 231.969 87.1883 235.402 87.5454C236.612 87.6713 237.32 86.3453 236.595 85.3676V85.3676C236.133 84.7427 236.238 83.8652 236.836 83.3682L236.996 83.2357C238.202 82.2325 237.515 80.0851 235.96 79.8675C228.671 78.8469 213.201 75.4002 193.467 63.767C192.696 63.3126 191.724 63.3242 190.976 63.8151V63.8151Z" fill="#C93F37"/>
<path d="M198.964 69.166C197.469 69.7635 196.956 71.6022 197.974 72.8503C201.824 77.5707 210.835 87.8201 220.684 93.4338C227.14 97.1133 232.927 99.0904 236.166 100.02C237.321 100.351 238.271 99.2238 237.809 98.1145V98.1145C237.511 97.3971 237.809 96.5705 238.496 96.2078L238.664 96.1189C240.099 95.3615 239.833 93.0097 238.295 92.4924C231.326 90.1479 217.387 84.0845 201.563 69.6516C200.861 69.011 199.847 68.8134 198.964 69.166V69.166Z" fill="#C93F37"/>
<path d="M118.032 141.66C125.224 136.723 126.497 126.083 120.876 117.896C115.256 109.709 104.869 107.075 97.677 112.013C90.4851 116.951 89.2116 127.59 94.8324 135.777C100.453 143.964 110.84 146.598 118.032 141.66Z" fill="#CE6D3E"/>
<path d="M168.465 68.3875C172.411 75.3342 159.072 83.6751 144.848 91.7561C130.635 99.837 115.903 100.759 111.957 93.7999C108.011 86.8531 116.328 74.6608 130.541 66.5799C144.765 58.5107 164.519 61.4407 168.465 68.3875Z" fill="#273150"/>
<path d="M105.258 116.944C105.778 74.7789 140.075 62.244 148.593 60.6136C191.077 52.4618 210.193 77.638 218.309 122.201C224.24 154.761 204.971 163.906 185.69 171.266C162.487 180.127 104.62 169.612 105.258 116.944Z" fill="#CE6D3E"/>
<path d="M119.27 130.542C121.298 102.135 145.812 90.303 156.523 86.9054C158.667 86.2255 160.919 86.2839 163.098 86.8369C173.035 89.3583 202.442 97.1214 209.023 102.294C216.157 107.902 218.069 125.388 218.387 128.923C218.425 129.347 218.475 129.772 218.535 130.194C221.936 154.06 204.759 161.742 187.627 168.112C166.858 175.826 116.423 170.415 119.27 130.542Z" fill="#F6874E"/>
<path d="M132.219 76.1022V76.1022C144.681 66.7784 147.007 52.6685 133.649 60.657C130.976 62.2557 128.302 64.2048 125.65 66.5563C123.24 68.6929 121.098 70.8083 119.199 72.8985C115.276 77.2176 127.547 79.5987 132.219 76.1022V76.1022Z" fill="#F6BE4A"/>
<path d="M153.898 113.754C156.351 113.314 157.674 109.245 156.853 104.666C156.032 100.087 153.378 96.7315 150.924 97.1715C148.471 97.6114 147.148 101.68 147.969 106.259C148.79 110.838 151.445 114.194 153.898 113.754Z" fill="#273252"/>
<path d="M196.438 107.795C198.488 107.365 199.44 103.631 198.564 99.4548C197.688 95.2784 195.316 92.2414 193.266 92.6714C191.216 93.1014 190.264 96.8356 191.14 101.012C192.016 105.188 194.388 108.225 196.438 107.795Z" fill="#273252"/>
<path d="M150.578 81.6311C150.578 81.6311 144.588 82.7298 143.241 88.188" stroke="#273252" stroke-miterlimit="10" stroke-linecap="round" stroke-linejoin="round"/>
<path d="M195.673 80.1308C195.673 80.1308 191.762 76.7756 187.71 77.3426" stroke="#273252" stroke-miterlimit="10" stroke-linecap="round" stroke-linejoin="round"/>
</g>
</svg>
