<svg width="327" height="327" viewBox="0 0 327 327" fill="none" xmlns="http://www.w3.org/2000/svg">
<rect width="327" height="327" rx="15" fill="#68A3A2"/>
<mask id="mask0_103_2605" style="mask-type:alpha" maskUnits="userSpaceOnUse" x="0" y="0" width="327" height="327">
<rect width="327" height="327" rx="15" fill="#C94039"/>
</mask>
<g mask="url(#mask0_103_2605)">
<path d="M115.888 241.401C127.584 214.41 95.2678 189.823 64.4731 179.214C20.7601 164.163 15.5846 156.135 -2.33255 146.817C-24.3385 135.365 -43.0028 131.154 -56.3422 141.193C-69.668 151.231 -72.5614 168.619 -64.6691 176.199C-46.0456 194.116 -37.1617 198.109 -13.4578 215.049C29.9564 246.061 53.1441 252.798 67.1763 262.185C90.69 277.928 101.897 273.69 115.888 241.401Z" fill="#A86243"/>
<path d="M125.03 245.545C136.726 218.553 -37.1753 198.11 -13.4714 215.035C29.9428 246.047 53.1305 252.785 67.1627 262.171C90.69 277.929 111.052 277.833 125.03 245.545Z" fill="#D77E5B"/>
<path d="M-30.2476 107.682C-39.702 121.333 -54.7665 144.806 -42.0112 157.575C-32.8149 166.772 -36.7678 175.995 -23.1703 169.393C-7.88845 161.963 1.56597 127.229 1.97349 126.4C9.15937 111.852 -20.6845 93.8939 -30.2476 107.682Z" fill="#7A4630"/>
<path d="M26.0081 29.9931C25.2086 30.3713 24.4637 30.8307 23.7576 31.3633C15.652 37.4771 -38.2592 78.3482 -53.2587 95.13C-69.3149 113.102 -83.2926 135.026 -73.9876 159.722C-68.3367 174.718 -61.8436 184.865 -41.7395 178.345C-18.6604 170.86 -0.892659 138.218 8.41232 117.435C20.8959 89.6014 36.925 75.5556 46.393 65.8431C58.3837 53.5438 57.6212 15.0362 26.0081 29.9931Z" fill="#A86243"/>
<path d="M101.82 23.9238C107.001 22.4205 112.237 26.1177 112.553 31.503L112.656 33.2434C112.877 37.0108 110.429 40.4183 106.788 41.4113V41.4113C103.328 42.355 99.6629 40.8742 97.8294 37.7913L96.9382 36.2929C94.1266 31.5656 96.5379 25.4565 101.82 23.9238V23.9238Z" fill="#273150"/>
<path d="M15.8981 60.3291C13.9737 56.5865 14.8191 52.1298 17.0526 48.563L25.0046 35.8642C26.7537 33.071 29.3668 30.9307 32.479 29.8466C41.5985 26.6697 61.731 20.0943 74.6882 19.1417C84.1242 18.448 91.3196 20.5724 95.8899 22.6291C99.7532 24.3677 101.731 28.3753 101.917 32.6078L103.079 59.092C103.242 62.8276 100.769 66.2236 97.387 66.9299L93.0224 67.8387C92.4118 67.9659 91.7876 68.0149 91.1646 67.9848L88.4138 67.8516C85.9418 67.7319 83.8273 69.6095 83.6537 72.0782V72.0782C83.5042 74.306 82.0779 76.2485 80.1083 76.9277L69.4449 80.5818L57.0323 83.2917C54.7611 83.7875 52.382 83.7948 50.2586 82.8486C46.82 81.3163 42.0538 78.2196 42.8747 73.0291C44.0229 65.7699 24.8403 77.7195 15.8981 60.3291Z" fill="#A86243"/>
<path d="M3.02545 50.3907C-0.806343 51.6987 -2.4722 56.1944 -0.41798 59.6835L2.66211 64.915C5.35593 69.4904 10.8638 71.5842 15.9168 69.9537L36.6125 63.2755C39.1527 62.4605 40.5382 58.9694 39.5466 55.8723C38.4191 52.3405 35.3356 50.5338 32.483 51.7156L16.9678 56.0523C14.381 56.7753 11.656 55.4872 10.5729 53.0293V53.0293C9.44289 50.465 6.53913 49.1913 3.88718 50.0966L3.02545 50.3907Z" fill="#273150"/>
<path d="M-25.8871 -17.8475C-50.8065 -8.50274 -144.361 19.956 -174.216 28.9907C-179.854 30.697 -183.786 35.5512 -183.503 41.4351C-183.109 49.592 -181.856 60.0789 -179.664 64.7482C-178.896 66.3856 -177.497 67.6509 -176.043 68.7259C-168.938 73.976 -140.202 87.6181 -46.9828 67.7447C66.5791 43.5308 182.641 -1.08683 211.93 -12.7013C216.188 -14.3898 218.779 -18.5967 218.505 -23.169V-23.169C217.915 -33.009 198.614 -49.3912 188.816 -48.3102C130.007 -41.8223 -2.8445 -26.4924 -25.8871 -17.8475Z" fill="#B44C29"/>
<path d="M-34.5808 -38.101C-64.6284 -27.6957 -166.902 4.70189 -181.79 27.4414C-193.417 45.2091 -153.671 61.5505 -9.77659 28.0662C134.118 -5.41813 191.184 -35.4114 212.266 -45.3277C233.348 -55.2575 184.351 -68.0671 93.597 -72.8215C72.8136 -73.9218 29.9292 -60.433 -34.5808 -38.101Z" fill="#F08650"/>
<path d="M45.3741 -29.4618C48.9195 -24.2727 40.6333 -16.0273 22.2678 -9.61567C-4.09855 -0.419365 -39.3624 1.48238 -43.6141 -9.1674C-47.6214 -19.2195 -19.2718 -30.9967 7.81452 -34.4606C27.158 -36.9465 41.9238 -34.5014 45.3741 -29.4618Z" fill="#B44C29"/>
<path d="M252.121 206.164C257.406 187.649 285.945 198.761 300.195 207.713C322.866 221.935 320.489 232.504 335.853 240.518C363.605 254.999 440.394 308.03 419.434 332.169C398.488 356.307 363.319 334.845 335.88 317.743C316.237 305.503 281.381 279.287 261.766 260.092C253.602 252.105 246.837 224.679 252.121 206.164Z" fill="#A86243"/>
<path d="M414.639 367.582C424.746 351.023 435.124 336.108 421.404 319.522C399.914 293.563 383.057 307.772 368.617 325.553C354.422 343.049 354.49 348.891 341.531 366.495C329.344 383.045 306.644 406.342 303.682 409.365C303.463 409.588 303.255 409.785 303.027 409.999C300.365 412.5 282.856 429.774 292.235 442.986C302.925 458.064 310.478 458.227 322.309 451.775C339.575 442.375 407.032 380.052 414.639 367.582Z" fill="#A86243"/>
<path d="M120.344 195.86C119.922 195.921 119.51 195.997 119.129 196.189C117.059 197.232 110.126 202.509 107.779 226.962C106.543 239.826 95.9476 299.283 96.7083 340.374C97.2829 371.249 95.7982 409.09 94.658 432.281C94.1465 442.685 104.126 450.794 114.326 448.677C128.986 445.633 150.598 441.955 176.609 439.958C222.139 436.463 276.557 453.564 285.094 456.364C285.886 456.624 286.682 456.852 287.516 456.87C304.494 457.239 285.056 401.342 280.757 379.74C275.608 353.863 282.876 307.053 278.61 272.156C272.185 219.681 263.206 209.14 262.133 204.834C259.783 195.379 229.396 195.094 208.911 192.16C179.226 187.935 142.45 192.681 120.344 195.86Z" fill="#29ACE4"/>
<path d="M94.3579 271.196C94.7783 268.047 96.987 265.473 100.074 264.724C119.833 259.929 194.143 244.086 255.794 260.164C258.791 260.946 261.022 263.418 261.61 266.459V266.459C262.828 272.762 256.646 278.253 250.425 276.667C224.618 270.088 166.453 259.84 105.313 279.987C99.5576 281.883 93.5562 277.202 94.3579 271.196V271.196Z" fill="#3D4C6D"/>
<path d="M92.412 296.495C92.1452 292.2 94.8968 288.331 99.0859 287.346C122.007 281.957 195.789 267.077 255.719 282.628C258.763 283.418 261.028 285.929 261.624 289.017V289.017C262.849 295.352 256.707 300.9 250.428 299.415C224.603 293.307 166.355 284.035 104.987 304.687C99.1249 306.66 92.7954 302.669 92.412 296.495V296.495Z" fill="#3D4C6D"/>
<path opacity="0.5" d="M120.344 195.86C119.922 195.921 119.51 195.997 119.129 196.189C117.059 197.232 110.126 202.509 107.779 226.962C106.99 235.173 102.388 262.365 99.3602 291.648C97.84 306.347 124.784 320.868 138.965 325.027C191.807 340.526 263.255 439.172 292.289 441.697C302.831 442.607 280.2 402.167 279.059 362.937C277.909 323.345 282.909 287.978 284.294 279.066C284.519 277.619 284.551 276.146 284.363 274.694C277.793 224.003 263.205 209.106 262.147 204.847C259.797 195.393 229.41 195.108 208.925 192.174C179.227 187.935 142.45 192.681 120.344 195.86Z" fill="#29ACE4"/>
<path d="M229.029 194.415C229.182 194.406 229.302 194.438 229.393 194.501C231.182 195.735 228.216 198.404 226.53 199.775C215.675 208.601 194.619 220.415 175.726 220.415C155.527 220.415 138.52 219.138 134.132 206.179C132.974 202.754 135.884 198.665 138.307 196.015C140.07 194.087 142.514 193.014 145.1 192.643C150.97 191.801 162.733 190.332 175.699 189.932C193.738 189.362 227.63 194.496 229.029 194.415Z" fill="#7A4630"/>
<path d="M175.006 202.267C158.773 201.75 159.276 189.212 159.398 181.347L161.001 155.674C161.096 149.425 167.63 144.25 177.736 144.548L195.192 144.82C204.836 145.114 209.646 150.333 210.656 156.267C210.691 156.469 210.715 156.672 210.737 156.875C211.049 159.873 213.522 184.156 212.579 192.065C211.547 200.623 191.252 202.769 175.006 202.267Z" fill="#7A4630"/>
<path d="M290.097 253.444C290.006 254.406 289.991 255.343 290.061 256.306C290.702 265.117 293.733 311.103 286.666 304.54C258.194 278.079 262.582 228.633 264.769 215.416C266.956 202.199 273.191 197.132 281.735 202.878C293.461 210.728 290.809 245.919 290.097 253.444Z" fill="#A86243"/>
<path d="M109.681 188.302C117.206 188.533 127.163 190.801 125.384 194.727C120.005 206.613 111.542 236.145 107.114 260.799C101.924 289.679 97.2653 315.964 95.0239 335.864C93.9915 345.047 85.9634 352.314 78.8183 347.179C76.7943 345.726 75.2729 343.688 74.7974 340.849C72.9364 329.48 66.4705 279.953 93.1357 198.775C96.4366 188.75 101.761 188.058 109.681 188.302Z" fill="#634874"/>
<path d="M275.581 194.741C270.623 190.883 249.935 186.658 242.26 189.022C234.585 191.386 236.826 225.21 246.389 263.435C255.64 300.383 269.944 348.28 277.578 356.729C279.086 358.386 281.205 359.242 283.392 359.093C287.983 358.767 295.291 357.164 294.911 350.222C294.368 340.157 286.313 295.71 280.078 247.392C274.78 206.206 280.39 198.476 275.581 194.741Z" fill="#634874"/>
<path d="M240.384 107.328C238.591 155.388 228.566 170.466 196.59 171.009C172.41 171.417 152.795 142.497 152.795 107.328C152.795 72.1594 172.41 43.6467 196.59 43.6467C220.769 43.6467 241.987 64.0634 240.384 107.328Z" fill="#273150"/>
<path d="M226.895 96.4339C226.665 64.9056 223.228 46.8662 188.358 44.2988C170.156 42.9676 152.238 44.6248 141.684 50.0856C132.148 55.0301 126.388 62.7186 123.06 83.4069C120.547 98.9876 117.015 125.938 122.231 152.033C125.573 168.755 147.022 175.085 165.931 176.389C214.751 179.758 222.25 166.785 225.293 143.774C229.395 112.626 226.977 109.379 226.895 96.4339Z" fill="#7A4630"/>
<path d="M220.579 115.519C220.28 88.1884 209.046 76.316 177.654 73.9932C161.272 72.7842 128.996 81.2198 127.488 99.3136C125.872 118.902 123.522 135.963 126.999 152.916C129.988 167.491 145.623 172.599 162.657 173.794C206.615 176.864 216.626 161.976 219.221 142.035C221.435 125.055 220.701 126.74 220.579 115.519Z" fill="#A96344"/>
<path d="M134.185 49.6238C131.265 51.3897 130.137 53.142 128.073 64.4167C127.638 66.7939 132.012 57.6111 135.951 54.025C139.891 50.4388 138.98 55.2475 159.601 54.7449C170.611 54.4766 184.075 53.3408 194.235 52.3404C202.599 51.5168 210.145 57.568 210.986 65.9302L212.145 77.4554C212.261 78.609 212.553 79.7379 213.011 80.8029L217.5 91.2341C219.622 96.1662 226.573 96.2815 228.858 91.4224V91.4224C229.212 90.6688 229.414 89.8443 229.441 89.012C230.202 65.5262 225.706 51.7984 210.051 46.5403C180.887 36.7327 144.903 43.1307 134.185 49.6238Z" fill="#273150"/>
<path d="M185.899 74.5502C185.532 79.3589 183.264 83.0674 180.819 82.8772C178.374 82.687 176.662 78.6798 176.975 73.871C177.287 69.008 179.569 65.1638 182.069 65.3539C184.554 65.5441 186.266 69.6872 185.899 74.5502Z" fill="#102342"/>
<path d="M175.942 64.9735L188.236 61.075" stroke="#273150" stroke-miterlimit="10" stroke-linecap="round" stroke-linejoin="round"/>
<path d="M151.41 75.7594C151.247 80.2964 149.264 83.7875 146.981 83.6109C144.686 83.4343 142.92 79.658 143.028 75.1209C143.137 70.5431 145.12 66.9298 147.457 67.1064C149.807 67.283 151.573 71.1816 151.41 75.7594Z" fill="#102342"/>
<path d="M150.214 64.9736L139.171 61.8221" stroke="#273150" stroke-miterlimit="10" stroke-linecap="round" stroke-linejoin="round"/>
<path d="M242.503 117.068C240.816 123.912 237.464 129.682 233.465 133.419C228.05 138.479 221.891 132.393 221.94 124.982C221.997 116.297 222.046 105.877 221.978 102.764C221.897 99.2323 223.934 88.338 232.723 89.7779C241.485 91.2042 245.818 103.62 242.503 117.068Z" fill="#7A4630"/>
<path d="M237.858 126.346C237.396 129.484 234.421 131.779 231.215 131.521C228.009 131.263 225.727 128.533 226.148 125.395C226.556 122.23 229.544 119.866 232.804 120.124C236.051 120.396 238.32 123.194 237.858 126.346Z" fill="#E2D6C9"/>
</g>
</svg>
