<svg width="327" height="327" viewBox="0 0 327 327" fill="none" xmlns="http://www.w3.org/2000/svg">
<rect width="327" height="327" rx="15" fill="#A36EBA"/>
<mask id="mask0_103_2607" style="mask-type:alpha" maskUnits="userSpaceOnUse" x="0" y="0" width="327" height="327">
<rect width="327" height="327" rx="15" fill="#A36EBA"/>
</mask>
<g mask="url(#mask0_103_2607)">
<path d="M-229.809 447.217C-229.67 447.168 -229.715 447.18 -229.574 447.134C-225.006 445.641 356.142 255.685 418.724 230.078C481.554 204.37 504.405 190.088 475.841 164.392V164.392C471.409 160.406 450.471 105.674 452.003 99.914C454.927 88.9202 454.231 76.9277 447.289 64.4293C438.364 48.3623 424.974 39.2695 410.868 35.8438C394.375 31.8384 360.497 8.83928 361.646 -8.09391C366.901 -85.579 353.883 -187.276 253.076 -201.183C99.2115 -222.408 19.2599 -95.7768 45.289 -15.8546C48.3081 -6.5844 44.1968 4.79406 36.0877 10.2065C21.2686 20.0976 1.7678 39.8942 -0.90576 76.4154C-1.47256 84.158 -6.99895 90.9796 -14.5679 92.7058C-36.0395 97.6028 -78.7701 110.677 -109.643 141.541C-127.242 159.135 -133.275 176.249 -134.275 190.31C-135.213 203.52 -149.016 223.218 -161.84 226.525C-180.866 231.43 -204.409 243.706 -223.888 272.925C-251.748 314.714 -239.404 355.112 -229.351 375.774C-225.474 383.745 -227.555 394.021 -235 398.831C-257.921 413.639 -301 443.142 -301 455.712C-301.012 472.311 -234.029 448.72 -229.809 447.217Z" fill="#F3E7D9" fill-opacity="0.2"/>
<path d="M115.352 183.749C111.544 174.866 109.639 168.201 92.5007 174.866C75.362 181.531 57.2712 200.249 50.6061 202.153C47.5173 203.035 45.86 205.758 44.9707 208.426C43.7128 212.2 41.8187 215.22 37.928 216.05C37.8171 216.074 37.7042 216.098 37.5892 216.122C31.5631 217.387 27.7546 222.148 24.5724 225.643C21.4027 229.139 12.5076 231.67 8.69905 235.804C4.89045 239.926 -20.4918 258.016 -2.08778 294.825C5.72986 310.46 10.6034 303.707 30.9117 292.281C51.22 280.855 83.9063 249.76 98.8275 239.6C113.761 229.452 119.249 192.869 115.352 183.749Z" fill="#273252"/>
<path d="M115.352 183.748C112.239 176.488 110.398 170.708 100.468 172.481C95.3715 173.391 91.9074 177.959 90.594 182.967C89.0682 188.785 86.5339 197.379 82.6659 207.565C76.4593 223.937 67.3553 232.586 64.8316 234.761C64.391 235.141 63.9918 235.557 63.6581 236.034L54.8846 248.561C53.7128 250.234 49.6729 248.335 48.3008 249.848V249.848C45.1312 253.343 32.9411 257.615 29.1325 261.737C27.4593 263.548 23.1744 272.185 18.8957 281.301C15.5007 288.534 23.9603 296.186 30.9241 292.268V292.268C51.2324 280.843 83.9187 249.747 98.8399 239.587C113.761 229.452 119.248 192.869 115.352 183.748Z" fill="#1D2538"/>
<path d="M10.1309 304.647C14.2926 302.472 18.7957 298.964 19.8205 294.381C20.7073 290.417 21.4149 283.912 21.4149 273.25C21.4149 248.82 8.7739 247.366 4.91519 237.707C-6.5106 209.143 -4.55619 223.437 -13.4888 204.069C-24.9146 179.313 -29.9886 163.452 -50.9359 172.335C-76.669 183.247 -80.7657 188.834 -78.2225 197.717C-75.6792 206.599 -73.7749 201.525 -71.8706 207.877C-69.9663 214.229 -57.9016 238.972 -52.8276 251.676C-49.2697 260.575 -45.7057 266.043 -43.8935 268.516C-43.1117 269.583 -42.3684 270.679 -41.7688 271.859C-39.7417 275.845 -34.7183 285.572 -31.2414 291.027C-27.2244 297.355 -10.1005 315.217 10.1309 304.647Z" fill="#C94039"/>
<path d="M10.1315 304.647C14.2932 302.473 18.7963 298.964 19.8212 294.382C19.9144 293.965 20.0056 293.52 20.0942 293.046C21.9215 283.259 11.6973 276.169 1.76801 275.445C-0.420556 275.285 -2.57284 274.935 -4.55553 274.315C-15.1294 271.008 -20.7296 254.032 -29.6622 234.663C-31.5241 230.629 -33.3933 227.699 -35.2179 225.621C-41.9962 217.9 -59.1217 218.15 -65.4999 210.095C-72.5064 201.247 -79.5474 193.065 -78.2218 197.717C-75.6786 206.6 -73.7743 201.526 -71.87 207.878C-69.9657 214.23 -57.9009 238.973 -52.827 251.677C-49.2691 260.576 -45.7051 266.044 -43.8929 268.517C-43.111 269.584 -42.3678 270.68 -41.7682 271.859C-39.741 275.845 -34.7176 285.573 -31.2408 291.028C-27.2237 297.355 -10.0998 315.218 10.1315 304.647Z" fill="#992C29"/>
<path opacity="0.9" d="M-55.3846 28.736C-81.4685 37.4306 -112.501 27.3078 -139.487 -1.34439C-151.253 -13.8339 -153.889 -35.1905 -153.656 -53.0835C-153.557 -60.698 -141.522 -62.22 -136.417 -56.569V-56.569C-126.47 -45.5567 -119.705 -70.6759 -133.411 -96.6094C-140.779 -110.55 -140.591 -122.265 -138.841 -130.118C-137.661 -135.417 -131.443 -135.636 -128.55 -131.042V-131.042C-125.002 -125.407 -116.182 -126.739 -114.197 -133.096C-108.133 -152.507 -96.7084 -183.464 -81.6439 -198.94C-58.7171 -222.494 -83.0972 -192.037 -67.4995 -165.866C-52.6298 -140.916 -46.3338 -165.745 -41.1653 -157.73C-40.5928 -156.842 -40.0925 -155.878 -39.4948 -155.007C-30.1854 -141.445 -27.0828 -124.696 -26.2734 -111.566C-25.7495 -103.068 -15.6551 -97.0388 -8.51585 -101.679V-101.679C-3.23106 -105.114 2.23108 -102.483 2.38076 -96.1819C3.09454 -66.134 -0.616775 10.4767 -55.3846 28.736Z" fill="#F7BC4B"/>
<path opacity="0.4" d="M-32.5321 38.7211C-52.5272 48.7187 -149.634 64.4291 -183.899 -38.3904C-218.164 -141.21 -118.063 -254.428 4.58921 -246.886C29.8232 -245.333 48.5138 -249.584 62.354 -256.599C76.8837 -263.963 112.923 -258.677 110.443 -242.577C108.213 -228.107 102.39 -214.558 90.2701 -205.468C10.0014 -145.269 23.1561 -115.502 20.2997 -61.2295C17.4432 -6.96952 -12.537 28.7361 -32.5321 38.7211Z" fill="#FEED7F"/>
<path d="M129.622 162.338C116.63 139.248 169.437 118.564 198.39 114.216C216.318 111.523 237.916 118.915 244.118 126.244C246.235 128.762 256.37 143.595 258.776 152.014C261.407 161.21 260.167 202.766 243.541 202.466C220.778 202.065 142.626 185.415 129.622 162.338Z" fill="#992C29"/>
<path d="M151.471 167.161C144.254 151.513 163.799 127.634 187.565 121.432C215.24 114.216 236.099 125.354 238.104 134.662C240.108 143.983 221.579 159.368 203.563 167.248C185.548 175.129 154.691 174.126 151.471 167.161Z" fill="#F3E7D9"/>
<path d="M197.375 156.774C213.862 143.632 218.572 144.91 218.159 134.249C217.495 117.022 176.728 132.269 168.309 134.675C159.89 137.08 144.693 162.262 153.864 176.795C163.047 191.315 180.887 169.917 197.375 156.774Z" fill="#273252"/>
<path d="M202.942 159.986C202.83 159.966 202.736 159.951 202.624 159.936C200.086 159.592 166.211 155.244 132.881 163.691C115.805 168.013 92.4518 200.424 92.4518 241.328C92.4518 273.563 99.9209 351.39 103.087 382.934C103.863 390.666 110.436 396.456 118.206 396.329L236.519 394.39C244.706 394.256 251.105 387.598 250.776 379.416C248.751 329.064 239.404 166.548 202.942 159.986Z" fill="#F7BC4B"/>
<path d="M165.901 334.14C170.826 336.107 175.435 330.698 172.711 326.147L139.474 270.625C138.197 268.492 137.47 266.074 137.359 263.59L133.715 182.079C133.291 172.587 124.287 166.814 117.63 173.593C104.513 186.948 92.4641 211.947 92.4641 241.328C92.4641 273.563 99.9331 351.39 103.099 382.934C103.875 390.666 110.448 396.456 118.218 396.329L189.047 395.168C204.797 394.91 209.618 373.513 195.566 366.392C187.122 362.112 179.358 358.122 173.71 355.11C165.073 350.503 161.431 343.895 159.905 338.811C158.825 335.212 162.411 332.746 165.901 334.14V334.14Z" fill="#CE9436"/>
<path d="M184.997 166.297C184.997 178.649 173.246 202.002 161.67 202.002C150.106 202.002 138.58 186.041 138.58 173.676C138.58 161.323 150.256 158.993 161.82 158.993C173.409 159.005 184.997 156.625 184.997 166.297Z" fill="#F5894E"/>
<path d="M137.879 162.964C131.69 155.346 91.9878 166.572 85.9742 179.802C84.095 183.936 87.1895 200.837 86.4754 210.859C84.8843 232.909 81.5142 254.132 83.9948 262.401C87.6029 274.428 92.514 331.995 87.7031 346.428C82.8923 360.873 92.514 393.359 97.3249 400.575C100.257 404.974 115.712 403.563 127.333 401.791C134.937 400.631 139.987 393.56 139.119 385.917L134.767 347.607C134.621 346.317 134.309 345.058 133.857 343.84C130.725 335.403 117.983 299.372 117.884 271.321C117.784 239.349 140.247 165.883 137.879 162.964Z" fill="#C94039"/>
<path d="M137.879 162.964C131.69 155.347 106.859 177.81 100.845 191.04C95.3342 203.164 110.752 307.128 113.367 324.415C113.617 326.069 114.133 327.596 114.923 329.071C117.401 333.7 122.995 344.035 124.148 345.188V345.188C126.84 347.88 118.204 350.057 119.781 353.522L121.51 357.323C124.958 364.904 136.37 361.746 135.43 353.471L134.67 346.774C134.588 346.054 134.416 345.356 134.16 344.677C131.671 338.068 117.986 300.421 117.884 271.346C117.784 239.349 140.247 165.883 137.879 162.964Z" fill="#992C29"/>
<path d="M144.068 161.773C129.159 178.699 151.547 241.591 161.207 239.511C170.866 237.419 195.96 162.863 178.909 157.338" stroke="#992C29" stroke-miterlimit="10"/>
<path d="M163.885 251.84C165.765 251.401 166.607 248.123 165.766 244.518C164.925 240.914 162.719 238.347 160.839 238.786C158.959 239.224 158.117 242.502 158.958 246.107C159.799 249.712 162.005 252.278 163.885 251.84Z" fill="#29ABE2"/>
<path d="M140.247 157.589C129.949 157.739 126.616 160.909 121.217 165.344C115.817 169.792 113.562 177.897 109.954 198.344C106.346 218.802 112.823 256.738 118.836 256.738C124.85 256.738 125 228.524 129.811 210.471C134.622 192.43 150.533 157.439 140.247 157.589Z" fill="#F3E7D9"/>
<path d="M196.9 160.107C189.283 169.153 188.205 230.491 191.813 262.977C195.422 295.463 217.083 338.786 219.488 359.232C221.894 379.69 223.097 398.934 227.907 402.554C231.629 405.355 265.534 404.205 280.703 403.541C285.308 403.339 289.556 400.959 291.178 396.644C295.28 385.734 299.524 361.753 277.983 328.938C259.454 300.7 266.156 175.254 250.521 169.24C234.873 163.214 204.517 151.062 196.9 160.107Z" fill="#992C29"/>
<path d="M200.959 208.88C193.342 217.926 188.205 230.491 191.814 262.977C195.422 295.463 217.083 338.786 219.489 359.232C221.894 379.691 223.097 398.934 227.908 402.555C232.718 406.175 253.165 400.525 239.283 347.656C237.467 340.74 222.758 270.67 226.73 243.571C229.16 226.996 208.576 199.835 200.959 208.88Z" fill="#C94039"/>
<path d="M190.71 252.93C185.311 248.482 184.521 243.596 184.521 226.745C184.521 209.895 186.35 183.41 189.282 165.344C192.138 147.73 226.09 149.321 219.751 162.012C211.394 178.725 206.984 186.467 203.564 213.415C199.756 243.408 196.11 257.377 190.71 252.93Z" fill="#F3E7D9"/>
<path d="M233.044 295.613C228.46 289.995 215.564 284.171 219.752 290.09C220.502 291.148 221.307 292.171 222.172 293.144C226.392 297.885 237.057 300.531 233.044 295.613V295.613Z" fill="#C94039"/>
<path d="M269.576 271.334C263.55 258.643 262.974 255.599 245.459 234.84C219.751 204.371 211.194 186.581 226.416 166.297C234.472 155.561 249.268 152.015 267.358 167.249C274.637 173.376 287.642 196.428 294.971 207.24C305.708 223.076 318.812 241.718 322.257 249.761C325.703 257.804 324.162 259.921 316.244 260.523C304.555 261.425 290.423 261.725 286.364 267.413C280.613 275.469 274.813 282.372 269.576 271.334Z" fill="#273252"/>
<path d="M322.257 249.76C318.812 241.717 305.695 223.075 294.971 207.239C287.642 196.427 274.637 173.388 267.359 167.249C258.2 159.537 249.886 156.637 242.864 157.047C233.453 157.597 236.089 169.109 245.141 171.74V171.74C246.945 172.265 248.617 173.156 250.026 174.399C253.002 177.022 258.731 182.222 265.043 188.744C265.776 189.501 266.583 190.184 267.449 190.784C271.173 193.361 275.92 196.826 280.927 200.95C288.568 207.237 291.315 212.614 292.29 215.412C292.612 216.336 291.741 217.045 290.833 216.681V216.681C289.583 216.181 287.159 216.621 287.726 217.842C287.848 218.106 288.002 218.419 288.193 218.79C299.281 240.314 288.92 245.137 284.886 251.176C279.599 259.106 280.613 275.468 286.364 267.413C290.423 261.725 304.555 261.412 316.244 260.522C324.162 259.921 325.703 257.803 322.257 249.76Z" fill="#1D2538"/>
<path d="M275.291 275.468C276.556 282.447 278.661 282.584 282.269 284.99C285.877 287.395 293.457 305.536 298.267 322.387C303.078 339.237 307.889 344.048 306.686 348.859C305.484 353.67 306.686 358.481 310.295 359.683C313.903 360.886 329.551 354.872 336.767 359.683C343.983 364.494 347.591 376.534 353.617 376.534C359.643 376.534 358.428 368.115 356.023 364.507C353.617 360.899 352.415 345.251 350.009 328.413C347.604 311.562 329.876 267.55 326.694 262.476C321.395 253.995 314.642 254.07 299.721 255.172C291.151 255.786 274.025 268.478 275.291 275.468Z" fill="#C94039"/>
<path d="M275.291 275.468C276.556 282.447 278.661 282.584 282.269 284.99C285.877 287.395 293.457 305.536 298.267 322.387C303.078 339.237 307.889 344.048 306.686 348.859C305.484 353.67 306.686 358.481 310.295 359.683C313.903 360.886 329.551 354.872 336.767 359.683C343.983 364.494 347.591 376.534 353.617 376.534C359.643 376.534 358.428 368.115 356.023 364.507C353.617 360.899 352.415 345.251 350.009 328.413C347.604 311.562 329.876 267.55 326.694 262.476C321.395 253.995 314.642 254.07 299.721 255.172C291.151 255.786 274.025 268.478 275.291 275.468Z" fill="#992C29"/>
<path d="M275.289 275.469C276.554 282.447 278.659 282.585 282.267 284.99C285.875 287.396 293.455 305.536 298.266 322.387C303.077 339.238 307.888 344.048 306.685 348.859C305.482 353.67 306.685 358.481 310.293 359.684C313.901 360.886 313.463 337.747 309.742 322.387C306.021 307.027 307.599 298.683 295.447 279.603C292.941 275.657 286.878 260.272 281.49 264.895C276.98 268.766 274.713 272.286 275.289 275.469Z" fill="#C94039"/>
<path d="M150.683 118.084C143.649 120.069 139.069 126.835 139.84 134.103L143.723 170.713C143.877 172.162 144.225 173.602 145.087 174.777C147.161 177.605 152.407 182.547 163.424 181.744C174.516 180.944 179.027 174.328 180.669 170.751C181.341 169.289 181.423 167.659 181.268 166.058L177.668 128.825C176.767 119.518 167.664 113.294 158.664 115.833L150.683 118.084Z" fill="#F5894E"/>
<path d="M155.861 116.852C146.824 119.283 142.207 129.299 146.562 137.583C151.601 147.167 157.83 158.092 161.607 161.36C162.999 162.564 164.681 163.569 166.489 164.406C174.89 168.299 182.757 160.101 181.822 150.889L179.55 128.512C178.617 119.312 169.661 113.14 160.731 115.542L155.861 116.852Z" fill="#CC6D3D"/>
<path d="M207.498 104.619C196.692 130.058 186.909 140.879 182.452 144.845C180.858 146.264 178.794 146.957 176.665 147.113C124.333 150.93 97.0509 113.802 99.6168 80.1259C101.007 44.5205 108.224 31.4661 147.162 30.4012C201.396 28.9228 220.627 73.6989 207.498 104.619Z" fill="#1D2538"/>
<path d="M207.498 104.619C196.692 130.059 186.909 140.879 182.452 144.846C180.858 146.264 178.794 146.958 176.665 147.113C124.333 150.931 97.0509 113.802 99.6168 80.1264C101.007 44.521 103.212 27.1944 148.377 23.4485C211.093 18.2493 220.627 73.6994 207.498 104.619Z" fill="#1D2538"/>
<path d="M211.156 104.982C199.347 132.803 162.302 115.482 157.88 113.294C157.586 113.148 157.309 112.998 157.042 112.806C148.998 107.017 145.841 77.8494 144.004 58.452C142.388 41.4512 132.641 25.44 179.497 30.1381C221.141 34.3226 222.344 78.6351 211.156 104.982Z" fill="#3E4C6F"/>
<path d="M153.357 36.6124C149.571 35.2547 145.425 35.6215 141.891 37.543C133.18 42.2798 116.893 51.4147 113.336 55.3709C108.425 60.8332 104.629 119.44 113.975 137.945C123.183 156.198 182.993 153.505 196.423 140.15C207.423 129.213 204.705 118.325 207.01 100.285C209.44 81.2794 196.336 68.9641 194.895 61.5975C192.997 51.8544 165.665 41.0258 153.357 36.6124Z" fill="#CC6D3D"/>
<path d="M214.026 93.0685C211.658 103.793 206.183 112.061 201.773 111.56C197.351 111.059 195.672 101.913 198.027 91.089C200.395 80.2396 205.932 71.8957 210.367 72.4845C214.777 73.0734 216.406 82.3067 214.026 93.0685Z" fill="#CC6D3D"/>
<path d="M118.221 86.3032C108.75 92.4921 105.681 133.222 122.168 141.954C138.655 150.686 153.388 147.967 164.801 137.794C174.786 128.899 169.099 107.513 155.242 97.779C138.279 85.8646 127.693 80.1142 118.221 86.3032Z" fill="#F5894E"/>
<path d="M96.6606 92.8557C98.3269 102.001 103.225 109.08 107.635 108.679C112.058 108.278 114.326 100.51 112.672 91.2896C111.018 82.0438 106.057 74.9027 101.622 75.3662C97.1994 75.8423 94.9818 83.685 96.6606 92.8557Z" fill="#F5894E"/>
<path d="M205.227 56.7949C201.789 53.8438 196.522 55.9783 196.265 60.5019C195.775 69.1185 195.558 80.605 197.38 85.6819C197.459 85.9035 197.562 86.1038 197.683 86.3055V86.3055C199.88 89.9555 205.472 88.5893 205.738 84.3376L207.174 61.4055C207.284 59.6484 206.563 57.9416 205.227 56.7949V56.7949Z" fill="#3E4C6F"/>
<path d="M111.075 89.6056C109.954 91.8232 106.667 91.0644 106.665 88.5795C106.658 79.7142 106.839 67.1581 107.836 62.011V62.011C108.384 60.0345 111.295 60.4286 111.298 62.4796L111.331 88.5273C111.331 88.9019 111.244 89.2713 111.075 89.6056V89.6056Z" fill="#1D2538"/>
<path d="M195.566 38.7923C196.512 42.4207 195.019 46.0824 191.764 47.943C185.95 51.2656 174.1 55.8552 152.762 56.1095C136.062 56.31 121.88 62.4989 113.761 60.8953C93.8288 56.9364 127.267 19.2513 161.544 17.6978C186.167 16.5859 193.427 30.5819 195.566 38.7923Z" fill="#1D2538"/>
<path d="M161.745 17.2718C134.258 19.6522 105.656 45.1347 121.705 48.3043C125.919 49.138 132.434 50.2284 140.35 51.1405C141.66 51.2916 142.988 51.266 144.285 51.0252C155.048 49.0271 165.768 44.615 170.847 42.3413C172.151 41.7574 173.644 42.5353 173.025 43.8232V43.8232C172.083 45.7853 173.28 52.9802 175.456 52.9356C176.982 52.9043 178.514 52.8561 180.049 52.7895C194.281 52.1756 195.772 52.9147 196.749 48.179C198.704 38.5699 191.45 14.691 161.745 17.2718Z" fill="#3E4C6F"/>
<path d="M175.813 97.5414C176.051 101.563 174.259 103.442 172.242 103.568C170.225 103.693 168.759 102.001 168.521 97.9799C168.283 93.9583 169.711 90.5882 171.728 90.4755C173.745 90.3627 175.562 93.5073 175.813 97.5414Z" fill="#34283A"/>
<path d="M142.112 99.9465C142.35 103.968 140.559 105.847 138.542 105.973C136.525 106.098 135.059 104.407 134.821 100.385C134.583 96.3634 136.011 92.9933 138.028 92.8806C140.045 92.7553 141.874 95.9124 142.112 99.9465Z" fill="#34283A"/>
<path d="M181.2 84.2362C181.2 84.2362 177.254 77.1326 170.839 79.062" stroke="#34283A" stroke-width="2" stroke-miterlimit="10" stroke-linecap="round" stroke-linejoin="round"/>
<path d="M135.485 81.5802C135.485 81.5802 127.88 81.0289 126.101 87.0675" stroke="#34283A" stroke-width="2" stroke-miterlimit="10" stroke-linecap="round" stroke-linejoin="round"/>
</g>
</svg>
